<svg width="230" height="331" viewBox="0 0 230 331" fill="none" xmlns="http://www.w3.org/2000/svg">
<mask id="mask0_2057_80756" style="mask-type:alpha" maskUnits="userSpaceOnUse" x="-199" y="79" width="282" height="314">
<path d="M-74.6 83.584C-64.3279 77.6534 -51.6721 77.6534 -41.4 83.584L65.6961 145.416C75.9682 151.347 82.2961 162.307 82.2961 174.168V297.832C82.2961 309.693 75.9682 320.653 65.6961 326.584L-41.4 388.416C-51.6721 394.347 -64.3279 394.347 -74.6 388.416L-181.696 326.584C-191.968 320.653 -198.296 309.693 -198.296 297.832V174.168C-198.296 162.307 -191.968 151.347 -181.696 145.416L-74.6 83.584Z" fill="#F2F4F7"/>
</mask>
<g mask="url(#mask0_2057_80756)">
<path d="M12.6284 100.537C12.6284 101.831 11.5053 102.89 10.1326 102.89C8.75986 102.89 7.63672 101.831 7.63672 100.537C7.63672 99.2426 8.75986 98.1836 10.1326 98.1836C11.5053 98.1836 12.6284 99.2426 12.6284 100.537Z" fill="#D3E4F2"/>
<path d="M38.7849 102.89C40.1633 102.89 41.2806 101.837 41.2806 100.537C41.2806 99.2372 40.1633 98.1836 38.7849 98.1836C37.4065 98.1836 36.2891 99.2372 36.2891 100.537C36.2891 101.837 37.4065 102.89 38.7849 102.89Z" fill="#D3E4F2"/>
<path d="M67.449 102.89C68.8274 102.89 69.9448 101.837 69.9448 100.537C69.9448 99.2372 68.8274 98.1836 67.449 98.1836C66.0706 98.1836 64.9531 99.2372 64.9531 100.537C64.9531 101.837 66.0706 102.89 67.449 102.89Z" fill="#D3E4F2"/>
<path d="M12.6284 126.97C12.6284 128.265 11.5053 129.324 10.1326 129.324C8.75986 129.324 7.63672 128.265 7.63672 126.97C7.63672 125.676 8.75986 124.617 10.1326 124.617C11.5053 124.637 12.6284 125.676 12.6284 126.97Z" fill="#D3E4F2"/>
<path d="M38.7849 129.324C40.1633 129.324 41.2806 128.27 41.2806 126.97C41.2806 125.671 40.1633 124.617 38.7849 124.617C37.4065 124.617 36.2891 125.671 36.2891 126.97C36.2891 128.27 37.4065 129.324 38.7849 129.324Z" fill="#D3E4F2"/>
<path d="M67.449 129.324C68.8274 129.324 69.9448 128.27 69.9448 126.97C69.9448 125.671 68.8274 124.617 67.449 124.617C66.0706 124.617 64.9531 125.671 64.9531 126.97C64.9531 128.27 66.0706 129.324 67.449 129.324Z" fill="#D3E4F2"/>
<path d="M12.6284 153.426C12.6284 154.72 11.5053 155.779 10.1326 155.779C8.75986 155.779 7.63672 154.72 7.63672 153.426C7.63672 152.131 8.75986 151.072 10.1326 151.072C11.5053 151.072 12.6284 152.112 12.6284 153.426Z" fill="#D3E4F2"/>
<path d="M38.7849 155.779C40.1633 155.779 41.2806 154.725 41.2806 153.426C41.2806 152.126 40.1633 151.072 38.7849 151.072C37.4065 151.072 36.2891 152.126 36.2891 153.426C36.2891 154.725 37.4065 155.779 38.7849 155.779Z" fill="#D3E4F2"/>
<path d="M67.449 155.779C68.8274 155.779 69.9448 154.725 69.9448 153.426C69.9448 152.126 68.8274 151.072 67.449 151.072C66.0706 151.072 64.9531 152.126 64.9531 153.426C64.9531 154.725 66.0706 155.779 67.449 155.779Z" fill="#D3E4F2"/>
<path d="M12.6284 179.861C12.6284 181.155 11.5053 182.214 10.1326 182.214C8.75986 182.214 7.63672 181.155 7.63672 179.861C7.63672 178.567 8.75986 177.508 10.1326 177.508C11.5053 177.508 12.6284 178.567 12.6284 179.861Z" fill="#D3E4F2"/>
<path d="M38.7849 182.214C40.1633 182.214 41.2806 181.161 41.2806 179.861C41.2806 178.561 40.1633 177.508 38.7849 177.508C37.4065 177.508 36.2891 178.561 36.2891 179.861C36.2891 181.161 37.4065 182.214 38.7849 182.214Z" fill="#D3E4F2"/>
<path d="M67.449 182.214C68.8274 182.214 69.9448 181.161 69.9448 179.861C69.9448 178.561 68.8274 177.508 67.449 177.508C66.0706 177.508 64.9531 178.561 64.9531 179.861C64.9531 181.161 66.0706 182.214 67.449 182.214Z" fill="#D3E4F2"/>
<path d="M12.6284 206.295C12.6284 207.589 11.5053 208.648 10.1326 208.648C8.75986 208.648 7.63672 207.589 7.63672 206.295C7.63672 205 8.75986 203.941 10.1326 203.941C11.5053 203.941 12.6284 205 12.6284 206.295Z" fill="#D3E4F2"/>
<path d="M38.7849 208.648C40.1633 208.648 41.2806 207.594 41.2806 206.295C41.2806 204.995 40.1633 203.941 38.7849 203.941C37.4065 203.941 36.2891 204.995 36.2891 206.295C36.2891 207.594 37.4065 208.648 38.7849 208.648Z" fill="#D3E4F2"/>
<path d="M67.449 208.648C68.8274 208.648 69.9448 207.594 69.9448 206.295C69.9448 204.995 68.8274 203.941 67.449 203.941C66.0706 203.941 64.9531 204.995 64.9531 206.295C64.9531 207.594 66.0706 208.648 67.449 208.648Z" fill="#D3E4F2"/>
<path d="M12.6284 232.734C12.6284 234.028 11.5053 235.087 10.1326 235.087C8.75986 235.087 7.63672 234.028 7.63672 232.734C7.63672 231.44 8.75986 230.381 10.1326 230.381C11.5053 230.381 12.6284 231.44 12.6284 232.734Z" fill="#D3E4F2"/>
<path d="M38.7849 235.087C40.1633 235.087 41.2806 234.034 41.2806 232.734C41.2806 231.434 40.1633 230.381 38.7849 230.381C37.4065 230.381 36.2891 231.434 36.2891 232.734C36.2891 234.034 37.4065 235.087 38.7849 235.087Z" fill="#D3E4F2"/>
<path d="M67.449 235.087C68.8274 235.087 69.9448 234.034 69.9448 232.734C69.9448 231.434 68.8274 230.381 67.449 230.381C66.0706 230.381 64.9531 231.434 64.9531 232.734C64.9531 234.034 66.0706 235.087 67.449 235.087Z" fill="#D3E4F2"/>
<path d="M12.6284 259.164C12.6284 260.458 11.5053 261.517 10.1326 261.517C8.75986 261.517 7.63672 260.458 7.63672 259.164C7.63672 257.869 8.75986 256.811 10.1326 256.811C11.5053 256.83 12.6284 257.869 12.6284 259.164Z" fill="#D3E4F2"/>
<path d="M38.7849 261.517C40.1633 261.517 41.2806 260.463 41.2806 259.164C41.2806 257.864 40.1633 256.811 38.7849 256.811C37.4065 256.811 36.2891 257.864 36.2891 259.164C36.2891 260.463 37.4065 261.517 38.7849 261.517Z" fill="#D3E4F2"/>
<path d="M67.449 261.517C68.8274 261.517 69.9448 260.463 69.9448 259.164C69.9448 257.864 68.8274 256.811 67.449 256.811C66.0706 256.811 64.9531 257.864 64.9531 259.164C64.9531 260.463 66.0706 261.517 67.449 261.517Z" fill="#D3E4F2"/>
<path d="M12.6284 285.619C12.6284 286.913 11.5053 287.972 10.1326 287.972C8.75986 287.972 7.63672 286.913 7.63672 285.619C7.63672 284.325 8.75986 283.266 10.1326 283.266C11.5053 283.266 12.6284 284.305 12.6284 285.619Z" fill="#D3E4F2"/>
<path d="M38.7849 287.972C40.1633 287.972 41.2806 286.919 41.2806 285.619C41.2806 284.319 40.1633 283.266 38.7849 283.266C37.4065 283.266 36.2891 284.319 36.2891 285.619C36.2891 286.919 37.4065 287.972 38.7849 287.972Z" fill="#D3E4F2"/>
<path d="M67.449 287.972C68.8274 287.972 69.9448 286.919 69.9448 285.619C69.9448 284.319 68.8274 283.266 67.449 283.266C66.0706 283.266 64.9531 284.319 64.9531 285.619C64.9531 286.919 66.0706 287.972 67.449 287.972Z" fill="#D3E4F2"/>
<path d="M12.6284 312.054C12.6284 313.349 11.5053 314.408 10.1326 314.408C8.75986 314.408 7.63672 313.349 7.63672 312.054C7.63672 310.76 8.75986 309.701 10.1326 309.701C11.5053 309.701 12.6284 310.76 12.6284 312.054Z" fill="#D3E4F2"/>
<path d="M38.7849 314.408C40.1633 314.408 41.2806 313.354 41.2806 312.054C41.2806 310.755 40.1633 309.701 38.7849 309.701C37.4065 309.701 36.2891 310.755 36.2891 312.054C36.2891 313.354 37.4065 314.408 38.7849 314.408Z" fill="#D3E4F2"/>
<path d="M67.449 314.408C68.8274 314.408 69.9448 313.354 69.9448 312.054C69.9448 310.755 68.8274 309.701 67.449 309.701C66.0706 309.701 64.9531 310.755 64.9531 312.054C64.9531 313.354 66.0706 314.408 67.449 314.408Z" fill="#D3E4F2"/>
</g>
<mask id="mask1_2057_80756" style="mask-type:alpha" maskUnits="userSpaceOnUse" x="-73" y="5" width="282" height="314">
<path d="M51.4 9.58402C61.6721 3.65341 74.3279 3.65341 84.6 9.58401L191.696 71.416C201.968 77.3466 208.296 88.3068 208.296 100.168V223.832C208.296 235.693 201.968 246.653 191.696 252.584L84.6 314.416C74.3279 320.347 61.6721 320.347 51.4 314.416L-55.6961 252.584C-65.9682 246.653 -72.2961 235.693 -72.2961 223.832V100.168C-72.2961 88.3068 -65.9682 77.3466 -55.6961 71.416L51.4 9.58402Z" fill="#F2F4F7"/>
</mask>
<g mask="url(#mask1_2057_80756)">
<path d="M10.8005 23.148C12.1789 23.148 13.2964 22.0944 13.2964 20.7947C13.2964 19.495 12.1789 18.4414 10.8005 18.4414C9.42213 18.4414 8.30469 19.495 8.30469 20.7947C8.30469 22.0944 9.42213 23.148 10.8005 23.148Z" fill="#D3E4F2"/>
<path d="M39.4607 23.148C40.8391 23.148 41.9565 22.0944 41.9565 20.7947C41.9565 19.495 40.8391 18.4414 39.4607 18.4414C38.0823 18.4414 36.9648 19.495 36.9648 20.7947C36.9648 22.0944 38.0823 23.148 39.4607 23.148Z" fill="#D3E4F2"/>
<path d="M68.1443 23.148C69.5227 23.148 70.64 22.0944 70.64 20.7947C70.64 19.495 69.5227 18.4414 68.1443 18.4414C66.7659 18.4414 65.6484 19.495 65.6484 20.7947C65.6484 22.0944 66.7659 23.148 68.1443 23.148Z" fill="#D3E4F2"/>
<path d="M96.8044 23.148C98.1828 23.148 99.3003 22.0944 99.3003 20.7947C99.3003 19.495 98.1828 18.4414 96.8044 18.4414C95.426 18.4414 94.3086 19.495 94.3086 20.7947C94.3086 22.0944 95.426 23.148 96.8044 23.148Z" fill="#D3E4F2"/>
<path d="M125.472 23.148C126.851 23.148 127.968 22.0944 127.968 20.7947C127.968 19.495 126.851 18.4414 125.472 18.4414C124.094 18.4414 122.977 19.495 122.977 20.7947C122.977 22.0944 124.094 23.148 125.472 23.148Z" fill="#D3E4F2"/>
<path d="M156.621 20.7947C156.621 22.089 155.497 23.148 154.125 23.148C152.752 23.148 151.629 22.089 151.629 20.7947C151.629 19.5004 152.752 18.4414 154.125 18.4414C155.497 18.4414 156.621 19.5004 156.621 20.7947Z" fill="#D3E4F2"/>
<path d="M182.781 23.148C184.159 23.148 185.277 22.0944 185.277 20.7947C185.277 19.495 184.159 18.4414 182.781 18.4414C181.403 18.4414 180.285 19.495 180.285 20.7947C180.285 22.0944 181.403 23.148 182.781 23.148Z" fill="#D3E4F2"/>
<path d="M10.8005 49.5855C12.1789 49.5855 13.2964 48.5319 13.2964 47.2322C13.2964 45.9325 12.1789 44.8789 10.8005 44.8789C9.42213 44.8789 8.30469 45.9325 8.30469 47.2322C8.30469 48.5319 9.42213 49.5855 10.8005 49.5855Z" fill="#D3E4F2"/>
<path d="M39.4607 49.5855C40.8391 49.5855 41.9565 48.5319 41.9565 47.2322C41.9565 45.9325 40.8391 44.8789 39.4607 44.8789C38.0823 44.8789 36.9648 45.9325 36.9648 47.2322C36.9648 48.5319 38.0823 49.5855 39.4607 49.5855Z" fill="#D3E4F2"/>
<path d="M68.1443 49.5855C69.5227 49.5855 70.64 48.5319 70.64 47.2322C70.64 45.9325 69.5227 44.8789 68.1443 44.8789C66.7659 44.8789 65.6484 45.9325 65.6484 47.2322C65.6484 48.5319 66.7659 49.5855 68.1443 49.5855Z" fill="#D3E4F2"/>
<path d="M96.8044 49.5855C98.1828 49.5855 99.3003 48.5319 99.3003 47.2322C99.3003 45.9325 98.1828 44.8789 96.8044 44.8789C95.426 44.8789 94.3086 45.9325 94.3086 47.2322C94.3086 48.5319 95.426 49.5855 96.8044 49.5855Z" fill="#D3E4F2"/>
<path d="M125.472 49.5855C126.851 49.5855 127.968 48.5319 127.968 47.2322C127.968 45.9325 126.851 44.8789 125.472 44.8789C124.094 44.8789 122.977 45.9325 122.977 47.2322C122.977 48.5319 124.094 49.5855 125.472 49.5855Z" fill="#D3E4F2"/>
<path d="M156.621 47.2322C156.621 48.5265 155.497 49.5855 154.125 49.5855C152.752 49.5855 151.629 48.5265 151.629 47.2322C151.629 45.9379 152.752 44.8789 154.125 44.8789C155.497 44.8985 156.621 45.9379 156.621 47.2322Z" fill="#D3E4F2"/>
<path d="M182.781 49.5855C184.159 49.5855 185.277 48.5319 185.277 47.2322C185.277 45.9325 184.159 44.8789 182.781 44.8789C181.403 44.8789 180.285 45.9325 180.285 47.2322C180.285 48.5319 181.403 49.5855 182.781 49.5855Z" fill="#D3E4F2"/>
<path d="M10.8005 76.0386C12.1789 76.0386 13.2964 74.985 13.2964 73.6853C13.2964 72.3856 12.1789 71.332 10.8005 71.332C9.42213 71.332 8.30469 72.3856 8.30469 73.6853C8.30469 74.985 9.42213 76.0386 10.8005 76.0386Z" fill="#D3E4F2"/>
<path d="M39.4607 76.0386C40.8391 76.0386 41.9565 74.985 41.9565 73.6853C41.9565 72.3856 40.8391 71.332 39.4607 71.332C38.0823 71.332 36.9648 72.3856 36.9648 73.6853C36.9648 74.985 38.0823 76.0386 39.4607 76.0386Z" fill="#D3E4F2"/>
<path d="M68.1443 76.0386C69.5227 76.0386 70.64 74.985 70.64 73.6853C70.64 72.3856 69.5227 71.332 68.1443 71.332C66.7659 71.332 65.6484 72.3856 65.6484 73.6853C65.6484 74.985 66.7659 76.0386 68.1443 76.0386Z" fill="#D3E4F2"/>
<path d="M96.8044 76.0386C98.1828 76.0386 99.3003 74.985 99.3003 73.6853C99.3003 72.3856 98.1828 71.332 96.8044 71.332C95.426 71.332 94.3086 72.3856 94.3086 73.6853C94.3086 74.985 95.426 76.0386 96.8044 76.0386Z" fill="#D3E4F2"/>
<path d="M125.472 76.0386C126.851 76.0386 127.968 74.985 127.968 73.6853C127.968 72.3856 126.851 71.332 125.472 71.332C124.094 71.332 122.977 72.3856 122.977 73.6853C122.977 74.985 124.094 76.0386 125.472 76.0386Z" fill="#D3E4F2"/>
<path d="M156.621 73.6853C156.621 74.9796 155.497 76.0386 154.125 76.0386C152.752 76.0386 151.629 74.9796 151.629 73.6853C151.629 72.391 152.752 71.332 154.125 71.332C155.497 71.332 156.621 72.3714 156.621 73.6853Z" fill="#D3E4F2"/>
<path d="M182.781 76.0386C184.159 76.0386 185.277 74.985 185.277 73.6853C185.277 72.3856 184.159 71.332 182.781 71.332C181.403 71.332 180.285 72.3856 180.285 73.6853C180.285 74.985 181.403 76.0386 182.781 76.0386Z" fill="#D3E4F2"/>
<path d="M10.8005 102.472C12.1789 102.472 13.2964 101.419 13.2964 100.119C13.2964 98.8192 12.1789 97.7656 10.8005 97.7656C9.42213 97.7656 8.30469 98.8192 8.30469 100.119C8.30469 101.419 9.42213 102.472 10.8005 102.472Z" fill="#D3E4F2"/>
<path d="M39.4607 102.472C40.8391 102.472 41.9565 101.419 41.9565 100.119C41.9565 98.8192 40.8391 97.7656 39.4607 97.7656C38.0823 97.7656 36.9648 98.8192 36.9648 100.119C36.9648 101.419 38.0823 102.472 39.4607 102.472Z" fill="#D3E4F2"/>
<path d="M68.1443 102.472C69.5227 102.472 70.64 101.419 70.64 100.119C70.64 98.8192 69.5227 97.7656 68.1443 97.7656C66.7659 97.7656 65.6484 98.8192 65.6484 100.119C65.6484 101.419 66.7659 102.472 68.1443 102.472Z" fill="#D3E4F2"/>
<path d="M96.8044 102.472C98.1828 102.472 99.3003 101.419 99.3003 100.119C99.3003 98.8192 98.1828 97.7656 96.8044 97.7656C95.426 97.7656 94.3086 98.8192 94.3086 100.119C94.3086 101.419 95.426 102.472 96.8044 102.472Z" fill="#D3E4F2"/>
<path d="M125.472 102.472C126.851 102.472 127.968 101.419 127.968 100.119C127.968 98.8192 126.851 97.7656 125.472 97.7656C124.094 97.7656 122.977 98.8192 122.977 100.119C122.977 101.419 124.094 102.472 125.472 102.472Z" fill="#D3E4F2"/>
<path d="M156.621 100.119C156.621 101.413 155.497 102.472 154.125 102.472C152.752 102.472 151.629 101.413 151.629 100.119C151.629 98.8246 152.752 97.7656 154.125 97.7656C155.497 97.7656 156.621 98.8246 156.621 100.119Z" fill="#D3E4F2"/>
<path d="M182.781 102.472C184.159 102.472 185.277 101.419 185.277 100.119C185.277 98.8192 184.159 97.7656 182.781 97.7656C181.403 97.7656 180.285 98.8192 180.285 100.119C180.285 101.419 181.403 102.472 182.781 102.472Z" fill="#D3E4F2"/>
<path d="M39.4607 128.91C40.8391 128.91 41.9565 127.856 41.9565 126.556C41.9565 125.257 40.8391 124.203 39.4607 124.203C38.0823 124.203 36.9648 125.257 36.9648 126.556C36.9648 127.856 38.0823 128.91 39.4607 128.91Z" fill="#D3E4F2"/>
<path d="M68.1443 128.91C69.5227 128.91 70.64 127.856 70.64 126.556C70.64 125.257 69.5227 124.203 68.1443 124.203C66.7659 124.203 65.6484 125.257 65.6484 126.556C65.6484 127.856 66.7659 128.91 68.1443 128.91Z" fill="#D3E4F2"/>
<path d="M96.8044 128.91C98.1828 128.91 99.3003 127.856 99.3003 126.556C99.3003 125.257 98.1828 124.203 96.8044 124.203C95.426 124.203 94.3086 125.257 94.3086 126.556C94.3086 127.856 95.426 128.91 96.8044 128.91Z" fill="#D3E4F2"/>
<path d="M125.472 128.91C126.851 128.91 127.968 127.856 127.968 126.556C127.968 125.257 126.851 124.203 125.472 124.203C124.094 124.203 122.977 125.257 122.977 126.556C122.977 127.856 124.094 128.91 125.472 128.91Z" fill="#D3E4F2"/>
<path d="M156.621 126.556C156.621 127.851 155.497 128.91 154.125 128.91C152.752 128.91 151.629 127.851 151.629 126.556C151.629 125.262 152.752 124.203 154.125 124.203C155.497 124.203 156.621 125.262 156.621 126.556Z" fill="#D3E4F2"/>
<path d="M182.781 128.91C184.159 128.91 185.277 127.856 185.277 126.556C185.277 125.257 184.159 124.203 182.781 124.203C181.403 124.203 180.285 125.257 180.285 126.556C180.285 127.856 181.403 128.91 182.781 128.91Z" fill="#D3E4F2"/>
<path d="M96.8044 155.347C98.1828 155.347 99.3003 154.294 99.3003 152.994C99.3003 151.694 98.1828 150.641 96.8044 150.641C95.426 150.641 94.3086 151.694 94.3086 152.994C94.3086 154.294 95.426 155.347 96.8044 155.347Z" fill="#D3E4F2"/>
<path d="M125.472 155.347C126.851 155.347 127.968 154.294 127.968 152.994C127.968 151.694 126.851 150.641 125.472 150.641C124.094 150.641 122.977 151.694 122.977 152.994C122.977 154.294 124.094 155.347 125.472 155.347Z" fill="#D3E4F2"/>
<path d="M156.621 152.994C156.621 154.288 155.497 155.347 154.125 155.347C152.752 155.347 151.629 154.288 151.629 152.994C151.629 151.7 152.752 150.641 154.125 150.641C155.497 150.641 156.621 151.7 156.621 152.994Z" fill="#D3E4F2"/>
<path d="M182.781 155.347C184.159 155.347 185.277 154.294 185.277 152.994C185.277 151.694 184.159 150.641 182.781 150.641C181.403 150.641 180.285 151.694 180.285 152.994C180.285 154.294 181.403 155.347 182.781 155.347Z" fill="#D3E4F2"/>
<path d="M96.8044 181.777C98.1828 181.777 99.3003 180.723 99.3003 179.424C99.3003 178.124 98.1828 177.07 96.8044 177.07C95.426 177.07 94.3086 178.124 94.3086 179.424C94.3086 180.723 95.426 181.777 96.8044 181.777Z" fill="#D3E4F2"/>
<path d="M125.472 181.777C126.851 181.777 127.968 180.723 127.968 179.424C127.968 178.124 126.851 177.07 125.472 177.07C124.094 177.07 122.977 178.124 122.977 179.424C122.977 180.723 124.094 181.777 125.472 181.777Z" fill="#D3E4F2"/>
<path d="M156.621 179.424C156.621 180.718 155.497 181.777 154.125 181.777C152.752 181.777 151.629 180.718 151.629 179.424C151.629 178.129 152.752 177.07 154.125 177.07C155.497 177.09 156.621 178.129 156.621 179.424Z" fill="#D3E4F2"/>
<path d="M182.781 181.777C184.159 181.777 185.277 180.723 185.277 179.424C185.277 178.124 184.159 177.07 182.781 177.07C181.403 177.07 180.285 178.124 180.285 179.424C180.285 180.723 181.403 181.777 182.781 181.777Z" fill="#D3E4F2"/>
<path d="M96.8044 208.234C98.1828 208.234 99.3003 207.18 99.3003 205.881C99.3003 204.581 98.1828 203.527 96.8044 203.527C95.426 203.527 94.3086 204.581 94.3086 205.881C94.3086 207.18 95.426 208.234 96.8044 208.234Z" fill="#D3E4F2"/>
<path d="M125.472 208.234C126.851 208.234 127.968 207.18 127.968 205.881C127.968 204.581 126.851 203.527 125.472 203.527C124.094 203.527 122.977 204.581 122.977 205.881C122.977 207.18 124.094 208.234 125.472 208.234Z" fill="#D3E4F2"/>
<path d="M156.621 205.881C156.621 207.175 155.497 208.234 154.125 208.234C152.752 208.234 151.629 207.175 151.629 205.881C151.629 204.586 152.752 203.527 154.125 203.527C155.497 203.527 156.621 204.567 156.621 205.881Z" fill="#D3E4F2"/>
<path d="M182.781 208.234C184.159 208.234 185.277 207.18 185.277 205.881C185.277 204.581 184.159 203.527 182.781 203.527C181.403 203.527 180.285 204.581 180.285 205.881C180.285 207.18 181.403 208.234 182.781 208.234Z" fill="#D3E4F2"/>
<path d="M96.8044 234.667C98.1828 234.667 99.3003 233.614 99.3003 232.314C99.3003 231.015 98.1828 229.961 96.8044 229.961C95.426 229.961 94.3086 231.015 94.3086 232.314C94.3086 233.614 95.426 234.667 96.8044 234.667Z" fill="#D3E4F2"/>
<path d="M125.472 234.667C126.851 234.667 127.968 233.614 127.968 232.314C127.968 231.015 126.851 229.961 125.472 229.961C124.094 229.961 122.977 231.015 122.977 232.314C122.977 233.614 124.094 234.667 125.472 234.667Z" fill="#D3E4F2"/>
<path d="M156.621 232.314C156.621 233.608 155.497 234.667 154.125 234.667C152.752 234.667 151.629 233.608 151.629 232.314C151.629 231.02 152.752 229.961 154.125 229.961C155.497 229.961 156.621 231.02 156.621 232.314Z" fill="#D3E4F2"/>
<path d="M182.781 234.667C184.159 234.667 185.277 233.614 185.277 232.314C185.277 231.015 184.159 229.961 182.781 229.961C181.403 229.961 180.285 231.015 180.285 232.314C180.285 233.614 181.403 234.667 182.781 234.667Z" fill="#D3E4F2"/>
<path d="M96.8044 261.105C98.1828 261.105 99.3003 260.051 99.3003 258.752C99.3003 257.452 98.1828 256.398 96.8044 256.398C95.426 256.398 94.3086 257.452 94.3086 258.752C94.3086 260.051 95.426 261.105 96.8044 261.105Z" fill="#D3E4F2"/>
<path d="M125.472 261.105C126.851 261.105 127.968 260.051 127.968 258.752C127.968 257.452 126.851 256.398 125.472 256.398C124.094 256.398 122.977 257.452 122.977 258.752C122.977 260.051 124.094 261.105 125.472 261.105Z" fill="#D3E4F2"/>
<path d="M156.621 258.752C156.621 260.046 155.497 261.105 154.125 261.105C152.752 261.105 151.629 260.046 151.629 258.752C151.629 257.457 152.752 256.398 154.125 256.398C155.497 256.398 156.621 257.457 156.621 258.752Z" fill="#D3E4F2"/>
<path d="M182.781 261.105C184.159 261.105 185.277 260.051 185.277 258.752C185.277 257.452 184.159 256.398 182.781 256.398C181.403 256.398 180.285 257.452 180.285 258.752C180.285 260.051 181.403 261.105 182.781 261.105Z" fill="#D3E4F2"/>
<path d="M96.8044 287.535C98.1828 287.535 99.3003 286.481 99.3003 285.181C99.3003 283.882 98.1828 282.828 96.8044 282.828C95.426 282.828 94.3086 283.882 94.3086 285.181C94.3086 286.481 95.426 287.535 96.8044 287.535Z" fill="#D3E4F2"/>
<path d="M125.472 287.535C126.851 287.535 127.968 286.481 127.968 285.181C127.968 283.882 126.851 282.828 125.472 282.828C124.094 282.828 122.977 283.882 122.977 285.181C122.977 286.481 124.094 287.535 125.472 287.535Z" fill="#D3E4F2"/>
<path d="M156.621 285.181C156.621 286.476 155.497 287.535 154.125 287.535C152.752 287.535 151.629 286.476 151.629 285.181C151.629 283.887 152.752 282.828 154.125 282.828C155.497 282.828 156.621 283.887 156.621 285.181Z" fill="#D3E4F2"/>
<path d="M182.781 287.535C184.159 287.535 185.277 286.481 185.277 285.181C185.277 283.882 184.159 282.828 182.781 282.828C181.403 282.828 180.285 283.882 180.285 285.181C180.285 286.481 181.403 287.535 182.781 287.535Z" fill="#D3E4F2"/>
<path d="M13.2964 311.623C13.2964 312.917 12.1732 313.976 10.8005 313.976C9.42783 313.976 8.30469 312.917 8.30469 311.623C8.30469 310.328 9.42783 309.27 10.8005 309.27C12.1732 309.289 13.2964 310.328 13.2964 311.623Z" fill="#D3E4F2"/>
<path d="M41.9565 311.623C41.9565 312.917 40.8334 313.976 39.4607 313.976C38.088 313.976 36.9648 312.917 36.9648 311.623C36.9648 310.328 38.088 309.27 39.4607 309.27C40.8542 309.289 41.9565 310.328 41.9565 311.623Z" fill="#D3E4F2"/>
<path d="M99.3003 311.623C99.3003 312.917 98.1771 313.976 96.8044 313.976C95.4317 313.976 94.3086 312.917 94.3086 311.623C94.3086 310.328 95.4317 309.27 96.8044 309.27C98.1771 309.289 99.3003 310.328 99.3003 311.623Z" fill="#D3E4F2"/>
<path d="M127.968 311.623C127.968 312.917 126.845 313.976 125.472 313.976C124.1 313.976 122.977 312.917 122.977 311.623C122.977 310.328 124.1 309.27 125.472 309.27C126.845 309.289 127.968 310.328 127.968 311.623Z" fill="#D3E4F2"/>
<path d="M156.621 311.623C156.621 312.917 155.497 313.976 154.125 313.976C152.752 313.976 151.629 312.917 151.629 311.623C151.629 310.328 152.752 309.27 154.125 309.27C155.497 309.289 156.621 310.328 156.621 311.623Z" fill="#D3E4F2"/>
<path d="M185.277 311.623C185.277 312.917 184.154 313.976 182.781 313.976C181.408 313.976 180.285 312.917 180.285 311.623C180.285 310.328 181.408 309.27 182.781 309.27C184.154 309.289 185.277 310.328 185.277 311.623Z" fill="#D3E4F2"/>
</g>
</svg>
