<svg width="20" height="20" viewBox="0 0 20 20" fill="none" xmlns="http://www.w3.org/2000/svg">
<path d="M1 5.0438H19C19.6 5.0438 20 4.63504 20 4.0219C20 3.40876 19.6 3 19 3H1C0.4 3 0 3.40876 0 4.0219C0 4.63504 0.4 5.0438 1 5.0438ZM7 13.219H1C0.4 13.219 0 13.6277 0 14.2409C0 14.854 0.4 15.2628 1 15.2628H7C7.6 15.2628 8 14.854 8 14.2409C8 13.6277 7.6 13.219 7 13.219ZM16.5 8.10949H1C0.4 8.10949 0 8.51825 0 9.13139C0 9.74453 0.4 10.1533 1 10.1533H16.5C17.3 10.1533 18 10.8686 18 11.6861C18 12.5036 17.3 13.219 16.5 13.219H13.7C14 12.8102 14.1 12.2993 13.7 11.8905C13.3 11.4818 12.7 11.3796 12.3 11.7883L10.3 13.5255L10.2 13.6277C9.8 14.0365 9.9 14.7518 10.3 15.0584L12.3 16.7956C12.5 16.8978 12.7 17 12.9 17C13.2 17 13.5 16.8978 13.7 16.5912C14 16.1825 14 15.6715 13.7 15.2628H16.5C18.4 15.2628 20 13.6277 20 11.6861C20 9.74453 18.4 8.10949 16.5 8.10949Z" fill="#344054"/>
</svg>
