<svg width="124" height="274" viewBox="0 0 124 274" fill="none" xmlns="http://www.w3.org/2000/svg">
<path d="M17.1977 2.50745C16.8084 2.50745 16.4929 2.19194 16.4929 1.80273C16.4929 1.41353 16.8084 1.09801 17.1977 1.09801L17.1977 2.50745ZM58.5977 2.50745L17.1977 2.50745L17.1977 1.09801L58.5977 1.09802L58.5977 2.50745Z" fill="url(#paint0_linear_2403_29250)"/>
<rect width="3.6" height="3.6" rx="1.8" transform="matrix(-1 0 0 1 18.9976 0.00390625)" fill="#7AAFD8"/>
<path d="M121.596 272.509C121.985 272.509 122.301 272.194 122.301 271.805C122.301 271.415 121.985 271.1 121.596 271.1L121.596 272.509ZM80.196 272.509L121.596 272.509L121.596 271.1L80.196 271.1L80.196 272.509Z" fill="url(#paint1_linear_2403_29250)"/>
<rect x="119.796" y="270.004" width="3.6" height="3.6" rx="1.8" fill="#7AAFD8"/>
<path d="M2.79604 138.41C2.40684 138.41 2.09132 138.094 2.09132 137.705C2.09132 137.316 2.40684 137 2.79604 137L2.79604 138.41ZM44.196 138.41L2.79604 138.41L2.79604 137L44.196 137L44.196 138.41Z" fill="url(#paint2_linear_2403_29250)"/>
<rect width="3.6" height="3.6" rx="1.8" transform="matrix(-1 0 0 1 4.59595 135.906)" fill="#7AAFD8"/>
<defs>
<linearGradient id="paint0_linear_2403_29250" x1="-4.85235" y1="1.80273" x2="57.2764" y2="1.80274" gradientUnits="userSpaceOnUse">
<stop stop-color="#7AAFD8"/>
<stop offset="1" stop-color="#7AAFD8" stop-opacity="0"/>
</linearGradient>
<linearGradient id="paint1_linear_2403_29250" x1="143.646" y1="271.805" x2="81.5173" y2="271.805" gradientUnits="userSpaceOnUse">
<stop stop-color="#7AAFD8"/>
<stop offset="1" stop-color="#7AAFD8" stop-opacity="0"/>
</linearGradient>
<linearGradient id="paint2_linear_2403_29250" x1="-19.254" y1="137.705" x2="42.8748" y2="137.705" gradientUnits="userSpaceOnUse">
<stop stop-color="#7AAFD8"/>
<stop offset="1" stop-color="#7AAFD8" stop-opacity="0"/>
</linearGradient>
</defs>
</svg>
