<svg width="24" height="24" viewBox="0 0 24 24" fill="none" xmlns="http://www.w3.org/2000/svg">
<path d="M6.71994 9.11462L3.25682 12.0002L6.71994 14.8859C6.8348 14.98 6.92988 15.0959 6.99971 15.227C7.06953 15.358 7.11273 15.5016 7.12679 15.6494C7.14086 15.7973 7.12552 15.9464 7.08166 16.0883C7.03781 16.2301 6.96629 16.3619 6.87126 16.476C6.77622 16.5901 6.65953 16.6843 6.52792 16.753C6.39632 16.8218 6.2524 16.8639 6.10447 16.8768C5.95653 16.8896 5.80751 16.8731 5.666 16.8281C5.52448 16.7831 5.39328 16.7106 5.27994 16.6146L0.779944 12.8646C0.653204 12.759 0.551233 12.6269 0.481254 12.4775C0.411275 12.3281 0.375 12.1652 0.375 12.0002C0.375 11.8353 0.411275 11.6724 0.481254 11.523C0.551233 11.3736 0.653204 11.2414 0.779944 11.1359L5.27994 7.38587C5.50951 7.19773 5.80413 7.10794 6.0996 7.13606C6.39508 7.16417 6.66747 7.30792 6.85744 7.53597C7.0474 7.76403 7.13954 8.05792 7.11379 8.35361C7.08804 8.6493 6.94647 8.92284 6.71994 9.11462ZM23.2199 11.1359L18.7199 7.38587C18.6066 7.28992 18.4754 7.21736 18.3339 7.17237C18.1924 7.12738 18.0434 7.11085 17.8954 7.12373C17.7475 7.13661 17.6036 7.17866 17.472 7.24744C17.3404 7.31621 17.2237 7.41037 17.1286 7.52446C17.0336 7.63856 16.9621 7.77034 16.9182 7.91221C16.8744 8.05408 16.859 8.20323 16.8731 8.35106C16.8872 8.49888 16.9304 8.64246 17.0002 8.77351C17.07 8.90456 17.1651 9.02049 17.2799 9.11462L20.7431 12.0002L17.2799 14.8859C17.1651 14.98 17.07 15.0959 17.0002 15.227C16.9304 15.358 16.8872 15.5016 16.8731 15.6494C16.859 15.7973 16.8744 15.9464 16.9182 16.0883C16.9621 16.2301 17.0336 16.3619 17.1286 16.476C17.2237 16.5901 17.3404 16.6843 17.472 16.753C17.6036 16.8218 17.7475 16.8639 17.8954 16.8768C18.0434 16.8896 18.1924 16.8731 18.3339 16.8281C18.4754 16.7831 18.6066 16.7106 18.7199 16.6146L23.2199 12.8646C23.3467 12.759 23.4487 12.6269 23.5186 12.4775C23.5886 12.3281 23.6249 12.1652 23.6249 12.0002C23.6249 11.8353 23.5886 11.6724 23.5186 11.523C23.4487 11.3736 23.3467 11.2414 23.2199 11.1359ZM15.3843 2.69274C15.2454 2.64224 15.098 2.61959 14.9504 2.62609C14.8027 2.63259 14.6578 2.6681 14.5239 2.73061C14.39 2.79312 14.2698 2.88139 14.17 2.99039C14.0702 3.09939 13.9929 3.22698 13.9424 3.36587L7.94244 19.8659C7.84074 20.1462 7.85451 20.4555 7.98073 20.7257C8.10695 20.9959 8.33529 21.2049 8.61557 21.3068C8.73862 21.3522 8.86877 21.3754 8.99994 21.3752C9.23092 21.3753 9.45632 21.3042 9.64551 21.1717C9.8347 21.0392 9.97853 20.8517 10.0574 20.6346L16.0574 4.13462C16.1079 3.99575 16.1306 3.84829 16.1241 3.70066C16.1176 3.55303 16.0821 3.40813 16.0196 3.27424C15.9571 3.14034 15.8688 3.02007 15.7598 2.9203C15.6508 2.82052 15.5232 2.7432 15.3843 2.69274Z" fill="#475467"/>
</svg>
