<svg width="24" height="15" viewBox="0 0 24 15" fill="none" xmlns="http://www.w3.org/2000/svg">
<g clip-path="url(#clip0_1395_11223)">
<path d="M6.82118 5.71581C6.82118 6.00792 6.85276 6.24476 6.90802 6.41844C6.97118 6.59213 7.05012 6.7816 7.16065 6.98686C7.20012 7.05002 7.21591 7.11318 7.21591 7.16844C7.21591 7.24739 7.16854 7.32634 7.06591 7.40528L6.56854 7.73686C6.49749 7.78423 6.42644 7.80792 6.36328 7.80792C6.28433 7.80792 6.20539 7.76844 6.12644 7.69739C6.01591 7.57897 5.92118 7.45265 5.84223 7.32634C5.76328 7.19213 5.68433 7.04213 5.59749 6.86055C4.9817 7.58686 4.20802 7.95002 3.27644 7.95002C2.61328 7.95002 2.08433 7.76055 1.69749 7.3816C1.31065 7.00265 1.11328 6.49739 1.11328 5.86581C1.11328 5.19476 1.35012 4.65002 1.8317 4.23949C2.31328 3.82897 2.95275 3.6237 3.76591 3.6237C4.03433 3.6237 4.31065 3.64739 4.60275 3.68686C4.89486 3.72634 5.19486 3.78949 5.51065 3.86055V3.28423C5.51065 2.68423 5.38433 2.26581 5.1396 2.02107C4.88697 1.77634 4.46065 1.65792 3.85275 1.65792C3.57644 1.65792 3.29223 1.68949 3.00012 1.76055C2.70802 1.8316 2.42381 1.91844 2.14749 2.02897C2.02118 2.08423 1.92644 2.11581 1.87118 2.1316C1.81591 2.14739 1.77644 2.15528 1.74486 2.15528C1.63433 2.15528 1.57907 2.07634 1.57907 1.91055V1.5237C1.57907 1.39739 1.59486 1.30265 1.63433 1.24739C1.67381 1.19213 1.74486 1.13686 1.85539 1.0816C2.1317 0.939494 2.46328 0.821073 2.85012 0.726336C3.23697 0.623705 3.64749 0.576336 4.0817 0.576336C5.02118 0.576336 5.70802 0.789494 6.15012 1.21581C6.58433 1.64213 6.80539 2.28949 6.80539 3.15792V5.71581H6.82118ZM3.61591 6.91581C3.87644 6.91581 4.14486 6.86844 4.42907 6.77371C4.71328 6.67897 4.96591 6.50528 5.17907 6.26844C5.30539 6.11844 5.40012 5.95265 5.44749 5.76318C5.49486 5.5737 5.52644 5.34476 5.52644 5.07634V4.74476C5.29749 4.68949 5.05275 4.64213 4.80012 4.61055C4.54749 4.57897 4.30276 4.56318 4.05802 4.56318C3.52907 4.56318 3.14223 4.66581 2.8817 4.87897C2.62118 5.09213 2.49486 5.39213 2.49486 5.78686C2.49486 6.15792 2.5896 6.43423 2.78697 6.6237C2.97644 6.82107 3.25275 6.91581 3.61591 6.91581ZM9.95539 7.76844C9.81328 7.76844 9.71854 7.74476 9.65539 7.68949C9.59223 7.64213 9.53697 7.5316 9.4896 7.3816L7.63433 1.27897C7.58697 1.12107 7.56328 1.01844 7.56328 0.963178C7.56328 0.836863 7.62644 0.76581 7.75276 0.76581H8.52644C8.67644 0.76581 8.77907 0.789494 8.83433 0.844757C8.89749 0.892126 8.94486 1.00265 8.99223 1.15265L10.3185 6.37897L11.5501 1.15265C11.5896 0.994757 11.637 0.892126 11.7001 0.844757C11.7633 0.797389 11.8738 0.76581 12.0159 0.76581H12.6475C12.7975 0.76581 12.9001 0.789494 12.9633 0.844757C13.0264 0.892126 13.0817 1.00265 13.1133 1.15265L14.3606 6.44213L15.7264 1.15265C15.7738 0.994757 15.8291 0.892126 15.8843 0.844757C15.9475 0.797389 16.0501 0.76581 16.1922 0.76581H16.9264C17.0528 0.76581 17.1238 0.828968 17.1238 0.963178C17.1238 1.00265 17.1159 1.04213 17.108 1.08949C17.1001 1.13686 17.0843 1.20002 17.0528 1.28686L15.1501 7.38949C15.1028 7.54739 15.0475 7.65002 14.9843 7.69739C14.9212 7.74476 14.8185 7.77634 14.6843 7.77634H14.0054C13.8554 7.77634 13.7528 7.75265 13.6896 7.69739C13.6264 7.64213 13.5712 7.53949 13.5396 7.3816L12.3159 2.28949L11.1001 7.3737C11.0607 7.5316 11.0133 7.63423 10.9501 7.68949C10.887 7.74476 10.7764 7.76844 10.6343 7.76844H9.95539ZM20.1001 7.9816C19.6896 7.9816 19.2791 7.93423 18.8843 7.83949C18.4896 7.74476 18.1817 7.64213 17.9764 7.52371C17.8501 7.45265 17.7633 7.3737 17.7317 7.30265C17.7001 7.2316 17.6843 7.15265 17.6843 7.0816V6.67897C17.6843 6.51318 17.7475 6.43423 17.8659 6.43423C17.9133 6.43423 17.9607 6.44213 18.008 6.45792C18.0554 6.4737 18.1264 6.50528 18.2054 6.53686C18.4738 6.65528 18.7659 6.75002 19.0738 6.81318C19.3896 6.87634 19.6975 6.90792 20.0133 6.90792C20.5107 6.90792 20.8975 6.82107 21.1659 6.64739C21.4343 6.4737 21.5764 6.22107 21.5764 5.89739C21.5764 5.67634 21.5054 5.49476 21.3633 5.34476C21.2212 5.19476 20.9528 5.06055 20.5659 4.93423L19.4212 4.57897C18.8449 4.39739 18.4185 4.12897 18.158 3.7737C17.8975 3.42634 17.7633 3.03949 17.7633 2.62897C17.7633 2.29739 17.8343 2.00528 17.9764 1.75265C18.1185 1.50002 18.308 1.27897 18.5449 1.10528C18.7817 0.923705 19.0501 0.789494 19.3659 0.694757C19.6817 0.600021 20.0133 0.560547 20.3606 0.560547C20.5343 0.560547 20.7159 0.568442 20.8896 0.592126C21.0712 0.61581 21.237 0.647389 21.4028 0.678968C21.5606 0.718442 21.7106 0.757915 21.8528 0.805284C21.9949 0.852652 22.1054 0.900021 22.1843 0.947389C22.2949 1.01055 22.3738 1.0737 22.4212 1.14476C22.4685 1.20792 22.4922 1.29476 22.4922 1.40528V1.77634C22.4922 1.94213 22.4291 2.02897 22.3107 2.02897C22.2475 2.02897 22.1449 1.99739 22.0106 1.93423C21.5606 1.72897 21.0554 1.62634 20.4949 1.62634C20.0449 1.62634 19.6896 1.69739 19.4449 1.84739C19.2001 1.99739 19.0738 2.22634 19.0738 2.55002C19.0738 2.77107 19.1528 2.96055 19.3106 3.11055C19.4685 3.26055 19.7607 3.41055 20.1791 3.54476L21.3001 3.90002C21.8685 4.0816 22.2791 4.33423 22.5238 4.65792C22.7685 4.9816 22.887 5.35265 22.887 5.76318C22.887 6.10265 22.8159 6.41055 22.6817 6.67897C22.5396 6.94739 22.3501 7.18423 22.1054 7.3737C21.8607 7.57107 21.5685 7.71318 21.2291 7.81581C20.8738 7.92634 20.5028 7.9816 20.1001 7.9816Z" fill="#FCFCFD"/>
<path fill-rule="evenodd" clip-rule="evenodd" d="M21.5913 11.8186C18.9939 13.737 15.2202 14.7554 11.9755 14.7554C7.42812 14.7554 3.33076 13.0739 0.236019 10.2791C-0.00871824 10.0581 0.212334 9.75807 0.50444 9.93176C3.85181 11.8739 7.98076 13.0502 12.2518 13.0502C15.1334 13.0502 18.2992 12.4502 21.2123 11.2186C21.6465 11.0212 22.0176 11.5028 21.5913 11.8186Z" fill="#FF9900"/>
<path fill-rule="evenodd" clip-rule="evenodd" d="M22.6736 10.5871C22.342 10.1608 20.4789 10.3818 19.6341 10.4845C19.3815 10.516 19.342 10.295 19.571 10.1292C21.0552 9.08708 23.4947 9.38708 23.7789 9.73445C24.0631 10.0897 23.6999 12.5292 22.3105 13.6976C22.0973 13.8792 21.892 13.7845 21.9868 13.5476C22.3026 12.766 23.0052 11.0055 22.6736 10.5871Z" fill="#FF9900"/>
</g>
<defs>
<clipPath id="clip0_1395_11223">
<rect width="24" height="14.3684" fill="white" transform="translate(0 0.473633)"/>
</clipPath>
</defs>
</svg>
