<svg width="24" height="24" viewBox="0 0 24 24" fill="none" xmlns="http://www.w3.org/2000/svg">
<path d="M1 4.00044V10.0004M1 10.0004H7M1 10.0004L5.64 5.64044C7.02091 4.26186 8.81245 3.36941 10.7447 3.09755C12.6769 2.8257 14.6451 3.18917 16.3528 4.1332C18.0605 5.07723 19.4152 6.55068 20.2126 8.33154C21.0101 10.1124 21.2072 12.1042 20.7742 14.0068C20.3413 15.9094 19.3017 17.6198 17.8121 18.8802C16.3226 20.1406 14.4637 20.8828 12.5157 20.9949C10.5677 21.107 8.63598 20.583 7.01166 19.5018C5.38734 18.4206 4.15839 16.8408 3.51 15.0004" stroke="#475467" stroke-width="2" stroke-linecap="round" stroke-linejoin="round"/>
<path d="M12 8.5V13L15.5 15" stroke="#475467" stroke-width="2" stroke-linecap="round" stroke-linejoin="round"/>
</svg>
