<svg width="36" height="36" viewBox="0 0 36 36" fill="none" xmlns="http://www.w3.org/2000/svg">
<g clip-path="url(#clip0_2780_2742)">
<path d="M12.167 20.4998H11.3337C10.8916 20.4998 10.4677 20.3242 10.1551 20.0117C9.84259 19.6991 9.66699 19.2752 9.66699 18.8332V11.3332C9.66699 10.8911 9.84259 10.4672 10.1551 10.1547C10.4677 9.8421 10.8916 9.6665 11.3337 9.6665H18.8337C19.2757 9.6665 19.6996 9.8421 20.0122 10.1547C20.3247 10.4672 20.5003 10.8911 20.5003 11.3332V12.1665M17.167 15.4998H24.667C25.5875 15.4998 26.3337 16.246 26.3337 17.1665V24.6665C26.3337 25.587 25.5875 26.3332 24.667 26.3332H17.167C16.2465 26.3332 15.5003 25.587 15.5003 24.6665V17.1665C15.5003 16.246 16.2465 15.4998 17.167 15.4998Z" stroke="#344054" stroke-width="1.66667" stroke-linecap="round" stroke-linejoin="round"/>
</g>
<defs>
<clipPath id="clip0_2780_2742">
<rect width="20" height="20" fill="white" transform="translate(8 8)"/>
</clipPath>
</defs>
</svg>
