<svg width="24" height="25" viewBox="0 0 24 25" fill="none" xmlns="http://www.w3.org/2000/svg">
<path fill-rule="evenodd" clip-rule="evenodd" d="M11.8789 6.89941H21.9589V10.9794H11.8789V6.89941Z" fill="white"/>
<path fill-rule="evenodd" clip-rule="evenodd" d="M2.75938 20.2195C1.87162 20.2195 1.09822 19.7363 0.683015 19.0195C0.471033 19.3839 0.359366 19.798 0.359375 20.2195C0.359375 21.5451 1.43386 22.6195 2.75938 22.6195H5.15938V20.2195H2.75938Z" fill="#3ECC5F"/>
<path fill-rule="evenodd" clip-rule="evenodd" d="M13.5569 7.54453L21.9593 7.01941V5.81941C21.9593 4.49389 20.8848 3.41941 19.5593 3.41941H8.75926L8.45926 2.89981C8.32582 2.66881 7.99258 2.66881 7.85926 2.89981L7.55926 3.41941L7.25926 2.89981C7.12594 2.66881 6.79258 2.66881 6.65926 2.89981L6.35926 3.41941L6.05926 2.89981C5.92594 2.66881 5.59258 2.66881 5.45926 2.89981L5.15926 3.41941C5.15662 3.41941 5.15422 3.41977 5.15146 3.41977L4.65442 2.92285C4.46602 2.73433 4.14418 2.82049 4.07506 3.07813L3.91078 3.69061L3.28774 3.52357C3.02998 3.45457 2.79442 3.69025 2.86354 3.94789L3.03034 4.57105L2.4181 4.73509C2.16034 4.80421 2.07406 5.12617 2.26258 5.31469L2.75962 5.81173C2.75962 5.81425 2.75926 5.81677 2.75926 5.81941L2.23966 6.11941C2.00866 6.25273 2.00866 6.58609 2.23966 6.71941L2.75926 7.01941L2.23966 7.31941C2.00866 7.45273 2.00866 7.78609 2.23966 7.91941L2.75926 8.21941L2.23966 8.51941C2.00866 8.65273 2.00866 8.98609 2.23966 9.11941L2.75926 9.41941L2.23966 9.71941C2.00866 9.85273 2.00866 10.1861 2.23966 10.3194L2.75926 10.6194L2.23966 10.9194C2.00866 11.0527 2.00866 11.3861 2.23966 11.5194L2.75926 11.8194L2.23966 12.1194C2.00866 12.2527 2.00866 12.5861 2.23966 12.7194L2.75926 13.0194L2.23966 13.3194C2.00866 13.4527 2.00866 13.7861 2.23966 13.9194L2.75926 14.2194L2.23966 14.5194C2.00866 14.6527 2.00866 14.9861 2.23966 15.1194L2.75926 15.4194L2.23966 15.7194C2.00866 15.8527 2.00866 16.1861 2.23966 16.3194L2.75926 16.6194L2.23966 16.9194C2.00866 17.0527 2.00866 17.3861 2.23966 17.5194L2.75926 17.8194L2.23966 18.1194C2.00866 18.2527 2.00866 18.5861 2.23966 18.7194L2.75926 19.0194L2.23966 19.3194C2.00866 19.4527 2.00866 19.7861 2.23966 19.9194L2.75926 20.2194C2.75926 21.5449 3.83374 22.6194 5.15926 22.6194H19.5593C20.8848 22.6194 21.9593 21.5449 21.9593 20.2194V10.6194L13.5569 10.0943C13.2325 10.074 12.9281 9.93084 12.7056 9.69399C12.4831 9.45713 12.3593 9.14438 12.3593 8.81941C12.3593 8.14489 12.8837 7.58665 13.5569 7.54453Z" fill="#3ECC5F"/>
<path fill-rule="evenodd" clip-rule="evenodd" d="M17.1602 22.6193H20.7602V17.8193H17.1602V22.6193Z" fill="#3ECC5F"/>
<path fill-rule="evenodd" clip-rule="evenodd" d="M23.1594 19.6197C23.1331 19.6197 23.108 19.6242 23.0827 19.6274C23.0781 19.6094 23.0738 19.5913 23.0688 19.5733C23.1966 19.5198 23.3021 19.4237 23.3671 19.3013C23.4322 19.179 23.4529 19.0378 23.4256 18.9019C23.3984 18.766 23.325 18.6437 23.2178 18.5558C23.1107 18.4679 22.9764 18.4198 22.8378 18.4197C22.7067 18.4202 22.5795 18.4639 22.4759 18.544C22.4626 18.5305 22.4492 18.517 22.4357 18.5037C22.514 18.4006 22.5566 18.2748 22.557 18.1453C22.5569 18.007 22.5091 17.8731 22.4216 17.766C22.3341 17.659 22.2124 17.5854 22.077 17.5578C21.9415 17.5301 21.8007 17.5501 21.6782 17.6143C21.5558 17.6785 21.4593 17.7831 21.4051 17.9102C21.3873 17.9052 21.3695 17.901 21.3517 17.8964C21.3549 17.8711 21.3594 17.846 21.3594 17.8197C21.3594 17.6606 21.2962 17.508 21.1836 17.3955C21.0711 17.2829 20.9185 17.2197 20.7594 17.2197C20.6002 17.2197 20.4476 17.2829 20.3351 17.3955C20.2226 17.508 20.1594 17.6606 20.1594 17.8197C20.1594 17.846 20.1638 17.8711 20.1671 17.8964C20.1493 17.901 20.1314 17.9052 20.1137 17.9102C20.0596 17.7828 19.9632 17.678 19.8407 17.6136C19.7182 17.5492 19.5772 17.5291 19.4416 17.5568C19.306 17.5845 19.1842 17.6582 19.0967 17.7655C19.0093 17.8727 18.9616 18.0069 18.9618 18.1453C18.9618 18.2803 19.0079 18.4034 19.0831 18.5037C18.6371 18.9396 18.3594 19.5469 18.3594 20.2197C18.3594 21.5452 19.4339 22.6197 20.7594 22.6197C21.8801 22.6197 22.8186 21.8505 23.0827 20.812C23.108 20.8153 23.1331 20.8197 23.1594 20.8197C23.3185 20.8197 23.4711 20.7565 23.5836 20.644C23.6962 20.5315 23.7594 20.3789 23.7594 20.2197C23.7594 20.0606 23.6962 19.908 23.5836 19.7955C23.4711 19.6829 23.3185 19.6197 23.1594 19.6197Z" fill="#44D860"/>
<path fill-rule="evenodd" clip-rule="evenodd" d="M18.3594 15.4195H21.9594V13.0195H18.3594V15.4195Z" fill="#3ECC5F"/>
<path fill-rule="evenodd" clip-rule="evenodd" d="M23.1598 14.519C23.2393 14.519 23.3156 14.4874 23.3719 14.4312C23.4282 14.3749 23.4598 14.2986 23.4598 14.219C23.4598 14.1395 23.4282 14.0631 23.3719 14.0069C23.3156 13.9506 23.2393 13.919 23.1598 13.919C23.1467 13.919 23.1341 13.9213 23.1215 13.9229C23.1191 13.9139 23.117 13.9049 23.1145 13.8959C23.1784 13.8691 23.231 13.821 23.2635 13.7598C23.2959 13.6986 23.3062 13.6281 23.2926 13.5602C23.279 13.4923 23.2423 13.4312 23.1888 13.3872C23.1353 13.3433 23.0682 13.3192 22.999 13.319C22.9307 13.319 22.8684 13.3427 22.818 13.3812C22.8114 13.3743 22.8047 13.3676 22.7978 13.361C22.8355 13.311 22.8586 13.2493 22.8586 13.1817C22.8585 13.1126 22.8346 13.0456 22.7909 12.992C22.7472 12.9385 22.6863 12.9017 22.6185 12.8879C22.5508 12.8741 22.4803 12.8841 22.4191 12.9162C22.3579 12.9484 22.3097 13.0007 22.2826 13.0643C22.1775 13.0346 22.0689 13.0193 21.9598 13.019C21.2971 13.019 20.7598 13.5564 20.7598 14.219C20.7598 14.8817 21.2971 15.419 21.9598 15.419C22.0718 15.419 22.1797 15.4025 22.2826 15.3738C22.3097 15.4374 22.3579 15.4897 22.4191 15.5218C22.4803 15.554 22.5508 15.564 22.6185 15.5502C22.6863 15.5363 22.7472 15.4995 22.7909 15.446C22.8346 15.3925 22.8585 15.3254 22.8586 15.2563C22.8586 15.1887 22.8355 15.1271 22.7978 15.077C22.8047 15.0704 22.8114 15.0637 22.818 15.0569C22.8684 15.0954 22.9307 15.119 22.999 15.119C23.0683 15.119 23.1355 15.095 23.1891 15.051C23.2427 15.0071 23.2795 14.9459 23.2931 14.8779C23.3067 14.81 23.2964 14.7394 23.2638 14.6782C23.2313 14.6169 23.1785 14.5689 23.1145 14.5422C23.117 14.5333 23.1191 14.5242 23.1215 14.5152C23.1341 14.5167 23.1467 14.519 23.1598 14.519Z" fill="#44D860"/>
<path fill-rule="evenodd" clip-rule="evenodd" d="M7.55938 7.31953C7.47981 7.31953 7.4035 7.28792 7.34724 7.23166C7.29098 7.1754 7.25937 7.0991 7.25937 7.01953C7.25937 6.52321 6.8557 6.11953 6.35938 6.11953C5.86305 6.11953 5.45937 6.52321 5.45937 7.01953C5.45937 7.0991 5.42777 7.1754 5.37151 7.23166C5.31525 7.28792 5.23894 7.31953 5.15937 7.31953C5.07981 7.31953 5.0035 7.28792 4.94724 7.23166C4.89098 7.1754 4.85938 7.0991 4.85938 7.01953C4.85938 6.19237 5.53221 5.51953 6.35938 5.51953C7.18653 5.51953 7.85938 6.19237 7.85938 7.01953C7.85938 7.0991 7.82777 7.1754 7.77151 7.23166C7.71525 7.28792 7.63894 7.31953 7.55938 7.31953Z" fill="black"/>
<path fill-rule="evenodd" clip-rule="evenodd" d="M12.3594 22.6193H19.5594C20.8849 22.6193 21.9594 21.5449 21.9594 20.2193V11.8193H14.7594C13.4339 11.8193 12.3594 12.8938 12.3594 14.2193V22.6193Z" fill="#FFFF50"/>
<path fill-rule="evenodd" clip-rule="evenodd" d="M20.1619 15.5391H14.1571C14.1253 15.5391 14.0948 15.5264 14.0723 15.5039C14.0498 15.4814 14.0371 15.4509 14.0371 15.4191C14.0371 15.3872 14.0498 15.3567 14.0723 15.3342C14.0948 15.3117 14.1253 15.2991 14.1571 15.2991H20.1619C20.1938 15.2991 20.2243 15.3117 20.2468 15.3342C20.2693 15.3567 20.2819 15.3872 20.2819 15.4191C20.2819 15.4509 20.2693 15.4814 20.2468 15.5039C20.2243 15.5264 20.1938 15.5391 20.1619 15.5391ZM20.1619 17.9391H14.1571C14.1253 17.9391 14.0948 17.9264 14.0723 17.9039C14.0498 17.8814 14.0371 17.8509 14.0371 17.8191C14.0371 17.7872 14.0498 17.7567 14.0723 17.7342C14.0948 17.7117 14.1253 17.6991 14.1571 17.6991H20.1619C20.1938 17.6991 20.2243 17.7117 20.2468 17.7342C20.2693 17.7567 20.2819 17.7872 20.2819 17.8191C20.2819 17.8509 20.2693 17.8814 20.2468 17.9039C20.2243 17.9264 20.1938 17.9391 20.1619 17.9391ZM20.1619 20.3391H14.1571C14.1253 20.3391 14.0948 20.3264 14.0723 20.3039C14.0498 20.2814 14.0371 20.2509 14.0371 20.2191C14.0371 20.1872 14.0498 20.1567 14.0723 20.1342C14.0948 20.1117 14.1253 20.0991 14.1571 20.0991H20.1619C20.1938 20.0991 20.2243 20.1117 20.2468 20.1342C20.2693 20.1567 20.2819 20.1872 20.2819 20.2191C20.2819 20.2509 20.2693 20.2814 20.2468 20.3039C20.2243 20.3264 20.1938 20.3391 20.1619 20.3391ZM20.1619 14.3614H14.1571C14.1253 14.3614 14.0948 14.3487 14.0723 14.3262C14.0498 14.3037 14.0371 14.2732 14.0371 14.2414C14.0371 14.2095 14.0498 14.179 14.0723 14.1565C14.0948 14.134 14.1253 14.1214 14.1571 14.1214H20.1619C20.1938 14.1214 20.2243 14.134 20.2468 14.1565C20.2693 14.179 20.2819 14.2095 20.2819 14.2414C20.2819 14.2732 20.2693 14.3037 20.2468 14.3262C20.2243 14.3487 20.1938 14.3614 20.1619 14.3614ZM20.1619 16.7391H14.1571C14.1253 16.7391 14.0948 16.7264 14.0723 16.7039C14.0498 16.6814 14.0371 16.6509 14.0371 16.6191C14.0371 16.5872 14.0498 16.5567 14.0723 16.5342C14.0948 16.5117 14.1253 16.4991 14.1571 16.4991H20.1619C20.1938 16.4991 20.2243 16.5117 20.2468 16.5342C20.2693 16.5567 20.2819 16.5872 20.2819 16.6191C20.2819 16.6509 20.2693 16.6814 20.2468 16.7039C20.2243 16.7264 20.1938 16.7391 20.1619 16.7391ZM20.1619 19.1391H14.1571C14.1253 19.1391 14.0948 19.1264 14.0723 19.1039C14.0498 19.0814 14.0371 19.0509 14.0371 19.0191C14.0371 18.9872 14.0498 18.9567 14.0723 18.9342C14.0948 18.9117 14.1253 18.8991 14.1571 18.8991H20.1619C20.1938 18.8991 20.2243 18.9117 20.2468 18.9342C20.2693 18.9567 20.2819 18.9872 20.2819 19.0191C20.2819 19.0509 20.2693 19.0814 20.2468 19.1039C20.2243 19.1264 20.1938 19.1391 20.1619 19.1391ZM21.9595 8.05237C21.9581 8.05237 21.9569 8.05165 21.9555 8.05177C21.5847 8.06437 21.4092 8.43529 21.2544 8.76253C21.0929 9.10453 20.968 9.32689 20.7633 9.32017C20.5366 9.31201 20.407 9.05593 20.2697 8.78497C20.112 8.47369 19.932 8.12065 19.5541 8.13385C19.1886 8.14633 19.0126 8.46913 18.8573 8.75389C18.6921 9.05725 18.5796 9.24169 18.3628 9.23317C18.1315 9.22477 18.0087 9.01657 17.8665 8.77561C17.7079 8.50729 17.5247 8.20561 17.1541 8.21593C16.7949 8.22829 16.6183 8.50213 16.4626 8.74393C16.2978 8.99953 16.1824 9.15529 15.9628 9.14605C15.726 9.13765 15.6037 8.96485 15.4623 8.76481C15.3034 8.54005 15.1243 8.28565 14.7549 8.29801C14.4035 8.31001 14.227 8.53441 14.0713 8.73217C13.9235 8.91985 13.8081 9.06841 13.5639 9.05905C13.532 9.05791 13.501 9.06945 13.4777 9.09114C13.4544 9.11284 13.4407 9.14291 13.4395 9.17473C13.4384 9.20656 13.4499 9.23753 13.4716 9.26085C13.4933 9.28416 13.5234 9.29791 13.5552 9.29905C13.9173 9.31117 14.1006 9.08305 14.2599 8.88061C14.4011 8.70109 14.523 8.54617 14.763 8.53801C14.9941 8.52817 15.1025 8.67181 15.2664 8.90341C15.4221 9.12349 15.5987 9.37309 15.9541 9.38593C16.3265 9.39841 16.5057 9.12013 16.6643 8.87389C16.8061 8.65381 16.9285 8.46385 17.1623 8.45581C17.3775 8.44777 17.4946 8.61781 17.6597 8.89753C17.8153 9.16117 17.9916 9.45985 18.3541 9.47305C18.7291 9.48601 18.9102 9.15865 19.068 8.86885C19.2047 8.61829 19.3337 8.38165 19.5623 8.37373C19.7775 8.36869 19.8897 8.56513 20.0556 8.89333C20.2107 9.19969 20.3865 9.54673 20.7546 9.56005L20.7749 9.56041C21.1426 9.56041 21.3171 9.19141 21.4715 8.86513C21.6082 8.57593 21.7375 8.30353 21.9595 8.29237V8.05237Z" fill="black"/>
<path fill-rule="evenodd" clip-rule="evenodd" d="M9.95898 22.6193H14.759V17.8193H9.95898V22.6193Z" fill="#3ECC5F"/>
<path fill-rule="evenodd" clip-rule="evenodd" d="M17.1594 19.6197C17.1331 19.6197 17.108 19.6242 17.0827 19.6274C17.0781 19.6094 17.0738 19.5913 17.0688 19.5733C17.1966 19.5198 17.3021 19.4237 17.3671 19.3013C17.4322 19.179 17.4529 19.0378 17.4256 18.9019C17.3984 18.766 17.325 18.6437 17.2178 18.5558C17.1107 18.4679 16.9764 18.4198 16.8378 18.4197C16.7067 18.4202 16.5795 18.4639 16.4759 18.544C16.4626 18.5305 16.4492 18.517 16.4357 18.5037C16.514 18.4006 16.5566 18.2748 16.557 18.1453C16.5569 18.007 16.5091 17.8731 16.4216 17.766C16.3341 17.659 16.2124 17.5854 16.077 17.5578C15.9415 17.5301 15.8007 17.5501 15.6782 17.6143C15.5558 17.6785 15.4593 17.7831 15.4051 17.9102C15.3873 17.9052 15.3695 17.901 15.3517 17.8964C15.3549 17.8711 15.3594 17.846 15.3594 17.8197C15.3594 17.6606 15.2962 17.508 15.1836 17.3955C15.0711 17.2829 14.9185 17.2197 14.7594 17.2197C14.6002 17.2197 14.4476 17.2829 14.3351 17.3955C14.2226 17.508 14.1594 17.6606 14.1594 17.8197C14.1594 17.846 14.1638 17.8711 14.1671 17.8964C14.1493 17.901 14.1314 17.9052 14.1137 17.9102C14.0596 17.7828 13.9632 17.678 13.8407 17.6136C13.7182 17.5492 13.5772 17.5291 13.4416 17.5568C13.306 17.5845 13.1842 17.6582 13.0967 17.7655C13.0093 17.8727 12.9616 18.0069 12.9618 18.1453C12.9618 18.2803 13.0079 18.4034 13.0831 18.5037C12.6371 18.9396 12.3594 19.5469 12.3594 20.2197C12.3594 21.5452 13.4339 22.6197 14.7594 22.6197C15.8801 22.6197 16.8186 21.8505 17.0827 20.812C17.108 20.8153 17.1331 20.8197 17.1594 20.8197C17.3185 20.8197 17.4711 20.7565 17.5836 20.644C17.6962 20.5315 17.7594 20.3789 17.7594 20.2197C17.7594 20.0606 17.6962 19.908 17.5836 19.7955C17.4711 19.6829 17.3185 19.6197 17.1594 19.6197Z" fill="#44D860"/>
<path fill-rule="evenodd" clip-rule="evenodd" d="M9.95898 15.4195H14.759V13.0195H9.95898V15.4195Z" fill="#3ECC5F"/>
<path fill-rule="evenodd" clip-rule="evenodd" d="M15.9586 14.519C16.0382 14.519 16.1145 14.4874 16.1707 14.4312C16.227 14.3749 16.2586 14.2986 16.2586 14.219C16.2586 14.1395 16.227 14.0631 16.1707 14.0069C16.1145 13.9506 16.0382 13.919 15.9586 13.919C15.9455 13.919 15.9329 13.9213 15.9203 13.9229C15.9179 13.9139 15.9159 13.9049 15.9134 13.8959C15.9772 13.8691 16.0298 13.821 16.0623 13.7598C16.0948 13.6986 16.1051 13.6281 16.0914 13.5602C16.0778 13.4923 16.0412 13.4312 15.9876 13.3872C15.9341 13.3433 15.8671 13.3192 15.7978 13.319C15.7295 13.319 15.6672 13.3427 15.6168 13.3812C15.6102 13.3743 15.6035 13.3676 15.5967 13.361C15.6344 13.311 15.6574 13.2493 15.6574 13.1817C15.6574 13.1126 15.6335 13.0456 15.5897 12.992C15.546 12.9385 15.4851 12.9017 15.4173 12.8879C15.3496 12.8741 15.2792 12.8841 15.2179 12.9162C15.1567 12.9484 15.1085 13.0007 15.0814 13.0643C14.9764 13.0346 14.8678 13.0193 14.7586 13.019C14.096 13.019 13.5586 13.5564 13.5586 14.219C13.5586 14.8817 14.096 15.419 14.7586 15.419C14.8707 15.419 14.9786 15.4025 15.0814 15.3738C15.1085 15.4374 15.1567 15.4897 15.2179 15.5218C15.2792 15.554 15.3496 15.564 15.4173 15.5502C15.4851 15.5363 15.546 15.4995 15.5897 15.446C15.6335 15.3925 15.6574 15.3254 15.6574 15.2563C15.6574 15.1887 15.6344 15.1271 15.5967 15.077C15.6035 15.0704 15.6102 15.0637 15.6168 15.0569C15.6672 15.0954 15.7295 15.119 15.7978 15.119C15.8671 15.119 15.9343 15.095 15.9879 15.051C16.0416 15.0071 16.0783 14.9459 16.0919 14.8779C16.1055 14.81 16.0952 14.7394 16.0626 14.6782C16.0301 14.6169 15.9773 14.5689 15.9134 14.5422C15.9159 14.5333 15.9179 14.5242 15.9203 14.5152C15.9329 14.5167 15.9455 14.519 15.9586 14.519Z" fill="#44D860"/>
<path fill-rule="evenodd" clip-rule="evenodd" d="M17.1594 5.66925C17.1402 5.66925 17.1198 5.66685 17.1006 5.66325C17.0813 5.65949 17.0624 5.65387 17.0442 5.64645C17.0262 5.63925 17.0094 5.62965 16.9925 5.61885C16.9769 5.60805 16.9614 5.59485 16.9469 5.58165C16.9338 5.56725 16.9206 5.55285 16.9098 5.53605C16.899 5.51925 16.8894 5.50245 16.8821 5.48445C16.8673 5.44781 16.8596 5.40873 16.8594 5.36925C16.8594 5.35005 16.8618 5.32965 16.8654 5.31045C16.869 5.29125 16.875 5.27325 16.8821 5.25405C16.8894 5.23605 16.899 5.21925 16.9098 5.20245C16.9206 5.18685 16.9338 5.17125 16.9469 5.15685C16.9614 5.14365 16.9769 5.13045 16.9925 5.11965C17.0094 5.10885 17.0262 5.09925 17.0442 5.09205C17.0621 5.08485 17.0814 5.07885 17.1006 5.07525C17.139 5.06685 17.1786 5.06685 17.2182 5.07525C17.2373 5.07885 17.2566 5.08485 17.2746 5.09205C17.2925 5.09925 17.3094 5.10885 17.3262 5.11965C17.3418 5.13045 17.3573 5.14365 17.3718 5.15685C17.385 5.17125 17.3982 5.18685 17.409 5.20245C17.4198 5.21925 17.4294 5.23605 17.4366 5.25405C17.4438 5.27325 17.4498 5.29125 17.4534 5.31045C17.4569 5.32965 17.4594 5.35005 17.4594 5.36925C17.4594 5.44845 17.4269 5.52645 17.3718 5.58165C17.3573 5.59485 17.3418 5.60805 17.3262 5.61885C17.3094 5.62965 17.2925 5.63925 17.2746 5.64645C17.238 5.66137 17.1989 5.66911 17.1594 5.66925ZM19.5594 5.51925C19.4802 5.51925 19.4034 5.48685 19.3469 5.43165C19.3335 5.41726 19.3211 5.40203 19.3098 5.38605C19.299 5.36925 19.2894 5.35245 19.2821 5.33445C19.2673 5.29781 19.2596 5.25873 19.2594 5.21925C19.2594 5.14005 19.2918 5.06325 19.3469 5.00685C19.3614 4.99365 19.3769 4.98045 19.3925 4.96965C19.4094 4.95885 19.4262 4.94925 19.4442 4.94205C19.4621 4.93485 19.4814 4.92885 19.5006 4.92525C19.539 4.91685 19.5798 4.91685 19.6182 4.92525C19.6373 4.92885 19.6566 4.93485 19.6746 4.94205C19.6925 4.94925 19.7094 4.95885 19.7262 4.96965C19.7418 4.98045 19.7573 4.99365 19.7718 5.00685C19.8269 5.06325 19.8594 5.14005 19.8594 5.21925C19.8594 5.23845 19.8569 5.25885 19.8534 5.27805C19.8498 5.29725 19.8438 5.31645 19.8366 5.33445C19.8282 5.35245 19.8198 5.36925 19.809 5.38605C19.7982 5.40165 19.785 5.41725 19.7718 5.43165C19.7573 5.44485 19.7418 5.45805 19.7262 5.46885C19.7094 5.47965 19.6925 5.48925 19.6746 5.49645C19.638 5.51137 19.5989 5.51911 19.5594 5.51925Z" fill="black"/>
</svg>
