<svg width="32" height="32" viewBox="0 0 32 32" fill="none" xmlns="http://www.w3.org/2000/svg">
<rect width="32" height="32" rx="6.4" fill="#FEF3F2"/>
<path d="M16.0019 13.6749H16.0001C14.7353 13.6749 13.6758 14.7358 13.6758 15.9996V16.5552V18.3242H15.998C17.2632 18.3242 18.3231 17.2631 18.3231 15.9982C18.3231 14.7348 17.2658 13.6749 16.0019 13.6749Z" fill="#ED3168"/>
<path d="M15.9986 21.2327H10.7652V15.9982C10.7652 13.1278 13.1303 10.7642 16.0007 10.7642H16.0025C18.8712 10.7642 21.2341 13.1271 21.2341 15.9965C21.2341 18.8681 18.8707 21.2327 15.9986 21.2327ZM16.0025 6.39844H16.0007C10.7203 6.39844 6.40039 10.7182 6.40039 15.9982V25.5984H15.9986C21.2795 25.5984 25.6004 21.2772 25.6004 15.9965C25.6004 10.7176 21.2812 6.39844 16.0025 6.39844Z" fill="#ED3168"/>
</svg>
