<svg width="16" height="16" viewBox="0 0 16 16" fill="none" xmlns="http://www.w3.org/2000/svg">
<g clip-path="url(#clip0_4508_22503)">
<path d="M6.79247 15.9507C6.91005 15.9507 7.02648 15.9275 7.13507 15.8824C7.24366 15.8373 7.34228 15.7712 7.42527 15.6879C7.50826 15.6046 7.57398 15.5057 7.61867 15.3969C7.66336 15.2882 7.68613 15.1717 7.68569 15.0541V10.5439V10.5083L5.87891 9.47949C5.87891 9.47949 5.87891 9.87102 5.87891 9.99983C5.87891 11.2642 5.87891 15.0558 5.87891 15.0558C5.87891 15.2931 5.97319 15.5207 6.14102 15.6886C6.30885 15.8564 6.53647 15.9507 6.77382 15.9507H6.79247Z" fill="#2B9ED2"/>
<path d="M1.64215 12.9846C1.70109 13.0863 1.77951 13.1755 1.87293 13.2469C1.96634 13.3184 2.07292 13.3707 2.18657 13.4009C2.30022 13.4311 2.41871 13.4387 2.53527 13.4231C2.65184 13.4075 2.76418 13.369 2.86588 13.31L7.23876 10.7676L7.68283 10.5083L5.87944 9.47949C5.87944 9.47949 5.7591 9.54898 5.72012 9.57441C4.78114 10.1236 1.96249 11.7608 1.96249 11.7608C1.75817 11.881 1.60977 12.0773 1.54974 12.3066C1.48971 12.5359 1.52293 12.7797 1.64215 12.9846Z" fill="#227ABF"/>
<path d="M14.3062 13.0062C14.3651 12.9045 14.4032 12.7921 14.4186 12.6755C14.4339 12.5589 14.4261 12.4405 14.3955 12.3269C14.365 12.2134 14.3123 12.107 14.2406 12.0139C14.1688 11.9207 14.0794 11.8427 13.9774 11.7842L10.0689 9.53504L10.0435 9.52148L8.25195 10.5622L8.7045 10.8164C9.8045 11.4401 13.0875 13.3367 13.0875 13.3367C13.19 13.395 13.3029 13.4324 13.4198 13.4469C13.5368 13.4613 13.6554 13.4526 13.769 13.4211C13.8825 13.3896 13.9887 13.336 14.0815 13.2633C14.1743 13.1907 14.2518 13.1004 14.3096 12.9978L14.3062 13.0062Z" fill="#2B9ED2"/>
<path d="M9.16551 15.9876C9.28353 15.9874 9.40033 15.9638 9.50918 15.9181C9.61802 15.8725 9.71674 15.8058 9.79964 15.7218C9.88254 15.6378 9.94797 15.5382 9.99215 15.4287C10.0363 15.3193 10.0584 15.2022 10.057 15.0842L10.0435 10.03C10.0435 9.53504 10.0435 9.52148 10.0435 9.52148L8.25195 10.5622V10.7469C8.26043 11.8333 8.2689 15.0944 8.2689 15.0944C8.26935 15.2121 8.29298 15.3286 8.33845 15.4372C8.38392 15.5458 8.45034 15.6444 8.53391 15.7274C8.61748 15.8103 8.71657 15.876 8.82553 15.9206C8.93448 15.9653 9.05116 15.988 9.1689 15.9876H9.16551Z" fill="#257ABE"/>
<path d="M15.4917 5.01704C15.3726 4.81163 15.177 4.66173 14.9477 4.60011C14.7183 4.53849 14.474 4.57017 14.2679 4.68823L10.3629 6.94924L10.3408 6.9645V9.03399C10.3408 9.03399 10.6798 8.83399 10.7866 8.76958C11.8781 8.13568 15.1645 6.24077 15.1645 6.24077C15.37 6.1217 15.5199 5.92598 15.5812 5.69656C15.6425 5.46713 15.6103 5.22275 15.4917 5.01704Z" fill="#F4B652"/>
<path d="M15.4934 10.9607C15.612 10.755 15.6442 10.5106 15.5829 10.2812C15.5215 10.0517 15.3717 9.85602 15.1662 9.73695L10.7832 7.21661C10.3561 6.97085 10.3408 6.95898 10.3408 6.95898V9.03356L10.5001 9.12509C11.4442 9.66068 14.273 11.2895 14.273 11.2895C14.3747 11.3483 14.4869 11.3865 14.6034 11.4018C14.7198 11.4171 14.8381 11.4092 14.9515 11.3787C15.0649 11.3481 15.1712 11.2955 15.2641 11.2237C15.3571 11.152 15.435 11.0626 15.4934 10.9607Z" fill="#F79420"/>
<path d="M0.434026 10.9628C0.552772 11.1681 0.74819 11.3179 0.977336 11.3793C1.20648 11.4406 1.45061 11.4085 1.65606 11.2899L5.55437 9.03566L5.57809 9.02041V6.94922L5.13064 7.21363C4.04759 7.84752 0.761145 9.73905 0.761145 9.73905C0.659239 9.79785 0.569927 9.87616 0.49832 9.96951C0.426713 10.0629 0.374216 10.1694 0.343833 10.2831C0.31345 10.3967 0.305777 10.5153 0.321253 10.6319C0.336729 10.7485 0.375051 10.861 0.434026 10.9628Z" fill="#F4B652"/>
<path d="M0.430054 5.01882C0.311546 5.22473 0.279611 5.46927 0.341263 5.69871C0.402914 5.92816 0.553112 6.12376 0.758868 6.24254L5.14022 8.76288L5.58429 9.02051V6.94932L5.4148 6.8578C4.47921 6.31542 1.65209 4.68831 1.65209 4.68831C1.55015 4.62974 1.43768 4.59182 1.32109 4.57674C1.2045 4.56165 1.08608 4.56968 0.972595 4.60037C0.85911 4.63107 0.752785 4.68382 0.659694 4.75562C0.566603 4.82741 0.48857 4.91685 0.430054 5.01882Z" fill="#F79420"/>
<path d="M9.13027 4.013e-05C8.89261 0.000936957 8.66499 0.0959753 8.49726 0.264343C8.32953 0.432711 8.23535 0.660686 8.23535 0.898345V5.40512V5.43394L10.0337 6.46953C10.0337 6.46953 10.0337 6.0814 10.0337 5.94919C10.0235 4.68648 10.0337 0.894955 10.0337 0.894955C10.0337 0.776717 10.0102 0.65965 9.96473 0.550517C9.91923 0.441385 9.85255 0.342352 9.76855 0.25914C9.68455 0.175927 9.5849 0.110186 9.47534 0.0657137C9.36578 0.0212415 9.2485 -0.00107955 9.13027 4.013e-05Z" fill="#87C54B"/>
<path d="M14.2809 2.96679C14.2221 2.86509 14.1439 2.77597 14.0506 2.70456C13.9573 2.63314 13.8509 2.58082 13.7374 2.55059C13.6239 2.52036 13.5055 2.51282 13.3891 2.5284C13.2727 2.54397 13.1605 2.58236 13.0589 2.64137L8.686 5.18374C8.2521 5.42442 8.24023 5.43459 8.24023 5.43459L10.0385 6.47018L10.208 6.37866C11.1335 5.82781 13.9572 4.19052 13.9572 4.19052C14.059 4.1316 14.1481 4.05316 14.2195 3.9597C14.2909 3.86624 14.3432 3.7596 14.3732 3.6459C14.4033 3.5322 14.4106 3.41368 14.3948 3.29714C14.379 3.1806 14.3403 3.06834 14.2809 2.96679Z" fill="#38B44A"/>
<path d="M1.63056 2.98502C1.57234 3.08745 1.53492 3.20038 1.52045 3.31732C1.50598 3.43426 1.51474 3.5529 1.54623 3.66644C1.57773 3.77998 1.63134 3.88619 1.70398 3.97896C1.77662 4.07173 1.86687 4.14924 1.96955 4.20705L5.86785 6.4579L5.89328 6.46976L7.69158 5.424C7.69158 5.424 7.3526 5.23417 7.23734 5.16976C6.13734 4.54603 2.85429 2.65112 2.85429 2.65112C2.64827 2.53307 2.40389 2.50138 2.17458 2.563C1.94526 2.62462 1.74967 2.77452 1.63056 2.97993V2.98502Z" fill="#87C54B"/>
<path d="M6.77385 6.42072e-06C6.65583 -0.000220917 6.53894 0.0229404 6.42993 0.0681521C6.32092 0.113364 6.22195 0.17973 6.13874 0.263415C6.05553 0.3471 5.98972 0.446445 5.94513 0.555711C5.90053 0.664976 5.87804 0.781995 5.87893 0.900006L5.89249 5.95594C5.89249 6.45085 5.89249 6.46441 5.89249 6.46441L7.6891 5.42374V5.24407C7.6891 4.15763 7.67215 0.894922 7.67215 0.894922C7.67215 0.777114 7.64889 0.660465 7.60371 0.551668C7.55852 0.44287 7.4923 0.344065 7.40884 0.26092C7.32538 0.177775 7.22633 0.111926 7.11736 0.0671524C7.00839 0.0223785 6.89165 -0.000439821 6.77385 6.42072e-06Z" fill="#38B44A"/>
</g>
<defs>
<clipPath id="clip0_4508_22503">
<rect width="15.4286" height="16" fill="white" transform="translate(0.286133)"/>
</clipPath>
</defs>
</svg>
