<svg width="20" height="21" viewBox="0 0 20 21" fill="none" xmlns="http://www.w3.org/2000/svg">
<path d="M11.6673 2.16602H5.00065C4.55862 2.16602 4.1347 2.34161 3.82214 2.65417C3.50958 2.96673 3.33398 3.39065 3.33398 3.83268V17.166C3.33398 17.608 3.50958 18.032 3.82214 18.3445C4.1347 18.6571 4.55862 18.8327 5.00065 18.8327H15.0007C15.4427 18.8327 15.8666 18.6571 16.1792 18.3445C16.4917 18.032 16.6673 17.608 16.6673 17.166V7.16602M11.6673 2.16602L16.6673 7.16602M11.6673 2.16602V7.16602H16.6673M13.334 11.3327H6.66732M13.334 14.666H6.66732M8.33398 7.99935H6.66732" stroke="#2179BE" stroke-width="1.66667" stroke-linecap="round" stroke-linejoin="round"/>
</svg>
