<svg width="24" height="25" viewBox="0 0 24 25" fill="none" xmlns="http://www.w3.org/2000/svg">
<path d="M17.8633 11.4413L17.8463 11.3978L16.1953 7.08913C16.1618 7.00469 16.1023 6.93305 16.0254 6.8845C15.9486 6.83678 15.8589 6.8138 15.7685 6.81865C15.6782 6.82351 15.5915 6.85597 15.5202 6.91166C15.4497 6.96895 15.3985 7.04658 15.3737 7.13398L14.2589 10.5445H9.74503L8.63029 7.13398C8.60611 7.0461 8.55484 6.96808 8.48376 6.91103C8.41245 6.85534 8.32576 6.82288 8.2354 6.81802C8.14505 6.81316 8.05538 6.83615 7.9785 6.88387C7.90184 6.93262 7.84242 7.00419 7.80861 7.0885L6.1545 11.3952L6.13808 11.4388C5.90042 12.0598 5.87108 12.7412 6.0545 13.3803C6.23791 14.0194 6.62413 14.5815 7.15492 14.982L7.16061 14.9864L7.17576 14.9971L9.69071 16.8805L10.9349 17.8222L11.6928 18.3944C11.7815 18.4617 11.8897 18.4981 12.001 18.4981C12.1123 18.4981 12.2206 18.4617 12.3092 18.3944L13.0671 17.8222L14.3113 16.8805L16.8414 14.9858L16.8478 14.9807C17.3774 14.5802 17.7627 14.0186 17.9458 13.3804C18.129 12.7422 18.1 12.0617 17.8633 11.4413Z" fill="#E24329"/>
<path d="M17.8629 11.441L17.8459 11.3975C17.0414 11.5626 16.2834 11.9033 15.6259 12.3954L12 15.137C13.2347 16.0711 14.3097 16.8827 14.3097 16.8827L16.8398 14.988L16.8461 14.9829C17.3765 14.5824 17.7624 14.0205 17.9458 13.3817C18.1292 12.7429 18.1001 12.0619 17.8629 11.441Z" fill="#FC6D26"/>
<path d="M9.69141 16.8834L10.9356 17.8251L11.6935 18.3973C11.7822 18.4646 11.8904 18.501 12.0017 18.501C12.113 18.501 12.2213 18.4646 12.3099 18.3973L13.0678 17.8251L14.312 16.8834C14.312 16.8834 13.2358 16.0693 12.0011 15.1377C10.7664 16.0693 9.69141 16.8834 9.69141 16.8834Z" fill="#FCA326"/>
<path d="M8.37387 12.3959C7.7169 11.9029 6.95901 11.5613 6.1545 11.3955L6.13808 11.4391C5.90042 12.0601 5.87108 12.7415 6.0545 13.3806C6.23791 14.0197 6.62413 14.5818 7.15492 14.9822L7.16061 14.9867L7.17576 14.9974L9.69071 16.8808C9.69071 16.8808 10.7644 16.0692 12.0004 15.1351L8.37387 12.3959Z" fill="#FC6D26"/>
</svg>
