<svg width="20" height="20" viewBox="0 0 20 20" fill="none" xmlns="http://www.w3.org/2000/svg">
<path d="M7.50033 17.5V11.3333C7.50033 10.8666 7.50033 10.6333 7.59116 10.455C7.67105 10.2982 7.79853 10.1707 7.95534 10.0908C8.1336 10 8.36695 10 8.83366 10H11.167C11.6337 10 11.8671 10 12.0453 10.0908C12.2021 10.1707 12.3296 10.2982 12.4095 10.455C12.5003 10.6333 12.5003 10.8666 12.5003 11.3333V17.5M1.66699 7.91667L9.20033 2.26667C9.48721 2.0515 9.63065 1.94392 9.78819 1.90245C9.92725 1.86585 10.0734 1.86585 10.2125 1.90245C10.37 1.94392 10.5134 2.05151 10.8003 2.26667L18.3337 7.91667M3.33366 6.66667V14.8333C3.33366 15.7668 3.33366 16.2335 3.51532 16.59C3.67511 16.9036 3.93007 17.1586 4.24368 17.3183C4.6002 17.5 5.06691 17.5 6.00033 17.5H14.0003C14.9337 17.5 15.4005 17.5 15.757 17.3183C16.0706 17.1586 16.3256 16.9036 16.4853 16.59C16.667 16.2335 16.667 15.7668 16.667 14.8333V6.66667L11.6003 2.86667C11.0266 2.43634 10.7397 2.22118 10.4246 2.13824C10.1465 2.06503 9.85417 2.06503 9.57605 2.13824C9.26098 2.22118 8.97409 2.43634 8.40033 2.86667L3.33366 6.66667Z" stroke="#475467" stroke-width="1.66667" stroke-linecap="round" stroke-linejoin="round"/>
</svg>
