<svg width="32" height="32" viewBox="0 0 32 32" fill="none" xmlns="http://www.w3.org/2000/svg">
<g clip-path="url(#clip0_2403_20408)">
<path d="M31.9821 29.503C31.9821 30.8693 30.8726 31.9766 29.5085 31.9766H2.47299C1.10681 31.9766 0 30.8693 0 29.503V2.46774C0 1.1032 1.10681 -0.00441933 2.47299 -0.00441933H29.5085C30.8726 -0.00441933 31.9821 1.1032 31.9821 2.46774V29.503Z" fill="#1F2E58"/>
<path d="M31.9821 29.503C31.9821 30.8693 30.8703 31.9766 29.5063 31.9766H2.47299C1.10681 31.9766 0 30.8693 0 29.503V2.46774C0 1.1032 1.10681 -0.00441933 2.47299 -0.00441933H29.5063C30.8703 -0.00441933 31.9821 1.1032 31.9821 2.46774V29.503Z" fill="#162554"/>
<path d="M6.89457 7.10192V12.0947C6.89457 12.4697 6.85978 12.6449 6.83038 12.7261C6.76449 12.9087 6.64201 12.9909 6.43518 12.9909C6.24047 12.9909 6.09145 12.9701 5.99072 12.9295L5.85566 12.8744L5.59961 13.8572L5.70932 13.897C5.94507 13.981 6.19309 14.0234 6.45005 14.0234C7.53635 14.0234 8.1091 13.4164 8.1091 12.2692V7.10192H6.89457Z" fill="white"/>
<path d="M12.0681 8.53238C11.7059 8.15295 11.2122 7.96147 10.6029 7.96147C10.0022 7.96147 9.51118 8.1647 9.14355 8.56672C8.77944 8.96424 8.59473 9.46995 8.59473 10.0725C8.59473 10.7265 8.80434 11.2514 9.21486 11.6345C9.57134 11.9677 10.0361 12.1367 10.5948 12.1367C11.2009 12.1367 11.6951 11.9371 12.0609 11.5414C12.4268 11.1484 12.6115 10.6435 12.6115 10.0409C12.6115 9.41764 12.4295 8.91003 12.0681 8.53238ZM11.181 10.8512C11.0455 11.0482 10.8589 11.1439 10.611 11.1439C10.3662 11.1439 10.1787 11.0518 10.0387 10.863C9.89159 10.6643 9.81827 10.3897 9.81827 10.0491C9.81827 9.71217 9.88785 9.44206 10.0252 9.24512C10.1531 9.05992 10.3378 8.96954 10.5866 8.96954C10.8373 8.96954 11.0256 9.05992 11.1635 9.24782C11.307 9.44477 11.3802 9.71304 11.3802 10.0491C11.3802 10.386 11.3125 10.6562 11.181 10.8512Z" fill="white"/>
<path d="M17.7229 8.04096C17.2795 8.04096 16.8413 8.20715 16.4172 8.53693C16.2013 8.20715 15.858 8.04096 15.3965 8.04096C15.004 8.04096 14.6015 8.17829 14.2004 8.45284L14.1255 8.12863H13.0947V12.1367H14.3007V9.4203C14.5772 9.21176 14.8387 9.10508 15.0789 9.10508C15.1913 9.10508 15.4917 9.10508 15.4917 9.74823V12.1367H16.6986V9.4203C16.9723 9.21176 17.2334 9.10508 17.4701 9.10508C17.6652 9.10508 17.8875 9.17646 17.8875 9.73118V12.1367H19.0871V9.46194C19.0871 8.53238 18.6156 8.04096 17.7229 8.04096Z" fill="white"/>
<path d="M11.8112 13.8786C11.4499 13.5687 10.9599 13.4106 10.3542 13.4106H8.88574V18.8984H10.1012V17.0728H10.2363C10.9481 17.0728 11.5023 16.8605 11.8854 16.444C12.2029 16.1035 12.3637 15.6916 12.3637 15.2227C12.3637 14.6455 12.1771 14.1947 11.8112 13.8786ZM10.2756 16.0637H10.1012V14.4766H10.2603C10.5475 14.4766 10.7688 14.5488 10.9188 14.6897C11.0687 14.8334 11.141 15.015 11.141 15.2453C11.141 15.8027 10.8655 16.0637 10.2756 16.0637Z" fill="white"/>
<path d="M15.2171 13.388H14.3453L12.2148 18.8984H13.4338L13.9185 17.5886H15.6077L16.1244 18.8984H17.423L15.2171 13.388ZM14.3069 16.5479L14.6949 15.5037C14.7242 15.4269 14.7496 15.3537 14.7726 15.286C14.7965 15.3573 14.8237 15.4359 14.8521 15.5182L15.2135 16.5479H14.3069Z" fill="white"/>
<path d="M20.4431 13.4085L19.5812 15.0002C19.4791 15.1881 19.3835 15.376 19.2939 15.5576C19.2154 15.4094 19.115 15.2215 18.9877 14.992L18.126 13.4085H16.7754L18.6535 16.7219V18.8945H19.8685V16.7365L21.7466 13.4085H20.4431Z" fill="white"/>
<path d="M20.0858 8.0209V10.8519H22.7181V19.9685C22.7181 21.0994 22.1924 21.8773 21.6865 22.2602C21.1084 22.6966 20.5609 22.9179 19.1788 22.9179C17.8346 22.9179 17.2194 22.6578 16.7091 22.2693C16.2226 21.8962 15.7691 21.2268 15.5916 20.4057C15.5645 20.2747 15.4968 19.9947 15.4968 19.9947H12.6562L12.6589 20.057C12.6838 20.6081 12.7546 21.0968 12.8731 21.5393C13.159 22.6297 13.7226 23.4355 14.5546 24.1546C15.7628 25.1989 16.8554 25.6641 18.8915 25.6641C21.13 25.6641 22.4272 25.1898 23.6901 24.1239C24.9241 23.085 25.5493 21.8773 25.5493 19.9513V8.0209H20.0858Z" fill="white"/>
</g>
<defs>
<clipPath id="clip0_2403_20408">
<rect width="32" height="32" rx="6.4" fill="white"/>
</clipPath>
</defs>
</svg>
