<svg width="173" height="26" viewBox="0 0 173 26" fill="none" xmlns="http://www.w3.org/2000/svg">
<g clip-path="url(#clip0_2123_665)">
<path d="M10.3767 25.1235C10.5642 25.1235 10.7498 25.087 10.923 25.0159C11.0962 24.9449 11.2535 24.8408 11.3858 24.7096C11.5182 24.5784 11.623 24.4227 11.6942 24.2514C11.7655 24.0801 11.8018 23.8966 11.8011 23.7114V16.6079V16.5518L8.91976 14.9314C8.91976 14.9314 8.91976 15.5481 8.91976 15.751C8.91976 17.7424 8.91976 23.7141 8.91976 23.7141C8.91976 24.0879 9.07012 24.4464 9.33777 24.7107C9.60541 24.975 9.96842 25.1235 10.3469 25.1235H10.3767Z" fill="#2B9ED2"/>
<path d="M2.16237 20.4519C2.25636 20.6122 2.38142 20.7526 2.53039 20.8651C2.67937 20.9777 2.84933 21.0601 3.03058 21.1077C3.21182 21.1553 3.40079 21.1671 3.58667 21.1426C3.77256 21.118 3.95171 21.0575 4.11391 20.9645L11.0875 16.9602L11.7957 16.5518L8.91977 14.9314C8.91977 14.9314 8.72786 15.0409 8.66569 15.0809C7.16825 15.9458 2.67323 18.5246 2.67323 18.5246C2.34739 18.7139 2.11072 19.0229 2.01499 19.3841C1.91925 19.7453 1.97224 20.1292 2.16237 20.4519Z" fill="#227ABF"/>
<path d="M22.3589 20.4866C22.4527 20.3263 22.5137 20.1493 22.5381 19.9657C22.5625 19.7821 22.5501 19.5956 22.5013 19.4168C22.4526 19.2379 22.3686 19.0704 22.2542 18.9237C22.1398 18.777 21.9971 18.6541 21.8345 18.5619L15.6015 15.0195L15.5609 14.9982L12.7039 16.6372L13.4256 17.0377C15.1798 18.02 20.4154 21.0072 20.4154 21.0072C20.5788 21.0989 20.7589 21.1578 20.9454 21.1806C21.1319 21.2034 21.3211 21.1896 21.5021 21.14C21.6832 21.0904 21.8526 21.006 22.0005 20.8916C22.1485 20.7771 22.2721 20.635 22.3643 20.4733L22.3589 20.4866Z" fill="#2B9ED2"/>
<path d="M14.1608 25.1823C14.349 25.1819 14.5353 25.1448 14.7089 25.0729C14.8824 25.001 15.0399 24.8959 15.1721 24.7636C15.3043 24.6313 15.4086 24.4745 15.4791 24.3021C15.5495 24.1297 15.5847 23.9453 15.5826 23.7594L15.5609 15.799C15.5609 15.0195 15.5609 14.9982 15.5609 14.9982L12.7039 16.6372V16.9282C12.7174 18.6394 12.7309 23.7755 12.7309 23.7755C12.7316 23.9609 12.7693 24.1444 12.8418 24.3155C12.9144 24.4865 13.0203 24.6418 13.1536 24.7724C13.2868 24.9031 13.4449 25.0065 13.6186 25.0768C13.7924 25.1471 13.9784 25.183 14.1662 25.1823H14.1608Z" fill="#257ABE"/>
<path d="M24.2482 7.90268C24.0583 7.57915 23.7464 7.34305 23.3807 7.24601C23.015 7.14896 22.6253 7.19886 22.2967 7.38479L16.0691 10.9459L16.034 10.9699V14.2294C16.034 14.2294 16.5745 13.9144 16.7448 13.8129C18.4855 12.8145 23.7266 9.83005 23.7266 9.83005C24.0542 9.64251 24.2932 9.33425 24.391 8.97291C24.4888 8.61157 24.4375 8.22667 24.2482 7.90268Z" fill="#F4B652"/>
<path d="M24.2509 17.2646C24.4402 16.9406 24.4915 16.5557 24.3937 16.1943C24.2959 15.833 24.0569 15.5247 23.7293 15.3372L16.7394 11.3677C16.0583 10.9806 16.034 10.9619 16.034 10.9619V14.2294L16.288 14.3735C17.7936 15.2171 22.3048 17.7825 22.3048 17.7825C22.4669 17.8751 22.646 17.9352 22.8316 17.9593C23.0173 17.9834 23.206 17.9711 23.3869 17.923C23.5677 17.8748 23.7371 17.7919 23.8854 17.6789C24.0337 17.5659 24.1579 17.4251 24.2509 17.2646Z" fill="#F79420"/>
<path d="M0.235154 17.2672C0.424523 17.5906 0.736165 17.8266 1.10159 17.9232C1.46702 18.0198 1.85634 17.9692 2.18399 17.7824L8.40079 14.232L8.43863 14.208V10.9459L7.72505 11.3623C5.99786 12.3607 0.756825 15.3398 0.756825 15.3398C0.594311 15.4325 0.451881 15.5558 0.337686 15.7028C0.223491 15.8499 0.139772 16.0177 0.0913181 16.1967C0.0428647 16.3757 0.0306283 16.5624 0.0553093 16.7461C0.0799902 16.9298 0.141104 17.1069 0.235154 17.2672Z" fill="#F4B652"/>
<path d="M0.229746 7.90532C0.0407554 8.22964 -0.0101731 8.61478 0.0881456 8.97616C0.186464 9.33753 0.425991 9.6456 0.75412 9.83269L7.74127 13.8022L8.44944 14.208V10.9459L8.17915 10.8017C6.68711 9.94748 2.17858 7.38477 2.17858 7.38477C2.01602 7.29252 1.83665 7.23281 1.65072 7.20904C1.46479 7.18528 1.27594 7.19793 1.09496 7.24627C0.913981 7.29461 0.744419 7.3777 0.595962 7.49078C0.447505 7.60386 0.323063 7.74472 0.229746 7.90532Z" fill="#F79420"/>
<path d="M14.104 0.000978732C13.725 0.00239123 13.362 0.152077 13.0946 0.417256C12.8271 0.682435 12.6769 1.0415 12.6769 1.41581V8.51399V8.55937L15.5447 10.1904C15.5447 10.1904 15.5447 9.57911 15.5447 9.37089C15.5285 7.38212 15.5447 1.41047 15.5447 1.41047C15.5447 1.22424 15.5074 1.03986 15.4348 0.86798C15.3622 0.696097 15.2559 0.54012 15.1219 0.40906C14.988 0.278001 14.8291 0.174458 14.6543 0.104415C14.4796 0.0343709 14.2926 -0.000784767 14.104 0.000978732Z" fill="#87C54B"/>
<path d="M22.3183 4.6726C22.2246 4.51241 22.0998 4.37206 21.9511 4.25957C21.8023 4.14709 21.6326 4.06468 21.4516 4.01707C21.2706 3.96946 21.0818 3.95759 20.8961 3.98212C20.7104 4.00666 20.5315 4.06712 20.3695 4.16005L13.3959 8.16429C12.7039 8.54336 12.685 8.55938 12.685 8.55938L15.5528 10.1904L15.8231 10.0463C17.2989 9.1787 21.8021 6.59997 21.8021 6.59997C21.9644 6.50717 22.1066 6.38363 22.2204 6.23643C22.3343 6.08923 22.4176 5.92127 22.4656 5.74219C22.5135 5.56311 22.5252 5.37644 22.5 5.19289C22.4747 5.00934 22.413 4.83253 22.3183 4.6726Z" fill="#38B44A"/>
<path d="M2.14345 4.70194C2.05059 4.86328 1.99091 5.04115 1.96784 5.22532C1.94476 5.4095 1.95873 5.59636 2.00896 5.77519C2.05919 5.95402 2.14468 6.12129 2.26053 6.2674C2.37637 6.41352 2.5203 6.5356 2.68404 6.62665L8.90084 10.1717L8.94139 10.1904L11.8092 8.54334C11.8092 8.54334 11.2686 8.24436 11.0848 8.14292C9.33061 7.16054 4.09498 4.17605 4.09498 4.17605C3.76643 3.99012 3.3767 3.94022 3.01101 4.03727C2.64531 4.13431 2.33339 4.37041 2.14345 4.69393V4.70194Z" fill="#87C54B"/>
<path d="M10.3469 0.000986675C10.1587 0.000628618 9.97231 0.0371077 9.79846 0.108316C9.62462 0.179525 9.46678 0.284051 9.33408 0.415855C9.20138 0.547659 9.09644 0.704128 9.02532 0.876221C8.95421 1.04831 8.91833 1.23262 8.91976 1.41849L8.94138 9.38158C8.94138 10.1611 8.94138 10.1824 8.94138 10.1824L11.8065 8.54336V8.26039C11.8065 6.54925 11.7795 1.41048 11.7795 1.41048C11.7795 1.22493 11.7424 1.04121 11.6703 0.869853C11.5983 0.698497 11.4927 0.542878 11.3596 0.411925C11.2265 0.280971 11.0685 0.17726 10.8947 0.106742C10.721 0.0362227 10.5348 0.000283845 10.3469 0.000986675Z" fill="#38B44A"/>
<path d="M30.3137 5.8525C30.3137 5.3569 30.513 4.88161 30.8679 4.53117C31.2227 4.18073 31.704 3.98386 32.2058 3.98386H37.3414C41.4499 3.98386 43.9312 6.3864 43.9312 9.85674V9.90479C43.9312 13.8396 40.8336 15.8791 36.9738 15.8791H34.1005V19.2614C34.1005 19.757 33.9012 20.2322 33.5464 20.5827C33.1915 20.9331 32.7103 21.13 32.2085 21.13C31.7067 21.13 31.2254 20.9331 30.8706 20.5827C30.5157 20.2322 30.3164 19.757 30.3164 19.2614L30.3137 5.8525ZM37.1008 12.5476C38.9929 12.5476 40.1011 11.4317 40.1011 9.97419V9.92614C40.1011 8.2497 38.9199 7.35275 37.0278 7.35275H34.1005V12.5476H37.1008Z" fill="#227ABF"/>
<path d="M44.7231 17.2432V17.1952C44.7231 14.3548 46.9098 13.0441 50.0345 13.0441C51.1319 13.0336 52.2226 13.2143 53.2564 13.578V13.3484C53.2564 11.8161 52.2968 10.9672 50.4264 10.9672C49.5506 10.9614 48.6791 11.0883 47.8424 11.3436C47.6692 11.4064 47.4862 11.4389 47.3018 11.4397C47.0994 11.4433 46.8984 11.407 46.7105 11.3328C46.5225 11.2587 46.3515 11.1484 46.2072 11.0082C46.063 10.868 45.9486 10.7008 45.8706 10.5163C45.7926 10.3319 45.7526 10.134 45.753 9.93415C45.7526 9.62209 45.849 9.3174 46.0292 9.0611C46.2095 8.8048 46.4649 8.6092 46.7612 8.50063C48.1076 8.01589 49.5343 7.78499 50.967 7.81991C53.0077 7.81991 54.4808 8.35381 55.4161 9.27745C56.3999 10.2491 56.8432 11.68 56.8432 13.4312V19.3575C56.8432 19.5923 56.796 19.8247 56.7043 20.0414C56.6126 20.258 56.4782 20.4545 56.309 20.6194C56.1397 20.7843 55.939 20.9144 55.7184 21.002C55.4979 21.0897 55.2619 21.1332 55.0241 21.13C53.9429 21.13 53.2294 20.3772 53.2294 19.6004V19.5764C52.3185 20.5721 51.067 21.2288 49.2452 21.2288C46.7612 21.2288 44.7231 19.8193 44.7231 17.2432ZM53.305 16.3943V15.751C52.5532 15.4243 51.7397 15.2587 50.9183 15.2651C49.3209 15.2651 48.337 15.8978 48.337 17.0644V17.1124C48.337 18.1081 49.1722 18.6901 50.3777 18.6901C52.1238 18.6874 53.305 17.7291 53.305 16.3943Z" fill="#227ABF"/>
<path d="M59.9165 24.603C59.3759 24.4081 58.738 23.973 58.738 23.0734C58.7333 22.8784 58.768 22.6845 58.8399 22.5029C58.9118 22.3213 59.0195 22.1556 59.1569 22.0155C59.2942 21.8754 59.4584 21.7637 59.6398 21.6868C59.8213 21.61 60.0164 21.5695 60.2138 21.5678C60.4225 21.564 60.6302 21.5966 60.8274 21.6639C61.0794 21.756 61.3453 21.8056 61.6139 21.8107C62.2789 21.8107 62.5978 21.6879 62.9411 21.0339L63.0654 20.7429L58.565 10.444C58.4537 10.1733 58.3871 9.88668 58.3677 9.59512C58.3638 9.35684 58.4092 9.12028 58.5013 8.89998C58.5933 8.67967 58.7299 8.48028 58.9028 8.31403C59.0757 8.14778 59.2812 8.01819 59.5066 7.93322C59.7321 7.84825 59.9727 7.80969 60.2138 7.81991C61.1463 7.81991 61.6869 8.32978 62.0086 9.20537L64.871 16.7841L67.6253 9.2294C67.9199 8.45258 68.4605 7.81991 69.4201 7.81991C69.6497 7.81566 69.8779 7.8564 70.0914 7.93976C70.305 8.02312 70.4997 8.14745 70.6643 8.30556C70.8289 8.46368 70.9602 8.65245 71.0505 8.86096C71.1408 9.06947 71.1884 9.29359 71.1905 9.52037C71.1809 9.81929 71.1235 10.1148 71.0202 10.396L66.4252 21.3008C65.3197 23.9463 64.2115 24.942 61.9734 24.942C61.2724 24.9566 60.5747 24.8416 59.9165 24.603Z" fill="#227ABF"/>
<path d="M73.4421 5.75639C73.4421 5.26079 73.6414 4.7855 73.9963 4.43506C74.3511 4.08462 74.8324 3.88775 75.3342 3.88775H75.7288C76.637 3.88775 77.1776 4.32554 77.6938 4.98224L84.9918 14.4536V5.68431C84.9823 5.43599 85.0235 5.18832 85.1132 4.95612C85.2028 4.72392 85.3389 4.51196 85.5134 4.33294C85.6879 4.15391 85.8972 4.0115 86.1288 3.91423C86.3603 3.81695 86.6093 3.76682 86.8609 3.76682C87.1126 3.76682 87.3616 3.81695 87.5931 3.91423C87.8247 4.0115 88.0339 4.15391 88.2084 4.33294C88.3829 4.51196 88.5191 4.72392 88.6087 4.95612C88.6983 5.18832 88.7396 5.43599 88.73 5.68431V19.2213C88.73 19.7169 88.5307 20.1922 88.1759 20.5426C87.821 20.8931 87.3398 21.0899 86.838 21.0899H86.7163C85.8054 21.0899 85.2648 20.6522 84.7486 19.9981L77.1803 10.1851V19.2854C77.1803 19.7746 76.9835 20.2438 76.6332 20.5897C76.283 20.9356 75.8079 21.13 75.3125 21.13C74.8172 21.13 74.3421 20.9356 73.9918 20.5897C73.6416 20.2438 73.4448 19.7746 73.4448 19.2854L73.4421 5.75639Z" fill="#38B44A"/>
<path d="M98.1174 21.2768C94.1576 21.2768 91.2303 18.5326 91.2303 14.5497V14.499C91.2303 10.783 93.9116 7.72379 97.7471 7.72379C102.15 7.72379 104.094 11.2929 104.094 13.9891C104.105 14.2193 104.068 14.4493 103.985 14.6649C103.903 14.8805 103.776 15.0769 103.613 15.2422C103.451 15.4074 103.255 15.5378 103.039 15.6253C102.823 15.7128 102.592 15.7556 102.358 15.7509H94.9549C95.3252 17.4274 96.5037 18.303 98.1769 18.303C99.1364 18.3103 100.071 18.0023 100.834 17.4274C101.092 17.2275 101.414 17.1244 101.742 17.1364C101.936 17.1334 102.128 17.1693 102.307 17.2418C102.486 17.3143 102.648 17.4219 102.784 17.5582C102.92 17.6945 103.026 17.8565 103.096 18.0346C103.167 18.2126 103.2 18.4029 103.194 18.594C103.198 18.801 103.157 19.0066 103.074 19.1968C102.991 19.387 102.868 19.5574 102.712 19.6965C101.429 20.7622 99.7935 21.3247 98.1174 21.2768ZM100.55 13.4552C100.318 11.8028 99.3337 10.6789 97.7579 10.6789C96.1821 10.6789 95.2009 11.7707 94.9063 13.4472L100.55 13.4552Z" fill="#38B44A"/>
<path d="M106.978 17.2939V11.1248H106.856C106.641 11.1335 106.426 11.0991 106.224 11.0237C106.022 10.9483 105.838 10.8334 105.682 10.6859C105.527 10.5385 105.403 10.3614 105.318 10.1655C105.234 9.96955 105.19 9.75875 105.19 9.54575C105.19 9.33275 105.234 9.12195 105.318 8.92601C105.403 8.73007 105.527 8.55304 105.682 8.40555C105.838 8.25807 106.022 8.14317 106.224 8.06776C106.426 7.99235 106.641 7.95799 106.856 7.96675H106.978V6.33836C106.996 5.86093 107.201 5.4091 107.55 5.07775C107.898 4.74639 108.363 4.56128 108.847 4.56128C109.331 4.56128 109.796 4.74639 110.144 5.07775C110.493 5.4091 110.698 5.86093 110.716 6.33836V7.96675H112.365C112.777 7.98351 113.167 8.15719 113.453 8.45148C113.739 8.74577 113.899 9.13786 113.899 9.54575C113.899 9.95364 113.739 10.3457 113.453 10.64C113.167 10.9343 112.777 11.108 112.365 11.1248H110.716V16.6853C110.716 17.5369 111.086 17.948 111.921 17.948C112.043 17.948 112.289 17.9239 112.365 17.9239C112.775 17.9267 113.167 18.0888 113.457 18.3751C113.747 18.6613 113.911 19.0488 113.914 19.4536C113.911 19.7526 113.819 20.0441 113.648 20.2909C113.477 20.5377 113.235 20.7286 112.954 20.839C112.274 21.0978 111.549 21.2212 110.821 21.2021C108.527 21.2021 106.978 20.3051 106.978 17.2939Z" fill="#38B44A"/>
</g>
<path d="M139.359 12.1953C139.359 13.4688 139.199 14.5938 138.879 15.5703C138.559 16.5391 138.086 17.3516 137.461 18.0078C136.836 18.6641 136.062 19.1602 135.141 19.4961C134.227 19.832 133.133 20 131.859 20H128.871C128.73 20 128.586 19.9492 128.437 19.8477C128.289 19.7383 128.215 19.543 128.215 19.2617V5.57422C128.215 5.29297 128.289 5.10156 128.437 5C128.586 4.89063 128.73 4.83594 128.871 4.83594H132.059C133.348 4.83594 134.434 5.01172 135.316 5.36328C136.207 5.71485 136.949 6.21485 137.543 6.86328C138.145 7.50391 138.598 8.27735 138.902 9.1836C139.207 10.082 139.359 11.0859 139.359 12.1953ZM137.824 12.2656C137.824 11.3828 137.711 10.5664 137.484 9.81641C137.266 9.0586 136.922 8.40625 136.453 7.85938C135.992 7.3125 135.406 6.88672 134.695 6.58203C133.984 6.26953 133.078 6.11328 131.977 6.11328H129.645V18.7227H131.988C133.02 18.7227 133.891 18.5977 134.602 18.3477C135.32 18.0898 135.918 17.6953 136.395 17.1641C136.871 16.6328 137.227 15.9648 137.461 15.1602C137.703 14.3477 137.824 13.3828 137.824 12.2656ZM151.922 14.3516C151.922 15.1953 151.812 15.9727 151.594 16.6836C151.375 17.3945 151.047 18.0117 150.609 18.5352C150.18 19.0586 149.641 19.4688 148.992 19.7656C148.344 20.0547 147.59 20.1992 146.73 20.1992C145.902 20.1992 145.176 20.0703 144.551 19.8125C143.934 19.5469 143.414 19.1719 142.992 18.6875C142.578 18.1953 142.266 17.6016 142.055 16.9063C141.852 16.2109 141.75 15.4258 141.75 14.5508C141.75 13.707 141.855 12.9297 142.066 12.2188C142.285 11.5078 142.609 10.8945 143.039 10.3789C143.477 9.85547 144.02 9.44922 144.668 9.16016C145.316 8.8711 146.074 8.72656 146.941 8.72656C147.77 8.72656 148.492 8.85547 149.109 9.11328C149.734 9.3711 150.254 9.7461 150.668 10.2383C151.082 10.7227 151.395 11.3125 151.605 12.0078C151.816 12.7031 151.922 13.4844 151.922 14.3516ZM150.445 14.4805C150.445 13.8789 150.387 13.3047 150.27 12.7578C150.152 12.2109 149.957 11.7305 149.684 11.3164C149.41 10.8945 149.043 10.5625 148.582 10.3203C148.121 10.0703 147.547 9.94531 146.859 9.94531C146.227 9.94531 145.68 10.0586 145.219 10.2852C144.758 10.5117 144.379 10.8281 144.082 11.2344C143.793 11.6328 143.578 12.1055 143.437 12.6523C143.297 13.1992 143.227 13.7891 143.227 14.4219C143.227 15.0313 143.285 15.6133 143.402 16.168C143.52 16.7148 143.715 17.1953 143.988 17.6094C144.262 18.0234 144.629 18.3516 145.09 18.5938C145.551 18.8359 146.125 18.957 146.812 18.957C147.445 18.957 147.992 18.8438 148.453 18.6172C148.914 18.3906 149.289 18.0781 149.578 17.6797C149.875 17.2813 150.094 16.8086 150.234 16.2617C150.375 15.7148 150.445 15.1211 150.445 14.4805ZM162.457 18.1953C162.457 18.2891 162.453 18.375 162.445 18.4531C162.437 18.5234 162.426 18.5859 162.41 18.6406C162.395 18.6953 162.371 18.7461 162.34 18.793C162.316 18.832 162.254 18.9023 162.152 19.0039C162.051 19.1055 161.879 19.2344 161.637 19.3906C161.402 19.5469 161.137 19.6836 160.84 19.8008C160.543 19.918 160.223 20.0117 159.879 20.082C159.535 20.1602 159.18 20.1992 158.812 20.1992C158.078 20.1992 157.426 20.0781 156.855 19.8359C156.293 19.5859 155.82 19.2227 155.437 18.7461C155.055 18.2617 154.762 17.6719 154.559 16.9766C154.363 16.2734 154.266 15.4648 154.266 14.5508C154.266 13.5195 154.387 12.6367 154.629 11.9023C154.879 11.168 155.219 10.5664 155.648 10.0977C156.078 9.62891 156.578 9.28516 157.148 9.06641C157.727 8.83985 158.344 8.72656 159 8.72656C159.352 8.72656 159.687 8.76172 160.008 8.83203C160.328 8.89453 160.621 8.98047 160.887 9.08985C161.16 9.19922 161.402 9.32422 161.613 9.46485C161.824 9.60547 161.977 9.72656 162.07 9.82813C162.172 9.92188 162.238 9.9961 162.27 10.0508C162.309 10.0977 162.336 10.1523 162.352 10.2148C162.375 10.2773 162.391 10.3477 162.398 10.4258C162.406 10.4961 162.41 10.582 162.41 10.6836C162.41 10.9102 162.375 11.0703 162.305 11.1641C162.242 11.25 162.172 11.293 162.094 11.293C161.984 11.293 161.848 11.2227 161.684 11.082C161.527 10.9414 161.324 10.7891 161.074 10.625C160.824 10.4531 160.52 10.2969 160.16 10.1563C159.809 10.0156 159.387 9.94531 158.895 9.94531C157.879 9.94531 157.094 10.3359 156.539 11.1172C155.992 11.8984 155.719 13.0273 155.719 14.5039C155.719 15.2461 155.793 15.8984 155.941 16.4609C156.09 17.0156 156.301 17.4805 156.574 17.8555C156.855 18.2227 157.195 18.5 157.594 18.6875C157.992 18.8672 158.441 18.957 158.941 18.957C159.41 18.957 159.824 18.8828 160.184 18.7344C160.543 18.5859 160.855 18.4219 161.121 18.2422C161.387 18.0625 161.605 17.8984 161.777 17.75C161.957 17.6016 162.09 17.5273 162.176 17.5273C162.223 17.5273 162.262 17.543 162.293 17.5742C162.332 17.5977 162.363 17.6406 162.387 17.7031C162.41 17.7578 162.426 17.8281 162.434 17.9141C162.449 17.9922 162.457 18.0859 162.457 18.1953ZM171.504 16.9414C171.504 17.4492 171.41 17.9063 171.223 18.3125C171.035 18.7109 170.766 19.0508 170.414 19.332C170.07 19.6133 169.656 19.8281 169.172 19.9766C168.687 20.125 168.152 20.1992 167.566 20.1992C167.199 20.1992 166.852 20.168 166.523 20.1055C166.195 20.0508 165.898 19.9805 165.633 19.8945C165.367 19.8008 165.141 19.7031 164.953 19.6016C164.773 19.5 164.641 19.4102 164.555 19.332C164.469 19.2539 164.406 19.1563 164.367 19.0391C164.328 18.9219 164.309 18.7656 164.309 18.5703C164.309 18.4688 164.316 18.3789 164.332 18.3008C164.348 18.2227 164.367 18.1563 164.391 18.1016C164.414 18.0469 164.445 18.0078 164.484 17.9844C164.523 17.9531 164.566 17.9375 164.613 17.9375C164.699 17.9375 164.824 17.9922 164.988 18.1016C165.152 18.2109 165.355 18.332 165.598 18.4648C165.848 18.5898 166.141 18.707 166.477 18.8164C166.82 18.9258 167.215 18.9805 167.66 18.9805C168.02 18.9805 168.348 18.9414 168.645 18.8633C168.941 18.7852 169.199 18.668 169.418 18.5117C169.637 18.3555 169.805 18.1563 169.922 17.9141C170.047 17.6641 170.109 17.375 170.109 17.0469C170.109 16.7188 170.031 16.4414 169.875 16.2148C169.719 15.9883 169.512 15.793 169.254 15.6289C169.004 15.457 168.715 15.3086 168.387 15.1836C168.066 15.0508 167.734 14.918 167.391 14.7852C167.055 14.6445 166.723 14.4922 166.395 14.3281C166.074 14.1641 165.785 13.9648 165.527 13.7305C165.277 13.4961 165.074 13.2148 164.918 12.8867C164.762 12.5586 164.684 12.1641 164.684 11.7031C164.684 11.3359 164.754 10.9766 164.895 10.625C165.035 10.2656 165.25 9.94531 165.539 9.66406C165.836 9.38281 166.211 9.15625 166.664 8.98438C167.125 8.8125 167.668 8.72656 168.293 8.72656C168.559 8.72656 168.82 8.75 169.078 8.79688C169.344 8.83594 169.582 8.89063 169.793 8.96094C170.012 9.03125 170.199 9.10938 170.355 9.19531C170.512 9.27344 170.629 9.34375 170.707 9.40625C170.793 9.46875 170.848 9.52344 170.871 9.57031C170.902 9.60938 170.922 9.65235 170.93 9.69922C170.945 9.7461 170.957 9.80469 170.965 9.875C170.973 9.9375 170.977 10.0156 170.977 10.1094C170.977 10.2031 170.969 10.2891 170.953 10.3672C170.945 10.4375 170.93 10.5 170.906 10.5547C170.883 10.6094 170.852 10.6523 170.812 10.6836C170.781 10.707 170.742 10.7188 170.695 10.7188C170.633 10.7188 170.539 10.6758 170.414 10.5898C170.289 10.5039 170.125 10.4102 169.922 10.3086C169.719 10.207 169.477 10.1133 169.195 10.0273C168.914 9.94141 168.59 9.89844 168.223 9.89844C167.855 9.89844 167.531 9.94141 167.25 10.0273C166.977 10.1133 166.75 10.2344 166.57 10.3906C166.391 10.5469 166.254 10.7305 166.16 10.9414C166.074 11.1523 166.031 11.3828 166.031 11.6328C166.031 11.9766 166.109 12.2656 166.266 12.5C166.422 12.7344 166.629 12.9375 166.887 13.1094C167.145 13.2813 167.437 13.4336 167.766 13.5664C168.094 13.6992 168.426 13.832 168.762 13.9648C169.105 14.0977 169.441 14.2461 169.77 14.4102C170.098 14.5664 170.391 14.7578 170.648 14.9844C170.906 15.2109 171.113 15.4844 171.27 15.8047C171.426 16.1172 171.504 16.4961 171.504 16.9414Z" fill="#667085"/>
<defs>
<clipPath id="clip0_2123_665">
<rect width="114" height="25.2" fill="white" transform="translate(0 0.000976562)"/>
</clipPath>
</defs>
</svg>
