<svg width="246" height="32" viewBox="0 0 246 32" fill="none" xmlns="http://www.w3.org/2000/svg">
<g clip-path="url(#clip0_734_53918)">
<path d="M11.3868 29.914C11.5926 29.914 11.7963 29.8734 11.9864 29.7944C12.1764 29.7155 12.349 29.5998 12.4942 29.454C12.6394 29.3083 12.7545 29.1353 12.8327 28.9449C12.9109 28.7546 12.9507 28.5507 12.95 28.3449V20.4521V20.3898L9.78809 18.5894C9.78809 18.5894 9.78809 19.2746 9.78809 19.5C9.78809 21.7127 9.78809 28.3479 9.78809 28.3479C9.78809 28.7632 9.95308 29.1616 10.2468 29.4553C10.5405 29.749 10.9388 29.914 11.3542 29.914H11.3868Z" fill="#2B9ED2"/>
<path d="M2.37291 24.7233C2.47606 24.9014 2.61329 25.0574 2.77677 25.1824C2.94024 25.3074 3.12676 25.399 3.32564 25.4519C3.52453 25.5048 3.73189 25.518 3.93588 25.4907C4.13986 25.4634 4.33646 25.3961 4.51444 25.2928L12.167 20.8436L12.9441 20.3898L9.78817 18.5894C9.78817 18.5894 9.57757 18.711 9.50935 18.7555C7.86613 19.7165 2.93351 22.5818 2.93351 22.5818C2.57595 22.7921 2.31624 23.1355 2.21118 23.5368C2.10613 23.9381 2.16428 24.3647 2.37291 24.7233Z" fill="#227ABF"/>
<path d="M24.5356 24.7619C24.6386 24.5838 24.7054 24.3871 24.7323 24.1831C24.7591 23.9791 24.7454 23.7718 24.6919 23.5731C24.6385 23.3744 24.5463 23.1882 24.4207 23.0253C24.2952 22.8623 24.1386 22.7257 23.9602 22.6233L17.1203 18.6873L17.0758 18.6636L13.9407 20.4847L14.7326 20.9297C16.6576 22.0212 22.403 25.3403 22.403 25.3403C22.5822 25.4421 22.7799 25.5076 22.9845 25.533C23.1891 25.5583 23.3968 25.5429 23.5955 25.4878C23.7942 25.4327 23.98 25.3389 24.1424 25.2118C24.3047 25.0846 24.4404 24.9267 24.5415 24.747L24.5356 24.7619Z" fill="#2B9ED2"/>
<path d="M15.5394 29.9792C15.7459 29.9789 15.9503 29.9376 16.1408 29.8577C16.3313 29.7779 16.5041 29.6611 16.6491 29.5141C16.7942 29.3671 16.9087 29.1928 16.986 29.0013C17.0633 28.8098 17.1019 28.6048 17.0996 28.3983L17.0758 19.5534C17.0758 18.6873 17.0758 18.6636 17.0758 18.6636L13.9407 20.4847V20.8081C13.9555 22.7093 13.9703 28.4161 13.9703 28.4161C13.9711 28.6222 14.0125 28.826 14.092 29.0161C14.1716 29.2062 14.2878 29.3787 14.4341 29.5239C14.5803 29.669 14.7538 29.7839 14.9444 29.8621C15.1351 29.9402 15.3393 29.98 15.5453 29.9792H15.5394Z" fill="#257ABE"/>
<path d="M26.609 10.7797C26.4005 10.4202 26.0582 10.1579 25.6569 10.05C25.2556 9.9422 24.828 9.99764 24.4674 10.2042L17.6335 14.161L17.595 14.1877V17.8093C17.595 17.8093 18.1882 17.4593 18.3751 17.3466C20.2852 16.2373 26.0365 12.9212 26.0365 12.9212C26.3961 12.7128 26.6583 12.3703 26.7656 11.9688C26.8729 11.5673 26.8166 11.1397 26.609 10.7797Z" fill="#F4B652"/>
<path d="M26.6119 21.1818C26.8196 20.8218 26.8759 20.3941 26.7686 19.9926C26.6612 19.5911 26.399 19.2486 26.0395 19.0403L18.3691 14.6297C17.6217 14.1996 17.595 14.1788 17.595 14.1788V17.8093L17.8738 17.9695C19.5259 18.9068 24.4763 21.7572 24.4763 21.7572C24.6542 21.8602 24.8507 21.9269 25.0544 21.9537C25.2582 21.9805 25.4653 21.9668 25.6637 21.9133C25.8621 21.8598 26.0481 21.7677 26.2108 21.6421C26.3735 21.5166 26.5098 21.3602 26.6119 21.1818Z" fill="#F79420"/>
<path d="M0.258081 21.1847C0.465886 21.5441 0.807868 21.8063 1.20887 21.9136C1.60988 22.021 2.0371 21.9647 2.39664 21.7572L9.21867 17.8123L9.2602 17.7856V14.161L8.47715 14.6237C6.58181 15.733 0.830539 19.0432 0.830539 19.0432C0.652203 19.1461 0.495908 19.2832 0.370595 19.4465C0.245283 19.6099 0.153413 19.7964 0.100242 19.9953C0.0470719 20.1942 0.0336443 20.4016 0.060728 20.6057C0.0878118 20.8098 0.154875 21.0066 0.258081 21.1847Z" fill="#F4B652"/>
<path d="M0.252107 10.7826C0.0447177 11.143 -0.011169 11.5709 0.0967214 11.9724C0.204612 12.374 0.467458 12.7163 0.827531 12.9241L8.4949 17.3347L9.27202 17.7856V14.161L8.97541 14.0008C7.33812 13.0517 2.39067 10.2042 2.39067 10.2042C2.21228 10.1017 2.01545 10.0354 1.81142 10.009C1.60739 9.98258 1.40015 9.99664 1.20155 10.0503C1.00295 10.1041 0.816885 10.1964 0.653976 10.322C0.491066 10.4477 0.354509 10.6042 0.252107 10.7826Z" fill="#F79420"/>
<path d="M15.4771 2C15.0612 2.00157 14.6629 2.16789 14.3693 2.46253C14.0758 2.75718 13.911 3.15613 13.911 3.57204V11.4589V11.5093L17.058 13.3216C17.058 13.3216 17.058 12.6424 17.058 12.411C17.0402 10.2013 17.058 3.5661 17.058 3.5661C17.0581 3.35919 17.0171 3.15432 16.9374 2.96334C16.8578 2.77236 16.7411 2.59905 16.5941 2.45343C16.4471 2.3078 16.2727 2.19276 16.081 2.11493C15.8893 2.0371 15.684 1.99804 15.4771 2Z" fill="#87C54B"/>
<path d="M24.4911 7.19068C24.3882 7.0127 24.2513 6.85675 24.0881 6.73177C23.9249 6.60678 23.7386 6.51522 23.54 6.46232C23.3413 6.40942 23.1342 6.39623 22.9304 6.42349C22.7267 6.45075 22.5303 6.51793 22.3525 6.62119L14.7 11.0703C13.9407 11.4915 13.9199 11.5093 13.9199 11.5093L17.067 13.3216L17.3636 13.1614C18.9831 12.1975 23.9246 9.33221 23.9246 9.33221C24.1027 9.2291 24.2587 9.09183 24.3837 8.92827C24.5086 8.76472 24.6 8.5781 24.6527 8.37912C24.7053 8.18015 24.7181 7.97273 24.6904 7.76879C24.6627 7.56485 24.595 7.36838 24.4911 7.19068Z" fill="#38B44A"/>
<path d="M2.35215 7.22331C2.25025 7.40257 2.18476 7.6002 2.15944 7.80484C2.13411 8.00948 2.14945 8.2171 2.20457 8.4158C2.25969 8.6145 2.3535 8.80035 2.48062 8.9627C2.60775 9.12506 2.76568 9.2607 2.94537 9.36186L9.7674 13.3008L9.81189 13.3216L12.9589 11.4915C12.9589 11.4915 12.3657 11.1593 12.164 11.0466C10.239 9.95508 4.49367 6.63898 4.49367 6.63898C4.13313 6.43239 3.70546 6.37695 3.30417 6.48478C2.90287 6.59261 2.56058 6.85493 2.35215 7.21441V7.22331Z" fill="#87C54B"/>
<path d="M11.3542 2C11.1477 1.99961 10.9432 2.04014 10.7524 2.11926C10.5616 2.19838 10.3884 2.31452 10.2428 2.46097C10.0972 2.60742 9.98201 2.78127 9.90397 2.97249C9.82594 3.1637 9.78656 3.36848 9.78813 3.575L9.81186 12.4229C9.81186 13.289 9.81186 13.3127 9.81186 13.3127L12.9559 11.4915V11.1771C12.9559 9.27585 12.9263 3.56611 12.9263 3.56611C12.9263 3.35994 12.8856 3.15581 12.8065 2.96541C12.7274 2.77501 12.6115 2.60211 12.4655 2.4566C12.3194 2.3111 12.1461 2.19586 11.9554 2.11751C11.7647 2.03915 11.5604 1.99922 11.3542 2Z" fill="#38B44A"/>
<path d="M33.2649 8.5017C33.2649 7.95104 33.4836 7.42293 33.873 7.03356C34.2624 6.64418 34.7905 6.42543 35.3412 6.42543H40.9768C45.4852 6.42543 48.2081 9.09492 48.2081 12.9509V13.0042C48.2081 17.3763 44.809 19.6424 40.5734 19.6424H37.4204V23.4004C37.4204 23.9511 37.2017 24.4792 36.8123 24.8686C36.4229 25.258 35.8948 25.4767 35.3441 25.4767C34.7935 25.4767 34.2654 25.258 33.876 24.8686C33.4866 24.4792 33.2679 23.9511 33.2679 23.4004L33.2649 8.5017ZM40.7128 15.9407C42.789 15.9407 44.0051 14.7009 44.0051 13.0814V13.028C44.0051 11.1653 42.709 10.1687 40.6327 10.1687H37.4204V15.9407H40.7128Z" fill="#227ABF"/>
<path d="M49.0771 21.158V21.1047C49.0771 17.9487 51.4767 16.4924 54.9055 16.4924C56.1098 16.4806 57.3067 16.6815 58.4411 17.0856V16.8305C58.4411 15.128 57.3882 14.1847 55.3356 14.1847C54.3746 14.1782 53.4183 14.3193 52.5 14.603C52.31 14.6727 52.1092 14.7088 51.9068 14.7097C51.6848 14.7137 51.4642 14.6733 51.258 14.591C51.0517 14.5086 50.864 14.386 50.7057 14.2302C50.5475 14.0744 50.4219 13.8887 50.3363 13.6838C50.2507 13.4788 50.2068 13.2589 50.2072 13.0369C50.2068 12.6901 50.3126 12.3516 50.5104 12.0668C50.7082 11.782 50.9885 11.5647 51.3136 11.4441C52.7911 10.9055 54.3567 10.6489 55.9288 10.6877C58.1682 10.6877 59.7848 11.2809 60.811 12.3072C61.8907 13.3869 62.3771 14.9767 62.3771 16.9225V23.5072C62.3772 23.7681 62.3254 24.0264 62.2247 24.2671C62.1241 24.5078 61.9766 24.7261 61.7909 24.9094C61.6052 25.0926 61.3849 25.2371 61.1429 25.3345C60.9008 25.4319 60.6418 25.4802 60.381 25.4767C59.1945 25.4767 58.4115 24.6403 58.4115 23.7771V23.7504C57.4119 24.8568 56.0386 25.5864 54.0394 25.5864C51.3136 25.5864 49.0771 24.0203 49.0771 21.158ZM58.4945 20.2148V19.5C57.6695 19.137 56.7768 18.953 55.8755 18.9602C54.1225 18.9602 53.0428 19.6631 53.0428 20.9593V21.0127C53.0428 22.1191 53.9594 22.7657 55.2822 22.7657C57.1983 22.7627 58.4945 21.6979 58.4945 20.2148Z" fill="#227ABF"/>
<path d="M65.7496 29.3356C65.1564 29.1191 64.4564 28.6356 64.4564 27.636C64.4513 27.4194 64.4893 27.204 64.5682 27.0022C64.6471 26.8004 64.7654 26.6163 64.9161 26.4606C65.0668 26.305 65.2469 26.1808 65.446 26.0954C65.6451 26.01 65.8593 25.965 66.0759 25.9631C66.3049 25.959 66.5328 25.9951 66.7492 26.0699C67.0258 26.1722 67.3175 26.2274 67.6123 26.2331C68.342 26.2331 68.692 26.0966 69.0687 25.3699L69.2051 25.0466L64.2666 13.6034C64.1445 13.3026 64.0714 12.9841 64.0501 12.6602C64.0458 12.3954 64.0957 12.1326 64.1966 11.8878C64.2976 11.643 64.4476 11.4215 64.6373 11.2367C64.827 11.052 65.0525 10.908 65.2999 10.8136C65.5473 10.7192 65.8114 10.6764 66.0759 10.6877C67.0992 10.6877 67.6924 11.2542 68.0454 12.2271L71.1865 20.6479L74.209 12.2538C74.5323 11.3907 75.1255 10.6877 76.1784 10.6877C76.4304 10.683 76.6808 10.7283 76.9151 10.8209C77.1495 10.9135 77.3632 11.0516 77.5438 11.2273C77.7245 11.403 77.8685 11.6128 77.9676 11.8444C78.0667 12.0761 78.1189 12.3251 78.1212 12.5771C78.1107 12.9092 78.0476 13.2376 77.9344 13.55L72.892 25.6665C71.6789 28.6059 70.4628 29.7123 68.0068 29.7123C67.2375 29.7285 66.472 29.6008 65.7496 29.3356Z" fill="#227ABF"/>
<path d="M80.5919 8.39492C80.5919 7.84426 80.8107 7.31615 81.2 6.92677C81.5894 6.5374 82.1175 6.31865 82.6682 6.31865H83.1012C84.0979 6.31865 84.6911 6.80509 85.2576 7.53475L93.2661 18.0585V8.31483C93.2556 8.03892 93.3009 7.76373 93.3992 7.50573C93.4976 7.24773 93.6469 7.01222 93.8384 6.8133C94.0299 6.61439 94.2596 6.45615 94.5137 6.34807C94.7677 6.23999 95.041 6.18428 95.3171 6.18428C95.5932 6.18428 95.8665 6.23999 96.1206 6.34807C96.3747 6.45615 96.6043 6.61439 96.7958 6.8133C96.9873 7.01222 97.1367 7.24773 97.2351 7.50573C97.3334 7.76373 97.3787 8.03892 97.3682 8.31483V23.3559C97.3682 23.9066 97.1494 24.4347 96.7601 24.8241C96.3707 25.2135 95.8426 25.4322 95.2919 25.4322H95.1585C94.1589 25.4322 93.5657 24.9458 92.9991 24.2191L84.694 13.3157V23.4271C84.694 23.9707 84.4781 24.492 84.0937 24.8764C83.7094 25.2608 83.188 25.4767 82.6445 25.4767C82.1009 25.4767 81.5796 25.2608 81.1952 24.8764C80.8108 24.492 80.5949 23.9707 80.5949 23.4271L80.5919 8.39492Z" fill="#38B44A"/>
<path d="M107.669 25.6398C103.324 25.6398 100.112 22.5907 100.112 18.1653V18.1089C100.112 13.9801 103.054 10.5809 107.263 10.5809C112.095 10.5809 114.227 14.5466 114.227 17.5424C114.24 17.7982 114.199 18.0538 114.109 18.2933C114.018 18.5328 113.879 18.7511 113.7 18.9347C113.522 19.1182 113.307 19.2632 113.071 19.3604C112.834 19.4577 112.579 19.5052 112.323 19.5H104.199C104.605 21.3627 105.899 22.3356 107.735 22.3356C108.788 22.3437 109.813 22.0015 110.65 21.3627C110.934 21.1406 111.287 21.0261 111.647 21.0394C111.859 21.0361 112.07 21.0759 112.267 21.1565C112.463 21.237 112.641 21.3566 112.79 21.508C112.939 21.6595 113.056 21.8395 113.133 22.0374C113.21 22.2352 113.247 22.4466 113.24 22.6589C113.245 22.889 113.2 23.1174 113.109 23.3287C113.018 23.5401 112.882 23.7294 112.712 23.8839C111.303 25.0681 109.509 25.693 107.669 25.6398ZM110.339 16.9492C110.084 15.1131 109.004 13.8644 107.275 13.8644C105.546 13.8644 104.469 15.0775 104.146 16.9403L110.339 16.9492Z" fill="#38B44A"/>
<path d="M117.392 21.2144V14.3598H117.259C117.023 14.3695 116.787 14.3313 116.565 14.2475C116.344 14.1637 116.142 14.0361 115.971 13.8722C115.8 13.7083 115.664 13.5116 115.572 13.2939C115.479 13.0762 115.431 12.842 115.431 12.6053C115.431 12.3686 115.479 12.1344 115.572 11.9167C115.664 11.699 115.8 11.5023 115.971 11.3384C116.142 11.1745 116.344 11.0469 116.565 10.9631C116.787 10.8793 117.023 10.8411 117.259 10.8509H117.392V9.04153C117.413 8.51105 117.638 8.00903 118.02 7.64085C118.402 7.27268 118.913 7.067 119.444 7.067C119.974 7.067 120.485 7.27268 120.867 7.64085C121.249 8.00903 121.474 8.51105 121.495 9.04153V10.8509H123.304C123.757 10.8695 124.185 11.0625 124.499 11.3894C124.812 11.7164 124.988 12.1521 124.988 12.6053C124.988 13.0585 124.812 13.4942 124.499 13.8212C124.185 14.1481 123.757 14.3411 123.304 14.3598H121.495V20.5381C121.495 21.4843 121.901 21.9411 122.817 21.9411C122.951 21.9411 123.221 21.9144 123.304 21.9144C123.754 21.9175 124.184 22.0976 124.502 22.4156C124.82 22.7337 125 23.1642 125.003 23.614C125.001 23.9462 124.9 24.2702 124.712 24.5444C124.524 24.8186 124.259 25.0307 123.951 25.1534C123.205 25.4409 122.409 25.578 121.61 25.5568C119.092 25.5568 117.392 24.5602 117.392 21.2144Z" fill="#38B44A"/>
</g>
<path d="M146.916 16.8701C146.916 18.1966 146.749 19.3685 146.416 20.3857C146.082 21.3949 145.59 22.2412 144.938 22.9248C144.287 23.6084 143.482 24.1252 142.521 24.4751C141.569 24.825 140.43 25 139.104 25H135.991C135.844 25 135.694 24.9471 135.539 24.8413C135.384 24.7274 135.307 24.5239 135.307 24.231V9.97314C135.307 9.68018 135.384 9.48079 135.539 9.375C135.694 9.26107 135.844 9.2041 135.991 9.2041H139.311C140.654 9.2041 141.785 9.38721 142.705 9.75342C143.632 10.1196 144.405 10.6405 145.024 11.3159C145.651 11.9832 146.123 12.7889 146.44 13.7329C146.757 14.6688 146.916 15.7145 146.916 16.8701ZM145.317 16.9434C145.317 16.0238 145.199 15.1733 144.963 14.3921C144.735 13.6027 144.377 12.9232 143.889 12.3535C143.409 11.7839 142.798 11.3403 142.058 11.0229C141.317 10.6974 140.373 10.5347 139.226 10.5347H136.796V23.6694H139.238C140.312 23.6694 141.219 23.5392 141.96 23.2788C142.709 23.0103 143.331 22.5993 143.828 22.0459C144.324 21.4925 144.694 20.7967 144.938 19.9585C145.191 19.1121 145.317 18.1071 145.317 16.9434ZM160.002 19.1162C160.002 19.9951 159.888 20.8049 159.66 21.5454C159.432 22.286 159.09 22.9289 158.635 23.4741C158.187 24.0194 157.626 24.4466 156.95 24.7559C156.275 25.057 155.489 25.2075 154.594 25.2075C153.732 25.2075 152.975 25.0732 152.324 24.8047C151.681 24.528 151.14 24.1374 150.7 23.6328C150.269 23.1201 149.943 22.5016 149.724 21.7773C149.512 21.0531 149.406 20.2352 149.406 19.3237C149.406 18.4448 149.516 17.6351 149.736 16.8945C149.964 16.154 150.301 15.5151 150.749 14.978C151.205 14.4328 151.77 14.0096 152.446 13.7085C153.121 13.4074 153.911 13.2568 154.814 13.2568C155.677 13.2568 156.429 13.3911 157.072 13.6597C157.723 13.9282 158.264 14.3188 158.696 14.8315C159.127 15.3361 159.453 15.9505 159.672 16.6748C159.892 17.3991 160.002 18.2129 160.002 19.1162ZM158.464 19.2505C158.464 18.6239 158.403 18.0257 158.281 17.4561C158.159 16.8864 157.955 16.3859 157.67 15.9546C157.386 15.5151 157.003 15.1693 156.523 14.917C156.043 14.6566 155.445 14.5264 154.729 14.5264C154.069 14.5264 153.5 14.6444 153.02 14.8804C152.539 15.1164 152.145 15.446 151.835 15.8691C151.534 16.2842 151.311 16.7765 151.164 17.3462C151.018 17.9159 150.944 18.5303 150.944 19.1895C150.944 19.8242 151.005 20.4305 151.127 21.0083C151.25 21.578 151.453 22.0785 151.738 22.5098C152.023 22.9411 152.405 23.2829 152.885 23.5352C153.365 23.7874 153.964 23.9136 154.68 23.9136C155.339 23.9136 155.909 23.7956 156.389 23.5596C156.869 23.3236 157.259 22.998 157.561 22.583C157.87 22.168 158.098 21.6756 158.244 21.106C158.391 20.5363 158.464 19.9178 158.464 19.2505ZM170.976 23.1201C170.976 23.2178 170.972 23.3073 170.964 23.3887C170.956 23.4619 170.944 23.527 170.927 23.584C170.911 23.641 170.887 23.6938 170.854 23.7427C170.83 23.7834 170.764 23.8566 170.659 23.9624C170.553 24.0682 170.374 24.2025 170.122 24.3652C169.877 24.528 169.601 24.6704 169.292 24.7925C168.982 24.9146 168.649 25.0122 168.291 25.0854C167.932 25.1668 167.562 25.2075 167.18 25.2075C166.415 25.2075 165.735 25.0814 165.141 24.8291C164.555 24.5687 164.063 24.1903 163.664 23.6938C163.265 23.1893 162.96 22.5749 162.749 21.8506C162.545 21.1182 162.443 20.2759 162.443 19.3237C162.443 18.2495 162.569 17.3299 162.822 16.5649C163.082 15.8 163.436 15.1733 163.884 14.6851C164.331 14.1968 164.852 13.8387 165.446 13.6108C166.049 13.3748 166.691 13.2568 167.375 13.2568C167.741 13.2568 168.091 13.2935 168.425 13.3667C168.758 13.4318 169.064 13.5213 169.34 13.6353C169.625 13.7492 169.877 13.8794 170.097 14.0259C170.317 14.1724 170.476 14.2985 170.573 14.4043C170.679 14.502 170.748 14.5793 170.781 14.6362C170.821 14.6851 170.85 14.742 170.866 14.8071C170.891 14.8722 170.907 14.9455 170.915 15.0269C170.923 15.1001 170.927 15.1896 170.927 15.2954C170.927 15.5314 170.891 15.6982 170.817 15.7959C170.752 15.8854 170.679 15.9302 170.598 15.9302C170.484 15.9302 170.341 15.8569 170.17 15.7104C170.008 15.564 169.796 15.4053 169.536 15.2344C169.275 15.0553 168.958 14.8926 168.583 14.7461C168.217 14.5996 167.778 14.5264 167.265 14.5264C166.207 14.5264 165.389 14.9333 164.812 15.7471C164.242 16.5609 163.957 17.7368 163.957 19.2749C163.957 20.048 164.034 20.7275 164.189 21.3135C164.344 21.8913 164.563 22.3755 164.848 22.7661C165.141 23.1486 165.495 23.4375 165.91 23.6328C166.325 23.82 166.793 23.9136 167.314 23.9136C167.802 23.9136 168.234 23.8363 168.608 23.6816C168.982 23.527 169.308 23.3561 169.584 23.1689C169.861 22.9818 170.089 22.8109 170.268 22.6562C170.455 22.5016 170.594 22.4243 170.683 22.4243C170.732 22.4243 170.773 22.4406 170.805 22.4731C170.846 22.4976 170.878 22.5423 170.903 22.6074C170.927 22.6644 170.944 22.7376 170.952 22.8271C170.968 22.9085 170.976 23.0062 170.976 23.1201ZM180.4 21.814C180.4 22.3429 180.302 22.819 180.107 23.2422C179.912 23.6572 179.631 24.0112 179.265 24.3042C178.907 24.5972 178.475 24.821 177.971 24.9756C177.466 25.1302 176.909 25.2075 176.298 25.2075C175.916 25.2075 175.554 25.175 175.212 25.1099C174.87 25.0529 174.561 24.9797 174.284 24.8901C174.007 24.7925 173.771 24.6908 173.576 24.585C173.389 24.4792 173.251 24.3856 173.161 24.3042C173.072 24.2228 173.007 24.1211 172.966 23.999C172.925 23.877 172.905 23.7142 172.905 23.5107C172.905 23.4049 172.913 23.3114 172.929 23.23C172.945 23.1486 172.966 23.0794 172.99 23.0225C173.015 22.9655 173.047 22.9248 173.088 22.9004C173.129 22.8678 173.173 22.8516 173.222 22.8516C173.312 22.8516 173.442 22.9085 173.613 23.0225C173.784 23.1364 173.995 23.2625 174.248 23.4009C174.508 23.5311 174.813 23.6532 175.163 23.7671C175.521 23.881 175.932 23.938 176.396 23.938C176.77 23.938 177.112 23.8973 177.421 23.8159C177.731 23.7345 177.999 23.6125 178.227 23.4497C178.455 23.2869 178.63 23.0794 178.752 22.8271C178.882 22.5667 178.947 22.2656 178.947 21.9238C178.947 21.582 178.866 21.2931 178.703 21.0571C178.54 20.8211 178.325 20.6177 178.056 20.4468C177.796 20.2677 177.495 20.1131 177.153 19.9829C176.819 19.8446 176.473 19.7062 176.115 19.5679C175.765 19.4214 175.419 19.2627 175.078 19.0918C174.744 18.9209 174.443 18.7134 174.174 18.4692C173.914 18.2251 173.702 17.9321 173.54 17.5903C173.377 17.2485 173.295 16.8376 173.295 16.3574C173.295 15.9749 173.369 15.6006 173.515 15.2344C173.662 14.86 173.885 14.5264 174.187 14.2334C174.496 13.9404 174.886 13.7044 175.358 13.5254C175.839 13.3464 176.404 13.2568 177.055 13.2568C177.332 13.2568 177.604 13.2812 177.873 13.3301C178.15 13.3708 178.398 13.4277 178.618 13.501C178.846 13.5742 179.041 13.6556 179.204 13.7451C179.366 13.8265 179.488 13.8997 179.57 13.9648C179.659 14.0299 179.716 14.0869 179.741 14.1357C179.773 14.1764 179.794 14.2212 179.802 14.27C179.818 14.3188 179.83 14.3799 179.838 14.4531C179.847 14.5182 179.851 14.5996 179.851 14.6973C179.851 14.7949 179.842 14.8844 179.826 14.9658C179.818 15.0391 179.802 15.1042 179.777 15.1611C179.753 15.2181 179.72 15.2629 179.68 15.2954C179.647 15.3198 179.606 15.332 179.558 15.332C179.493 15.332 179.395 15.2873 179.265 15.1978C179.134 15.1082 178.964 15.0106 178.752 14.9048C178.54 14.799 178.288 14.7013 177.995 14.6118C177.702 14.5223 177.364 14.4775 176.982 14.4775C176.599 14.4775 176.262 14.5223 175.969 14.6118C175.684 14.7013 175.448 14.8275 175.261 14.9902C175.074 15.153 174.931 15.3442 174.833 15.564C174.744 15.7837 174.699 16.0238 174.699 16.2842C174.699 16.6423 174.781 16.9434 174.943 17.1875C175.106 17.4316 175.322 17.6432 175.59 17.8223C175.859 18.0013 176.164 18.16 176.506 18.2983C176.848 18.4367 177.194 18.575 177.543 18.7134C177.902 18.8517 178.251 19.0063 178.593 19.1772C178.935 19.34 179.24 19.5394 179.509 19.7754C179.777 20.0114 179.993 20.2962 180.156 20.6299C180.319 20.9554 180.4 21.3501 180.4 21.814Z" fill="#475467"/>
<defs>
<clipPath id="clip0_734_53918">
<rect width="125.098" height="28" fill="white" transform="translate(0 2)"/>
</clipPath>
</defs>
</svg>
