<svg width="174" height="32" viewBox="0 0 174 32" fill="none" xmlns="http://www.w3.org/2000/svg">
<g clip-path="url(#clip0_1_4)">
<mask id="mask0_1_4" style="mask-type:luminance" maskUnits="userSpaceOnUse" x="0" y="2" width="126" height="28">
<path d="M125.098 2H0V30H125.098V2Z" fill="white"/>
</mask>
<g mask="url(#mask0_1_4)">
<path d="M11.3878 29.9144C11.5936 29.9144 11.7973 29.8738 11.9874 29.7949C12.1774 29.7159 12.35 29.6003 12.4952 29.4545C12.6404 29.3087 12.7554 29.1357 12.8336 28.9454C12.9119 28.755 12.9517 28.5511 12.9509 28.3454V20.4526V20.3903L9.78906 18.5898C9.78906 18.5898 9.78906 19.275 9.78906 19.5004C9.78906 21.7131 9.78906 28.3483 9.78906 28.3483C9.78906 28.7637 9.95406 29.162 10.2478 29.4557C10.5415 29.7494 10.9398 29.9144 11.3552 29.9144H11.3878Z" fill="#2B9ED2"/>
<path d="M2.37304 24.7237C2.47618 24.9018 2.61341 25.0578 2.77689 25.1829C2.94036 25.3079 3.12688 25.3994 3.32577 25.4523C3.52465 25.5052 3.73202 25.5184 3.936 25.4911C4.13998 25.4638 4.33658 25.3966 4.51456 25.2932L12.1671 20.8441L12.9442 20.3903L9.78829 18.5898C9.78829 18.5898 9.5777 18.7115 9.50948 18.7559C7.86626 19.717 2.93363 22.5822 2.93363 22.5822C2.57607 22.7926 2.31636 23.1359 2.21131 23.5373C2.10625 23.9386 2.1644 24.3652 2.37304 24.7237Z" fill="#227ABF"/>
<path d="M24.5363 24.7614C24.6393 24.5833 24.7062 24.3866 24.733 24.1826C24.7598 23.9786 24.7461 23.7713 24.6927 23.5726C24.6392 23.3739 24.547 23.1878 24.4215 23.0248C24.2959 22.8618 24.1394 22.7252 23.9609 22.6228L17.1211 18.6868L17.0766 18.6631L13.9414 20.4843L14.7334 20.9292C16.6584 22.0207 22.4037 25.3398 22.4037 25.3398C22.583 25.4417 22.7806 25.5072 22.9852 25.5325C23.1899 25.5578 23.3975 25.5425 23.5962 25.4874C23.7949 25.4322 23.9807 25.3384 24.1431 25.2113C24.3054 25.0842 24.4411 24.9262 24.5423 24.7466L24.5363 24.7614Z" fill="#2B9ED2"/>
<path d="M15.5401 29.9788C15.7467 29.9784 15.9511 29.9371 16.1415 29.8572C16.332 29.7774 16.5048 29.6606 16.6499 29.5136C16.7949 29.3666 16.9094 29.1923 16.9867 29.0008C17.0641 28.8093 17.1027 28.6043 17.1003 28.3978L17.0766 19.5529C17.0766 18.6868 17.0766 18.6631 17.0766 18.6631L13.9414 20.4843V20.8076C13.9562 22.7088 13.9711 28.4156 13.9711 28.4156C13.9718 28.6217 14.0132 28.8256 14.0928 29.0156C14.1723 29.2057 14.2886 29.3782 14.4348 29.5234C14.5811 29.6685 14.7545 29.7835 14.9452 29.8616C15.1358 29.9397 15.34 29.9795 15.5461 29.9788H15.5401Z" fill="#257ABE"/>
<path d="M26.6077 10.7796C26.3993 10.4201 26.057 10.1578 25.6557 10.0499C25.2544 9.94212 24.8267 9.99756 24.4662 10.2042L17.6323 14.1609L17.5938 14.1876V17.8092C17.5938 17.8092 18.187 17.4592 18.3738 17.3465C20.284 16.2372 26.0353 12.9211 26.0353 12.9211C26.3948 12.7127 26.6571 12.3702 26.7644 11.9687C26.8717 11.5672 26.8154 11.1396 26.6077 10.7796Z" fill="#F4B652"/>
<path d="M26.6107 21.1817C26.8183 20.8217 26.8747 20.394 26.7673 19.9925C26.66 19.591 26.3978 19.2485 26.0382 19.0402L18.3679 14.6296C17.6204 14.1995 17.5938 14.1787 17.5938 14.1787V17.8092L17.8726 17.9694C19.5247 18.9067 24.4751 21.7571 24.4751 21.7571C24.653 21.86 24.8495 21.9268 25.0532 21.9536C25.257 21.9804 25.464 21.9667 25.6625 21.9132C25.8609 21.8597 26.0469 21.7676 26.2096 21.642C26.3723 21.5165 26.5086 21.3601 26.6107 21.1817Z" fill="#F79420"/>
<path d="M0.257837 21.1849C0.465642 21.5442 0.807624 21.8064 1.20863 21.9137C1.60963 22.0211 2.03685 21.9648 2.3964 21.7573L9.21843 17.8124L9.25996 17.7857V14.1611L8.4769 14.6238C6.58157 15.7332 0.830294 19.0433 0.830294 19.0433C0.651959 19.1462 0.495664 19.2833 0.370351 19.4467C0.245039 19.61 0.153169 19.7965 0.0999983 19.9954C0.0468278 20.1943 0.0334002 20.4017 0.0604839 20.6058C0.0875676 20.8099 0.154631 21.0067 0.257837 21.1849Z" fill="#F4B652"/>
<path d="M0.252107 10.7827C0.0447177 11.143 -0.011169 11.571 0.0967214 11.9725C0.204612 12.374 0.467458 12.7163 0.827531 12.9242L8.4949 17.3348L9.27202 17.7856V14.1611L8.97541 14.0009C7.33812 13.0517 2.39067 10.2043 2.39067 10.2043C2.21228 10.1018 2.01545 10.0354 1.81142 10.009C1.60739 9.98264 1.40015 9.9967 1.20155 10.0504C1.00295 10.1041 0.816885 10.1964 0.653976 10.3221C0.491066 10.4477 0.354509 10.6042 0.252107 10.7827Z" fill="#F79420"/>
<path d="M15.4763 2.00007C15.0604 2.00164 14.662 2.16796 14.3685 2.4626C14.075 2.75724 13.9102 3.1562 13.9102 3.5721V11.459V11.5094L17.0572 13.3217C17.0572 13.3217 17.0572 12.6424 17.0572 12.4111C17.0394 10.2013 17.0572 3.56617 17.0572 3.56617C17.0572 3.35925 17.0162 3.15439 16.9366 2.96341C16.8569 2.77242 16.7403 2.59912 16.5933 2.45349C16.4463 2.30787 16.2719 2.19283 16.0801 2.115C15.8884 2.03717 15.6832 1.99811 15.4763 2.00007Z" fill="#87C54B"/>
<path d="M24.4892 7.19116C24.3863 7.01317 24.2493 6.85722 24.0861 6.73224C23.9229 6.60726 23.7367 6.5157 23.538 6.4628C23.3394 6.4099 23.1322 6.3967 22.9285 6.42396C22.7247 6.45122 22.5283 6.51841 22.3506 6.62166L14.6981 11.0708C13.9387 11.492 13.918 11.5098 13.918 11.5098L17.065 13.3221L17.3616 13.1619C18.9811 12.1979 23.9226 9.33268 23.9226 9.33268C24.1008 9.22957 24.2568 9.0923 24.3817 8.92875C24.5067 8.76519 24.5981 8.57857 24.6507 8.37959C24.7034 8.18062 24.7162 7.97321 24.6885 7.76926C24.6607 7.56532 24.593 7.36886 24.4892 7.19116Z" fill="#38B44A"/>
<path d="M2.353 7.22305C2.25111 7.40231 2.18562 7.59994 2.16029 7.80458C2.13497 8.00922 2.15031 8.21684 2.20542 8.41554C2.26054 8.61424 2.35435 8.80009 2.48148 8.96245C2.6086 9.1248 2.76654 9.26044 2.94622 9.3616L9.76825 13.3006L9.81275 13.3213L12.9598 11.4913C12.9598 11.4913 12.3666 11.1591 12.1649 11.0464C10.2399 9.95483 4.49453 6.63872 4.49453 6.63872C4.13399 6.43213 3.70632 6.37669 3.30502 6.48452C2.90372 6.59235 2.56144 6.85467 2.353 7.21415V7.22305Z" fill="#87C54B"/>
<path d="M11.3552 2.00001C11.1487 1.99961 10.9441 2.04015 10.7534 2.11927C10.5626 2.19839 10.3894 2.31453 10.2438 2.46098C10.0981 2.60742 9.98299 2.78128 9.90495 2.97249C9.82691 3.16371 9.78754 3.36849 9.78911 3.57501L9.81284 12.4229C9.81284 13.289 9.81284 13.3127 9.81284 13.3127L12.9569 11.4915V11.1771C12.9569 9.27586 12.9272 3.56611 12.9272 3.56611C12.9272 3.35995 12.8865 3.15581 12.8075 2.96542C12.7284 2.77502 12.6125 2.60211 12.4664 2.45661C12.3204 2.31111 12.147 2.19587 11.9564 2.11752C11.7657 2.03916 11.5614 1.99923 11.3552 2.00001Z" fill="#38B44A"/>
<path d="M33.2656 8.50205C33.2656 7.95139 33.4844 7.42328 33.8737 7.03391C34.2631 6.64453 34.7912 6.42578 35.3419 6.42578H40.9775C45.486 6.42578 48.2088 9.09527 48.2088 12.9512V13.0046C48.2088 17.3766 44.8097 19.6427 40.5741 19.6427H37.4211V23.4008C37.4211 23.9514 37.2024 24.4796 36.813 24.8689C36.4236 25.2583 35.8955 25.4771 35.3449 25.4771C34.7942 25.4771 34.2661 25.2583 33.8767 24.8689C33.4873 24.4796 33.2686 23.9514 33.2686 23.4008L33.2656 8.50205ZM40.7135 15.941C42.7898 15.941 44.0059 14.7012 44.0059 13.0817V13.0283C44.0059 11.1656 42.7097 10.169 40.6334 10.169H37.4211V15.941H40.7135Z" fill="#227ABF"/>
<path d="M49.0781 21.1578V21.1044C49.0781 17.9484 51.4777 16.4921 54.9065 16.4921C56.1108 16.4804 57.3076 16.6812 58.4421 17.0853V16.8302C58.4421 15.1277 57.3891 14.1845 55.3366 14.1845C54.3756 14.1779 53.4192 14.319 52.501 14.6027C52.3109 14.6724 52.1102 14.7085 51.9078 14.7095C51.6858 14.7134 51.4652 14.673 51.2589 14.5907C51.0527 14.5083 50.865 14.3857 50.7067 14.2299C50.5484 14.0741 50.4228 13.8884 50.3372 13.6835C50.2516 13.4786 50.2078 13.2586 50.2082 13.0366C50.2078 12.6898 50.3136 12.3513 50.5114 12.0665C50.7092 11.7817 50.9895 11.5644 51.3146 11.4438C52.7921 10.9052 54.3576 10.6486 55.9298 10.6874C58.1692 10.6874 59.7858 11.2806 60.812 12.3069C61.8917 13.3866 62.3781 14.9764 62.3781 16.9222V23.5069C62.3781 23.7678 62.3263 24.0261 62.2257 24.2668C62.1251 24.5075 61.9776 24.7258 61.7919 24.9091C61.6061 25.0923 61.3859 25.2368 61.1438 25.3342C60.9018 25.4316 60.6428 25.4799 60.3819 25.4764C59.1955 25.4764 58.4124 24.64 58.4124 23.7768V23.7501C57.4129 24.8565 56.0396 25.5861 54.0404 25.5861C51.3146 25.5861 49.0781 24.02 49.0781 21.1578ZM58.4955 20.2145V19.4997C57.6704 19.1367 56.7778 18.9527 55.8764 18.9599C54.1235 18.9599 53.0438 19.6628 53.0438 20.959V21.0124C53.0438 22.1188 53.9603 22.7654 55.2832 22.7654C57.1993 22.7624 58.4955 21.6976 58.4955 20.2145Z" fill="#227ABF"/>
<path d="M65.7506 29.3352C65.1574 29.1187 64.4574 28.6352 64.4574 27.6356C64.4523 27.419 64.4903 27.2036 64.5692 27.0018C64.6481 26.8 64.7663 26.6159 64.917 26.4603C65.0677 26.3046 65.2479 26.1804 65.447 26.095C65.6461 26.0096 65.8602 25.9647 66.0769 25.9628C66.3058 25.9586 66.5338 25.9947 66.7502 26.0695C67.0267 26.1718 67.3185 26.227 67.6133 26.2327C68.343 26.2327 68.693 26.0962 69.0697 25.3695L69.2061 25.0462L64.2676 13.603C64.1454 13.3022 64.0723 12.9837 64.051 12.6598C64.0467 12.395 64.0966 12.1322 64.1976 11.8874C64.2986 11.6426 64.4486 11.4211 64.6383 11.2364C64.828 11.0516 65.0535 10.9077 65.3009 10.8132C65.5483 10.7188 65.8123 10.676 66.0769 10.6873C67.1002 10.6873 67.6934 11.2539 68.0464 12.2267L71.1875 20.6475L74.2099 12.2534C74.5332 11.3903 75.1265 10.6873 76.1794 10.6873C76.4314 10.6826 76.6818 10.7279 76.9161 10.8205C77.1505 10.9131 77.3641 11.0513 77.5448 11.227C77.7254 11.4026 77.8695 11.6124 77.9686 11.8441C78.0677 12.0757 78.1199 12.3248 78.1222 12.5767C78.1117 12.9089 78.0486 13.2372 77.9354 13.5496L72.893 25.6661C71.6798 28.6056 70.4637 29.7119 68.0078 29.7119C67.2385 29.7281 66.473 29.6004 65.7506 29.3352Z" fill="#227ABF"/>
<path d="M80.5938 8.39521C80.5938 7.84455 80.8125 7.31644 81.2019 6.92706C81.5913 6.53769 82.1194 6.31894 82.67 6.31894H83.1031C84.0997 6.31894 84.6929 6.80538 85.2594 7.53504L93.2679 18.0588V8.31512C93.2574 8.03921 93.3027 7.76402 93.401 7.50602C93.4994 7.24802 93.6488 7.01251 93.8403 6.81359C94.0318 6.61468 94.2614 6.45644 94.5155 6.34836C94.7696 6.24028 95.0429 6.18457 95.319 6.18457C95.5951 6.18457 95.8684 6.24028 96.1224 6.34836C96.3765 6.45644 96.6062 6.61468 96.7977 6.81359C96.9892 7.01251 97.1385 7.24802 97.2369 7.50602C97.3352 7.76402 97.3805 8.03921 97.37 8.31512V23.3562C97.37 23.9069 97.1513 24.435 96.7619 24.8244C96.3725 25.2137 95.8444 25.4325 95.2938 25.4325H95.1603C94.1607 25.4325 93.5675 24.9461 93.001 24.2194L84.6959 13.316V23.4274C84.6959 23.971 84.4799 24.4923 84.0956 24.8767C83.7112 25.2611 83.1899 25.477 82.6463 25.477C82.1027 25.477 81.5814 25.2611 81.197 24.8767C80.8127 24.4923 80.5967 23.971 80.5967 23.4274L80.5938 8.39521Z" fill="#38B44A"/>
<path d="M107.671 25.64C103.326 25.64 100.113 22.5908 100.113 18.1654V18.109C100.113 13.9802 103.056 10.5811 107.265 10.5811C112.096 10.5811 114.229 14.5467 114.229 17.5425C114.241 17.7983 114.201 18.0539 114.11 18.2934C114.019 18.5329 113.88 18.7512 113.702 18.9348C113.523 19.1184 113.309 19.2633 113.072 19.3605C112.835 19.4578 112.581 19.5053 112.325 19.5001H104.201C104.607 21.3628 105.9 22.3357 107.736 22.3357C108.789 22.3438 109.815 22.0016 110.652 21.3628C110.935 21.1407 111.288 21.0262 111.648 21.0395C111.861 21.0362 112.072 21.076 112.268 21.1566C112.465 21.2371 112.643 21.3567 112.792 21.5082C112.941 21.6596 113.057 21.8397 113.135 22.0375C113.212 22.2353 113.248 22.4468 113.241 22.659C113.246 22.8891 113.201 23.1175 113.11 23.3289C113.019 23.5402 112.884 23.7295 112.713 23.884C111.305 25.0682 109.51 25.6932 107.671 25.64ZM110.34 16.9493C110.085 15.1133 109.006 13.8645 107.276 13.8645C105.547 13.8645 104.47 15.0777 104.147 16.9404L110.34 16.9493Z" fill="#38B44A"/>
<path d="M117.391 21.2148V14.3601H117.258C117.021 14.3699 116.785 14.3317 116.564 14.2479C116.343 14.1641 116.141 14.0364 115.97 13.8726C115.799 13.7087 115.663 13.512 115.57 13.2943C115.478 13.0766 115.43 12.8424 115.43 12.6057C115.43 12.369 115.478 12.1348 115.57 11.9171C115.663 11.6994 115.799 11.5027 115.97 11.3388C116.141 11.1749 116.343 11.0473 116.564 10.9635C116.785 10.8797 117.021 10.8415 117.258 10.8512H117.391V9.04191C117.411 8.51144 117.636 8.00941 118.019 7.64123C118.401 7.27306 118.911 7.06738 119.442 7.06738C119.973 7.06738 120.483 7.27306 120.866 7.64123C121.248 8.00941 121.473 8.51144 121.493 9.04191V10.8512H123.303C123.756 10.8699 124.184 11.0628 124.497 11.3898C124.811 11.7168 124.986 12.1525 124.986 12.6057C124.986 13.0589 124.811 13.4946 124.497 13.8215C124.184 14.1485 123.756 14.3415 123.303 14.3601H121.493V20.5385C121.493 21.4847 121.9 21.9415 122.816 21.9415C122.95 21.9415 123.22 21.9148 123.303 21.9148C123.752 21.9179 124.183 22.098 124.501 22.416C124.819 22.7341 124.999 23.1646 125.002 23.6144C125 23.9466 124.898 24.2705 124.711 24.5448C124.523 24.819 124.258 25.031 123.949 25.1538C123.203 25.4413 122.408 25.5784 121.609 25.5572C119.091 25.5572 117.391 24.5606 117.391 21.2148Z" fill="#38B44A"/>
</g>
<path d="M146.525 24.4995C146.574 24.6216 146.595 24.7233 146.586 24.8047C146.586 24.8779 146.558 24.9349 146.501 24.9756C146.452 25.0163 146.371 25.0407 146.257 25.0488C146.151 25.0651 146.013 25.0732 145.842 25.0732C145.671 25.0732 145.533 25.0651 145.427 25.0488C145.329 25.0407 145.252 25.0244 145.195 25C145.138 24.9756 145.093 24.943 145.061 24.9023C145.036 24.8617 145.012 24.8128 144.987 24.7559L143.474 20.5444H136.54L135.087 24.7314C135.071 24.7884 135.047 24.8372 135.014 24.8779C134.982 24.9186 134.937 24.9552 134.88 24.9878C134.823 25.0122 134.742 25.0326 134.636 25.0488C134.538 25.0651 134.412 25.0732 134.257 25.0732C134.086 25.0732 133.944 25.0651 133.83 25.0488C133.716 25.0326 133.631 25.0041 133.574 24.9634C133.525 24.9227 133.496 24.8657 133.488 24.7925C133.488 24.7192 133.513 24.6216 133.562 24.4995L139.091 9.47266C139.116 9.40755 139.152 9.35465 139.201 9.31396C139.25 9.26514 139.311 9.22852 139.384 9.2041C139.466 9.17969 139.559 9.16341 139.665 9.15527C139.779 9.139 139.905 9.13086 140.043 9.13086C140.19 9.13086 140.316 9.139 140.422 9.15527C140.536 9.16341 140.629 9.17969 140.703 9.2041C140.784 9.22852 140.845 9.26514 140.886 9.31396C140.935 9.35465 140.971 9.40755 140.996 9.47266L146.525 24.4995ZM139.97 10.8032H139.958L136.979 19.2993H143.022L139.97 10.8032ZM158.488 13.7329C158.488 14.4653 158.362 15.1367 158.11 15.7471C157.866 16.3574 157.512 16.8823 157.048 17.3218C156.584 17.7612 156.018 18.103 155.351 18.3472C154.684 18.5913 153.878 18.7134 152.934 18.7134H150.883V24.7559C150.883 24.8047 150.871 24.8494 150.847 24.8901C150.822 24.9308 150.782 24.9634 150.725 24.9878C150.668 25.0122 150.59 25.0326 150.493 25.0488C150.403 25.0651 150.285 25.0732 150.139 25.0732C150 25.0732 149.882 25.0651 149.785 25.0488C149.687 25.0326 149.61 25.0122 149.553 24.9878C149.496 24.9634 149.455 24.9308 149.431 24.8901C149.406 24.8494 149.394 24.8047 149.394 24.7559V9.97314C149.394 9.68018 149.471 9.48079 149.626 9.375C149.781 9.26107 149.931 9.2041 150.078 9.2041H153.288C153.605 9.2041 153.915 9.22038 154.216 9.25293C154.517 9.27734 154.867 9.33838 155.266 9.43604C155.673 9.52555 156.083 9.70052 156.499 9.96094C156.922 10.2132 157.28 10.5265 157.573 10.9009C157.866 11.2671 158.09 11.6903 158.244 12.1704C158.407 12.6424 158.488 13.1632 158.488 13.7329ZM156.914 13.8672C156.914 13.1836 156.779 12.6058 156.511 12.1338C156.242 11.6536 155.913 11.2996 155.522 11.0718C155.139 10.8358 154.737 10.6893 154.313 10.6323C153.898 10.5672 153.504 10.5347 153.129 10.5347H150.883V17.395H153.032C153.723 17.395 154.301 17.3096 154.765 17.1387C155.229 16.9596 155.62 16.7155 155.937 16.4062C156.254 16.097 156.494 15.7267 156.657 15.2954C156.828 14.856 156.914 14.3799 156.914 13.8672ZM163.579 24.7559C163.579 24.8047 163.566 24.8494 163.542 24.8901C163.518 24.9308 163.477 24.9634 163.42 24.9878C163.363 25.0122 163.286 25.0326 163.188 25.0488C163.098 25.0651 162.98 25.0732 162.834 25.0732C162.696 25.0732 162.578 25.0651 162.48 25.0488C162.382 25.0326 162.305 25.0122 162.248 24.9878C162.191 24.9634 162.15 24.9308 162.126 24.8901C162.102 24.8494 162.089 24.8047 162.089 24.7559V9.44824C162.089 9.39941 162.102 9.35465 162.126 9.31396C162.159 9.27327 162.203 9.24072 162.26 9.21631C162.325 9.19189 162.403 9.17155 162.492 9.15527C162.59 9.139 162.704 9.13086 162.834 9.13086C162.98 9.13086 163.098 9.139 163.188 9.15527C163.286 9.17155 163.363 9.19189 163.42 9.21631C163.477 9.24072 163.518 9.27327 163.542 9.31396C163.566 9.35465 163.579 9.39941 163.579 9.44824V24.7559ZM174.418 21.814C174.418 22.3429 174.321 22.819 174.125 23.2422C173.93 23.6572 173.649 24.0112 173.283 24.3042C172.925 24.5972 172.494 24.821 171.989 24.9756C171.485 25.1302 170.927 25.2075 170.317 25.2075C169.934 25.2075 169.572 25.175 169.23 25.1099C168.889 25.0529 168.579 24.9797 168.303 24.8901C168.026 24.7925 167.79 24.6908 167.595 24.585C167.408 24.4792 167.269 24.3856 167.18 24.3042C167.09 24.2228 167.025 24.1211 166.984 23.999C166.944 23.877 166.923 23.7142 166.923 23.5107C166.923 23.4049 166.931 23.3114 166.948 23.23C166.964 23.1486 166.984 23.0794 167.009 23.0225C167.033 22.9655 167.066 22.9248 167.106 22.9004C167.147 22.8678 167.192 22.8516 167.241 22.8516C167.33 22.8516 167.46 22.9085 167.631 23.0225C167.802 23.1364 168.014 23.2625 168.266 23.4009C168.527 23.5311 168.832 23.6532 169.182 23.7671C169.54 23.881 169.951 23.938 170.415 23.938C170.789 23.938 171.131 23.8973 171.44 23.8159C171.749 23.7345 172.018 23.6125 172.246 23.4497C172.473 23.2869 172.648 23.0794 172.771 22.8271C172.901 22.5667 172.966 22.2656 172.966 21.9238C172.966 21.582 172.884 21.2931 172.722 21.0571C172.559 20.8211 172.343 20.6177 172.075 20.4468C171.814 20.2677 171.513 20.1131 171.171 19.9829C170.838 19.8446 170.492 19.7062 170.134 19.5679C169.784 19.4214 169.438 19.2627 169.096 19.0918C168.763 18.9209 168.461 18.7134 168.193 18.4692C167.932 18.2251 167.721 17.9321 167.558 17.5903C167.395 17.2485 167.314 16.8376 167.314 16.3574C167.314 15.9749 167.387 15.6006 167.534 15.2344C167.68 14.86 167.904 14.5264 168.205 14.2334C168.514 13.9404 168.905 13.7044 169.377 13.5254C169.857 13.3464 170.423 13.2568 171.074 13.2568C171.35 13.2568 171.623 13.2812 171.892 13.3301C172.168 13.3708 172.417 13.4277 172.636 13.501C172.864 13.5742 173.059 13.6556 173.222 13.7451C173.385 13.8265 173.507 13.8997 173.588 13.9648C173.678 14.0299 173.735 14.0869 173.759 14.1357C173.792 14.1764 173.812 14.2212 173.82 14.27C173.837 14.3188 173.849 14.3799 173.857 14.4531C173.865 14.5182 173.869 14.5996 173.869 14.6973C173.869 14.7949 173.861 14.8844 173.845 14.9658C173.837 15.0391 173.82 15.1042 173.796 15.1611C173.771 15.2181 173.739 15.2629 173.698 15.2954C173.666 15.3198 173.625 15.332 173.576 15.332C173.511 15.332 173.413 15.2873 173.283 15.1978C173.153 15.1082 172.982 15.0106 172.771 14.9048C172.559 14.799 172.307 14.7013 172.014 14.6118C171.721 14.5223 171.383 14.4775 171 14.4775C170.618 14.4775 170.28 14.5223 169.987 14.6118C169.702 14.7013 169.466 14.8275 169.279 14.9902C169.092 15.153 168.95 15.3442 168.852 15.564C168.763 15.7837 168.718 16.0238 168.718 16.2842C168.718 16.6423 168.799 16.9434 168.962 17.1875C169.125 17.4316 169.34 17.6432 169.609 17.8223C169.877 18.0013 170.183 18.16 170.524 18.2983C170.866 18.4367 171.212 18.575 171.562 18.7134C171.92 18.8517 172.27 19.0063 172.612 19.1772C172.954 19.34 173.259 19.5394 173.527 19.7754C173.796 20.0114 174.012 20.2962 174.174 20.6299C174.337 20.9554 174.418 21.3501 174.418 21.814Z" fill="#667085"/>
</g>
<defs>
<clipPath id="clip0_1_4">
<rect width="174" height="32" fill="white"/>
</clipPath>
</defs>
</svg>
