<svg width="173" height="26" viewBox="0 0 173 26" fill="none" xmlns="http://www.w3.org/2000/svg">
<mask id="mask0_5_50" style="mask-type:luminance" maskUnits="userSpaceOnUse" x="0" y="0" width="114" height="26">
<path d="M114 0.000976562H0V25.201H114V0.000976562Z" fill="white"/>
</mask>
<g mask="url(#mask0_5_50)">
<path d="M10.3768 25.1238C10.5643 25.1238 10.75 25.0872 10.9232 25.0162C11.0964 24.9451 11.2536 24.841 11.386 24.7098C11.5183 24.5786 11.6231 24.4229 11.6944 24.2516C11.7657 24.0803 11.802 23.8968 11.8013 23.7116V16.6081V16.552L8.91992 14.9316C8.91992 14.9316 8.91992 15.5483 8.91992 15.7512C8.91992 17.7426 8.91992 23.7143 8.91992 23.7143C8.91992 24.0881 9.07028 24.4466 9.33793 24.7109C9.60557 24.9753 9.96858 25.1238 10.3471 25.1238H10.3768Z" fill="#2B9ED2"/>
<path d="M2.1625 20.4521C2.25649 20.6124 2.38155 20.7528 2.53052 20.8654C2.6795 20.9779 2.84946 21.0603 3.03071 21.1079C3.21195 21.1555 3.40092 21.1673 3.5868 21.1428C3.77269 21.1182 3.95184 21.0577 4.11403 20.9647L11.0877 16.9605L11.7958 16.552L8.91989 14.9316C8.91989 14.9316 8.72799 15.0411 8.66582 15.0811C7.16838 15.946 2.67336 18.5248 2.67336 18.5248C2.34752 18.7141 2.11085 19.0231 2.01512 19.3843C1.91938 19.7455 1.97237 20.1294 2.1625 20.4521Z" fill="#227ABF"/>
<path d="M22.3588 20.487C22.4527 20.3267 22.5136 20.1497 22.5381 19.9661C22.5625 19.7825 22.55 19.5959 22.5013 19.4171C22.4526 19.2383 22.3686 19.0707 22.2542 18.9241C22.1397 18.7774 21.9971 18.6544 21.8345 18.5623L15.6014 15.0199L15.5609 14.9985L12.7039 16.6376L13.4255 17.038C15.1798 18.0204 20.4154 21.0076 20.4154 21.0076C20.5788 21.0993 20.7589 21.1582 20.9453 21.181C21.1318 21.2038 21.321 21.19 21.5021 21.1404C21.6832 21.0908 21.8525 21.0063 22.0005 20.8919C22.1484 20.7775 22.272 20.6354 22.3642 20.4737L22.3588 20.487Z" fill="#2B9ED2"/>
<path d="M14.1608 25.1826C14.349 25.1823 14.5352 25.1451 14.7088 25.0733C14.8824 25.0014 15.0398 24.8963 15.172 24.764C15.3042 24.6317 15.4086 24.4748 15.479 24.3025C15.5495 24.1301 15.5847 23.9457 15.5825 23.7598L15.5609 15.7994C15.5609 15.0199 15.5609 14.9985 15.5609 14.9985L12.7039 16.6376V16.9286C12.7174 18.6397 12.7309 23.7758 12.7309 23.7758C12.7316 23.9613 12.7693 24.1448 12.8418 24.3158C12.9143 24.4869 13.0202 24.6422 13.1535 24.7728C13.2868 24.9034 13.4448 25.0069 13.6186 25.0772C13.7923 25.1475 13.9784 25.1833 14.1662 25.1826H14.1608Z" fill="#257ABE"/>
<path d="M24.2485 7.90289C24.0585 7.57936 23.7466 7.34327 23.3809 7.24622C23.0152 7.14918 22.6255 7.19908 22.2969 7.38501L16.0693 10.9461L16.0342 10.9701V14.2296C16.0342 14.2296 16.5748 13.9146 16.7451 13.8131C18.4858 12.8148 23.7268 9.83026 23.7268 9.83026C24.0545 9.64272 24.2934 9.33446 24.3912 8.97312C24.489 8.61179 24.4377 8.22689 24.2485 7.90289Z" fill="#F4B652"/>
<path d="M24.2512 17.2646C24.4404 16.9406 24.4917 16.5557 24.3939 16.1943C24.2961 15.833 24.0572 15.5247 23.7295 15.3372L16.7397 11.3677C16.0585 10.9806 16.0342 10.9619 16.0342 10.9619V14.2294L16.2883 14.3735C17.7938 15.2171 22.305 17.7825 22.305 17.7825C22.4671 17.8751 22.6462 17.9352 22.8319 17.9593C23.0176 17.9834 23.2062 17.9711 23.3871 17.923C23.5679 17.8748 23.7374 17.7919 23.8856 17.6789C24.0339 17.5659 24.1582 17.4251 24.2512 17.2646Z" fill="#F79420"/>
<path d="M0.235215 17.2676C0.424584 17.5911 0.736226 17.827 1.10166 17.9236C1.46708 18.0202 1.8564 17.9696 2.18405 17.7829L8.40085 14.2324L8.43869 14.2084V10.9463L7.72511 11.3627C5.99792 12.3611 0.756886 15.3403 0.756886 15.3403C0.594372 15.4329 0.451942 15.5562 0.337747 15.7033C0.223552 15.8503 0.139833 16.0181 0.0913791 16.1971C0.0429257 16.3761 0.0306894 16.5628 0.0553703 16.7465C0.0800512 16.9302 0.141165 17.1073 0.235215 17.2676Z" fill="#F4B652"/>
<path d="M0.229647 7.90568C0.0406563 8.23 -0.0102723 8.61515 0.0880464 8.97652C0.186365 9.3379 0.425892 9.64596 0.754021 9.83306L7.74117 13.8026L8.44934 14.2084V10.9462L8.17905 10.8021C6.68701 9.94784 2.17848 7.38513 2.17848 7.38513C2.01592 7.29288 1.83655 7.23317 1.65062 7.20941C1.46469 7.18565 1.27584 7.1983 1.09486 7.24664C0.913881 7.29498 0.744319 7.37806 0.595863 7.49115C0.447406 7.60423 0.322964 7.74509 0.229647 7.90568Z" fill="#F79420"/>
<path d="M14.1039 0.00103977C13.7249 0.00245227 13.3619 0.152138 13.0944 0.417317C12.8269 0.682496 12.6768 1.04156 12.6768 1.41587V8.51405V8.55943L15.5446 10.1905C15.5446 10.1905 15.5446 9.57917 15.5446 9.37095C15.5284 7.38218 15.5446 1.41053 15.5446 1.41053C15.5446 1.22431 15.5072 1.03992 15.4347 0.868041C15.3621 0.696158 15.2558 0.540181 15.1218 0.409121C14.9879 0.278062 14.8289 0.174519 14.6542 0.104476C14.4795 0.034432 14.2925 -0.000723735 14.1039 0.00103977Z" fill="#87C54B"/>
<path d="M22.3184 4.67214C22.2247 4.51195 22.0999 4.3716 21.9511 4.25911C21.8024 4.14663 21.6327 4.06422 21.4516 4.01661C21.2706 3.96901 21.0819 3.95713 20.8962 3.98166C20.7105 4.0062 20.5316 4.06666 20.3696 4.1596L13.3959 8.16383C12.704 8.5429 12.6851 8.55892 12.6851 8.55892L15.5529 10.19L15.8232 10.0458C17.299 9.17824 21.8021 6.59951 21.8021 6.59951C21.9645 6.50671 22.1066 6.38317 22.2205 6.23597C22.3344 6.08877 22.4177 5.92081 22.4656 5.74173C22.5136 5.56266 22.5253 5.37598 22.5 5.19243C22.4748 5.00888 22.413 4.83207 22.3184 4.67214Z" fill="#38B44A"/>
<path d="M2.14345 4.70191C2.05059 4.86325 1.99091 5.04111 1.96784 5.22529C1.94476 5.40947 1.95873 5.59633 2.00896 5.77516C2.05919 5.95398 2.14468 6.12126 2.26053 6.26737C2.37637 6.41349 2.5203 6.53557 2.68404 6.62662L8.90084 10.1717L8.94139 10.1904L11.8092 8.54331C11.8092 8.54331 11.2686 8.24433 11.0848 8.14289C9.33061 7.16051 4.09498 4.17602 4.09498 4.17602C3.76643 3.99009 3.3767 3.94019 3.01101 4.03724C2.64531 4.13428 2.33339 4.37038 2.14345 4.6939V4.70191Z" fill="#87C54B"/>
<path d="M10.3471 0.000986675C10.1589 0.000628618 9.97251 0.0371077 9.79867 0.108316C9.62482 0.179525 9.46699 0.284051 9.33429 0.415855C9.20158 0.547659 9.09664 0.704128 9.02553 0.876221C8.95441 1.04831 8.91853 1.23262 8.91996 1.41849L8.94159 9.38158C8.94159 10.1611 8.94159 10.1824 8.94159 10.1824L11.8067 8.54336V8.26039C11.8067 6.54925 11.7797 1.41048 11.7797 1.41048C11.7797 1.22493 11.7426 1.04121 11.6705 0.869853C11.5985 0.698497 11.4929 0.542878 11.3598 0.411925C11.2267 0.280971 11.0687 0.17726 10.8949 0.106742C10.7212 0.0362227 10.535 0.000283845 10.3471 0.000986675Z" fill="#38B44A"/>
<path d="M30.3137 5.85253C30.3137 5.35694 30.5131 4.88164 30.8679 4.5312C31.2227 4.18076 31.704 3.98389 32.2058 3.98389H37.3414C41.4499 3.98389 43.9312 6.38643 43.9312 9.85677V9.90482C43.9312 13.8396 40.8336 15.8791 36.9738 15.8791H34.1006V19.2614C34.1006 19.757 33.9012 20.2323 33.5464 20.5827C33.1916 20.9332 32.7103 21.13 32.2085 21.13C31.7067 21.13 31.2254 20.9332 30.8706 20.5827C30.5158 20.2323 30.3164 19.757 30.3164 19.2614L30.3137 5.85253ZM37.1008 12.5476C38.9929 12.5476 40.1011 11.4318 40.1011 9.97423V9.92617C40.1011 8.24973 38.9199 7.35278 37.0279 7.35278H34.1006V12.5476H37.1008Z" fill="#227ABF"/>
<path d="M44.7231 17.2432V17.1951C44.7231 14.3548 46.9098 13.044 50.0345 13.044C51.1319 13.0335 52.2226 13.2142 53.2564 13.5779V13.3484C53.2564 11.8161 52.2968 10.9672 50.4264 10.9672C49.5506 10.9613 48.6791 11.0883 47.8424 11.3436C47.6692 11.4063 47.4862 11.4388 47.3018 11.4397C47.0994 11.4432 46.8984 11.4069 46.7105 11.3328C46.5225 11.2587 46.3515 11.1483 46.2072 11.0081C46.063 10.8679 45.9486 10.7007 45.8706 10.5163C45.7926 10.3319 45.7526 10.1339 45.753 9.93409C45.7526 9.62203 45.849 9.31734 46.0292 9.06104C46.2095 8.80474 46.4649 8.60914 46.7612 8.50057C48.1076 8.01583 49.5343 7.78493 50.967 7.81985C53.0077 7.81985 54.4808 8.35375 55.4161 9.27739C56.3999 10.2491 56.8432 11.6799 56.8432 13.4311V19.3574C56.8432 19.5922 56.796 19.8247 56.7043 20.0413C56.6126 20.2579 56.4782 20.4544 56.309 20.6193C56.1397 20.7843 55.939 20.9143 55.7184 21.002C55.4979 21.0896 55.2619 21.1331 55.0241 21.1299C53.9429 21.1299 53.2294 20.3771 53.2294 19.6003V19.5763C52.3185 20.572 51.067 21.2287 49.2452 21.2287C46.7612 21.2287 44.7231 19.8192 44.7231 17.2432ZM53.305 16.3943V15.7509C52.5532 15.4242 51.7397 15.2586 50.9183 15.2651C49.3209 15.2651 48.337 15.8977 48.337 17.0643V17.1123C48.337 18.1081 49.1722 18.69 50.3777 18.69C52.1238 18.6874 53.305 17.729 53.305 16.3943Z" fill="#227ABF"/>
<path d="M59.9165 24.6026C59.3759 24.4077 58.738 23.9726 58.738 23.073C58.7333 22.878 58.7679 22.6841 58.8398 22.5025C58.9117 22.3209 59.0195 22.1552 59.1568 22.0151C59.2942 21.875 59.4583 21.7633 59.6398 21.6864C59.8212 21.6095 60.0164 21.5691 60.2138 21.5674C60.4224 21.5636 60.6301 21.5961 60.8274 21.6635C61.0794 21.7555 61.3453 21.8052 61.6139 21.8103C62.2788 21.8103 62.5978 21.6875 62.9411 21.0335L63.0654 20.7425L58.565 10.4436C58.4537 10.1729 58.3871 9.88625 58.3677 9.59469C58.3638 9.35641 58.4092 9.11985 58.5012 8.89955C58.5933 8.67925 58.7299 8.47985 58.9028 8.3136C59.0757 8.14735 59.2812 8.01776 59.5066 7.93279C59.7321 7.84782 59.9727 7.80926 60.2138 7.81948C61.1463 7.81948 61.6869 8.32935 62.0085 9.20494L64.871 16.7836L67.6253 9.22897C67.9199 8.45215 68.4605 7.81948 69.4201 7.81948C69.6496 7.81524 69.8778 7.85597 70.0914 7.93933C70.3049 8.02269 70.4997 8.14702 70.6643 8.30513C70.8289 8.46325 70.9602 8.65202 71.0505 8.86053C71.1408 9.06904 71.1884 9.29316 71.1905 9.51995C71.1809 9.81886 71.1234 10.1144 71.0202 10.3955L66.4252 21.3004C65.3197 23.9459 64.2115 24.9416 61.9734 24.9416C61.2724 24.9562 60.5747 24.8412 59.9165 24.6026Z" fill="#227ABF"/>
<path d="M73.4421 5.75666C73.4421 5.26107 73.6415 4.78577 73.9963 4.43533C74.3511 4.0849 74.8324 3.88802 75.3342 3.88802H75.7288C76.637 3.88802 77.1776 4.32582 77.6939 4.98251L84.9919 14.4539V5.68459C84.9823 5.43627 85.0236 5.1886 85.1132 4.95639C85.2028 4.72419 85.339 4.51224 85.5135 4.33321C85.688 4.15419 85.8973 4.01178 86.1288 3.9145C86.3603 3.81723 86.6094 3.76709 86.861 3.76709C87.1126 3.76709 87.3616 3.81723 87.5932 3.9145C87.8247 4.01178 88.034 4.15419 88.2085 4.33321C88.383 4.51224 88.5191 4.72419 88.6087 4.95639C88.6984 5.1886 88.7396 5.43627 88.7301 5.68459V19.2216C88.7301 19.7172 88.5307 20.1925 88.1759 20.5429C87.8211 20.8933 87.3398 21.0902 86.838 21.0902H86.7164C85.8055 21.0902 85.2649 20.6524 84.7486 19.9984L77.1803 10.1854V19.2856C77.1803 19.7749 76.9836 20.2441 76.6333 20.59C76.283 20.9359 75.8079 21.1303 75.3126 21.1303C74.8172 21.1303 74.3422 20.9359 73.9919 20.59C73.6416 20.2441 73.4448 19.7749 73.4448 19.2856L73.4421 5.75666Z" fill="#38B44A"/>
<path d="M98.1176 21.2766C94.1578 21.2766 91.2305 18.5324 91.2305 14.5495V14.4988C91.2305 10.7829 93.9118 7.72363 97.7473 7.72363C102.15 7.72363 104.094 11.2927 104.094 13.9889C104.105 14.2192 104.068 14.4492 103.986 14.6647C103.903 14.8803 103.776 15.0768 103.614 15.242C103.451 15.4072 103.255 15.5376 103.04 15.6252C102.824 15.7127 102.592 15.7554 102.359 15.7508H94.9551C95.3255 17.4272 96.5039 18.3028 98.1771 18.3028C99.1366 18.3101 100.071 18.0021 100.834 17.4272C101.093 17.2273 101.414 17.1242 101.742 17.1363C101.936 17.1333 102.128 17.1691 102.307 17.2416C102.486 17.3141 102.648 17.4218 102.784 17.558C102.92 17.6943 103.026 17.8564 103.096 18.0344C103.167 18.2125 103.2 18.4028 103.194 18.5938C103.198 18.8009 103.157 19.0065 103.074 19.1967C102.991 19.3869 102.868 19.5572 102.713 19.6963C101.429 20.7621 99.7937 21.3245 98.1176 21.2766ZM100.55 13.455C100.318 11.8026 99.3339 10.6788 97.7581 10.6788C96.1823 10.6788 95.2011 11.7706 94.9065 13.447L100.55 13.455Z" fill="#38B44A"/>
<path d="M106.978 17.2937V11.1245H106.856C106.641 11.1333 106.426 11.0989 106.224 11.0235C106.022 10.9481 105.838 10.8332 105.682 10.6857C105.527 10.5382 105.403 10.3612 105.318 10.1652C105.234 9.96931 105.19 9.75851 105.19 9.54551C105.19 9.33251 105.234 9.1217 105.318 8.92577C105.403 8.72983 105.527 8.5528 105.682 8.40531C105.838 8.25782 106.022 8.14292 106.224 8.06752C106.426 7.99211 106.641 7.95775 106.856 7.9665H106.978V6.33811C106.996 5.86068 107.201 5.40886 107.55 5.0775C107.898 4.74615 108.363 4.56104 108.847 4.56104C109.331 4.56104 109.796 4.74615 110.144 5.0775C110.493 5.40886 110.698 5.86068 110.716 6.33811V7.9665H112.365C112.777 7.98326 113.167 8.15695 113.453 8.45124C113.739 8.74552 113.899 9.13762 113.899 9.54551C113.899 9.9534 113.739 10.3455 113.453 10.6398C113.167 10.9341 112.777 11.1077 112.365 11.1245H110.716V16.6851C110.716 17.5366 111.086 17.9477 111.921 17.9477C112.043 17.9477 112.289 17.9237 112.365 17.9237C112.775 17.9265 113.167 18.0886 113.457 18.3748C113.747 18.6611 113.911 19.0485 113.914 19.4533C113.911 19.7523 113.819 20.0439 113.648 20.2907C113.477 20.5375 113.235 20.7283 112.954 20.8388C112.274 21.0975 111.549 21.2209 110.821 21.2018C108.527 21.2018 106.978 20.3049 106.978 17.2937Z" fill="#38B44A"/>
</g>
<path d="M139.359 12.1953C139.359 13.4688 139.199 14.5938 138.879 15.5703C138.559 16.5391 138.086 17.3516 137.461 18.0078C136.836 18.6641 136.062 19.1602 135.141 19.4961C134.227 19.832 133.133 20 131.859 20H128.871C128.73 20 128.586 19.9492 128.437 19.8477C128.289 19.7383 128.215 19.543 128.215 19.2617V5.57422C128.215 5.29297 128.289 5.10156 128.437 5C128.586 4.89063 128.73 4.83594 128.871 4.83594H132.059C133.348 4.83594 134.434 5.01172 135.316 5.36328C136.207 5.71485 136.949 6.21485 137.543 6.86328C138.145 7.50391 138.598 8.27735 138.902 9.1836C139.207 10.082 139.359 11.0859 139.359 12.1953ZM137.824 12.2656C137.824 11.3828 137.711 10.5664 137.484 9.81641C137.266 9.0586 136.922 8.40625 136.453 7.85938C135.992 7.3125 135.406 6.88672 134.695 6.58203C133.984 6.26953 133.078 6.11328 131.977 6.11328H129.645V18.7227H131.988C133.02 18.7227 133.891 18.5977 134.602 18.3477C135.32 18.0898 135.918 17.6953 136.395 17.1641C136.871 16.6328 137.227 15.9648 137.461 15.1602C137.703 14.3477 137.824 13.3828 137.824 12.2656ZM151.922 14.3516C151.922 15.1953 151.812 15.9727 151.594 16.6836C151.375 17.3945 151.047 18.0117 150.609 18.5352C150.18 19.0586 149.641 19.4688 148.992 19.7656C148.344 20.0547 147.59 20.1992 146.73 20.1992C145.902 20.1992 145.176 20.0703 144.551 19.8125C143.934 19.5469 143.414 19.1719 142.992 18.6875C142.578 18.1953 142.266 17.6016 142.055 16.9063C141.852 16.2109 141.75 15.4258 141.75 14.5508C141.75 13.707 141.855 12.9297 142.066 12.2188C142.285 11.5078 142.609 10.8945 143.039 10.3789C143.477 9.85547 144.02 9.44922 144.668 9.16016C145.316 8.8711 146.074 8.72656 146.941 8.72656C147.77 8.72656 148.492 8.85547 149.109 9.11328C149.734 9.3711 150.254 9.7461 150.668 10.2383C151.082 10.7227 151.395 11.3125 151.605 12.0078C151.816 12.7031 151.922 13.4844 151.922 14.3516ZM150.445 14.4805C150.445 13.8789 150.387 13.3047 150.27 12.7578C150.152 12.2109 149.957 11.7305 149.684 11.3164C149.41 10.8945 149.043 10.5625 148.582 10.3203C148.121 10.0703 147.547 9.94531 146.859 9.94531C146.227 9.94531 145.68 10.0586 145.219 10.2852C144.758 10.5117 144.379 10.8281 144.082 11.2344C143.793 11.6328 143.578 12.1055 143.437 12.6523C143.297 13.1992 143.227 13.7891 143.227 14.4219C143.227 15.0313 143.285 15.6133 143.402 16.168C143.52 16.7148 143.715 17.1953 143.988 17.6094C144.262 18.0234 144.629 18.3516 145.09 18.5938C145.551 18.8359 146.125 18.957 146.812 18.957C147.445 18.957 147.992 18.8438 148.453 18.6172C148.914 18.3906 149.289 18.0781 149.578 17.6797C149.875 17.2813 150.094 16.8086 150.234 16.2617C150.375 15.7148 150.445 15.1211 150.445 14.4805ZM162.457 18.1953C162.457 18.2891 162.453 18.375 162.445 18.4531C162.437 18.5234 162.426 18.5859 162.41 18.6406C162.395 18.6953 162.371 18.7461 162.34 18.793C162.316 18.832 162.254 18.9023 162.152 19.0039C162.051 19.1055 161.879 19.2344 161.637 19.3906C161.402 19.5469 161.137 19.6836 160.84 19.8008C160.543 19.918 160.223 20.0117 159.879 20.082C159.535 20.1602 159.18 20.1992 158.812 20.1992C158.078 20.1992 157.426 20.0781 156.855 19.8359C156.293 19.5859 155.82 19.2227 155.437 18.7461C155.055 18.2617 154.762 17.6719 154.559 16.9766C154.363 16.2734 154.266 15.4648 154.266 14.5508C154.266 13.5195 154.387 12.6367 154.629 11.9023C154.879 11.168 155.219 10.5664 155.648 10.0977C156.078 9.62891 156.578 9.28516 157.148 9.06641C157.727 8.83985 158.344 8.72656 159 8.72656C159.352 8.72656 159.687 8.76172 160.008 8.83203C160.328 8.89453 160.621 8.98047 160.887 9.08985C161.16 9.19922 161.402 9.32422 161.613 9.46485C161.824 9.60547 161.977 9.72656 162.07 9.82813C162.172 9.92188 162.238 9.9961 162.27 10.0508C162.309 10.0977 162.336 10.1523 162.352 10.2148C162.375 10.2773 162.391 10.3477 162.398 10.4258C162.406 10.4961 162.41 10.582 162.41 10.6836C162.41 10.9102 162.375 11.0703 162.305 11.1641C162.242 11.25 162.172 11.293 162.094 11.293C161.984 11.293 161.848 11.2227 161.684 11.082C161.527 10.9414 161.324 10.7891 161.074 10.625C160.824 10.4531 160.52 10.2969 160.16 10.1563C159.809 10.0156 159.387 9.94531 158.895 9.94531C157.879 9.94531 157.094 10.3359 156.539 11.1172C155.992 11.8984 155.719 13.0273 155.719 14.5039C155.719 15.2461 155.793 15.8984 155.941 16.4609C156.09 17.0156 156.301 17.4805 156.574 17.8555C156.855 18.2227 157.195 18.5 157.594 18.6875C157.992 18.8672 158.441 18.957 158.941 18.957C159.41 18.957 159.824 18.8828 160.184 18.7344C160.543 18.5859 160.855 18.4219 161.121 18.2422C161.387 18.0625 161.605 17.8984 161.777 17.75C161.957 17.6016 162.09 17.5273 162.176 17.5273C162.223 17.5273 162.262 17.543 162.293 17.5742C162.332 17.5977 162.363 17.6406 162.387 17.7031C162.41 17.7578 162.426 17.8281 162.434 17.9141C162.449 17.9922 162.457 18.0859 162.457 18.1953ZM171.504 16.9414C171.504 17.4492 171.41 17.9063 171.223 18.3125C171.035 18.7109 170.766 19.0508 170.414 19.332C170.07 19.6133 169.656 19.8281 169.172 19.9766C168.687 20.125 168.152 20.1992 167.566 20.1992C167.199 20.1992 166.852 20.168 166.523 20.1055C166.195 20.0508 165.898 19.9805 165.633 19.8945C165.367 19.8008 165.141 19.7031 164.953 19.6016C164.773 19.5 164.641 19.4102 164.555 19.332C164.469 19.2539 164.406 19.1563 164.367 19.0391C164.328 18.9219 164.309 18.7656 164.309 18.5703C164.309 18.4688 164.316 18.3789 164.332 18.3008C164.348 18.2227 164.367 18.1563 164.391 18.1016C164.414 18.0469 164.445 18.0078 164.484 17.9844C164.523 17.9531 164.566 17.9375 164.613 17.9375C164.699 17.9375 164.824 17.9922 164.988 18.1016C165.152 18.2109 165.355 18.332 165.598 18.4648C165.848 18.5898 166.141 18.707 166.477 18.8164C166.82 18.9258 167.215 18.9805 167.66 18.9805C168.02 18.9805 168.348 18.9414 168.645 18.8633C168.941 18.7852 169.199 18.668 169.418 18.5117C169.637 18.3555 169.805 18.1563 169.922 17.9141C170.047 17.6641 170.109 17.375 170.109 17.0469C170.109 16.7188 170.031 16.4414 169.875 16.2148C169.719 15.9883 169.512 15.793 169.254 15.6289C169.004 15.457 168.715 15.3086 168.387 15.1836C168.066 15.0508 167.734 14.918 167.391 14.7852C167.055 14.6445 166.723 14.4922 166.395 14.3281C166.074 14.1641 165.785 13.9648 165.527 13.7305C165.277 13.4961 165.074 13.2148 164.918 12.8867C164.762 12.5586 164.684 12.1641 164.684 11.7031C164.684 11.3359 164.754 10.9766 164.895 10.625C165.035 10.2656 165.25 9.94531 165.539 9.66406C165.836 9.38281 166.211 9.15625 166.664 8.98438C167.125 8.8125 167.668 8.72656 168.293 8.72656C168.559 8.72656 168.82 8.75 169.078 8.79688C169.344 8.83594 169.582 8.89063 169.793 8.96094C170.012 9.03125 170.199 9.10938 170.355 9.19531C170.512 9.27344 170.629 9.34375 170.707 9.40625C170.793 9.46875 170.848 9.52344 170.871 9.57031C170.902 9.60938 170.922 9.65235 170.93 9.69922C170.945 9.7461 170.957 9.80469 170.965 9.875C170.973 9.9375 170.977 10.0156 170.977 10.1094C170.977 10.2031 170.969 10.2891 170.953 10.3672C170.945 10.4375 170.93 10.5 170.906 10.5547C170.883 10.6094 170.852 10.6523 170.812 10.6836C170.781 10.707 170.742 10.7188 170.695 10.7188C170.633 10.7188 170.539 10.6758 170.414 10.5898C170.289 10.5039 170.125 10.4102 169.922 10.3086C169.719 10.207 169.477 10.1133 169.195 10.0273C168.914 9.94141 168.59 9.89844 168.223 9.89844C167.855 9.89844 167.531 9.94141 167.25 10.0273C166.977 10.1133 166.75 10.2344 166.57 10.3906C166.391 10.5469 166.254 10.7305 166.16 10.9414C166.074 11.1523 166.031 11.3828 166.031 11.6328C166.031 11.9766 166.109 12.2656 166.266 12.5C166.422 12.7344 166.629 12.9375 166.887 13.1094C167.145 13.2813 167.437 13.4336 167.766 13.5664C168.094 13.6992 168.426 13.832 168.762 13.9648C169.105 14.0977 169.441 14.2461 169.77 14.4102C170.098 14.5664 170.391 14.7578 170.648 14.9844C170.906 15.2109 171.113 15.4844 171.27 15.8047C171.426 16.1172 171.504 16.4961 171.504 16.9414Z" fill="#667085"/>
</svg>
