<svg width="32" height="32" viewBox="0 0 32 32" fill="none" xmlns="http://www.w3.org/2000/svg">
<rect width="32" height="32" rx="6.4" fill="#EAF5FB"/>
<path d="M14.8841 20.6859L12.5931 17.6451C12.2536 17.1924 11.6659 16.5965 11.6659 15.9996C11.6659 15.4036 12.2507 14.8077 12.5931 14.3541L14.8841 11.3099C14.9936 11.163 15.0983 11.0608 15.2006 10.9782V7.47503C15.2006 4.66036 13.9999 3.95116 12.5327 5.89906L7.59362 12.4567C6.8593 13.4322 5.60059 14.7142 5.60059 15.9996C5.60059 17.2817 6.86213 18.5653 7.59362 19.5468L12.5327 26.0968C13.9999 28.0461 15.2006 27.3424 15.2006 24.523V21.0194C15.0983 20.9386 14.9936 20.8348 14.8841 20.6859Z" fill="#0987C9"/>
<path d="M24.4078 12.4572L19.4663 5.89954C18.0001 3.95052 16.7998 4.66088 16.7998 7.4755V10.9787C16.8993 11.0598 17.0049 11.1635 17.1134 11.3104L19.4073 14.3546C19.7492 14.8082 20.334 15.4041 20.334 16.0001C20.334 16.5958 19.7492 17.1929 19.4073 17.6456L17.1134 20.6864C17.0049 20.8372 16.8993 20.9391 16.7998 21.0217V24.5235C16.7998 27.344 18.0001 28.0447 19.4663 26.0973L24.4078 19.5473C25.1411 18.5657 26.3998 17.2808 26.3998 15.9985C26.3998 14.7148 25.1411 13.4327 24.4078 12.4572Z" fill="#242B57"/>
</svg>
