<svg width="20" height="20" viewBox="0 0 20 20" fill="none" xmlns="http://www.w3.org/2000/svg">
<g clip-path="url(#clip0_3760_11995)">
<path d="M9.16797 3.33417H3.33464C2.89261 3.33417 2.46868 3.50977 2.15612 3.82233C1.84356 4.13489 1.66797 4.55881 1.66797 5.00084V16.6675C1.66797 17.1095 1.84356 17.5335 2.15612 17.846C2.46868 18.1586 2.89261 18.3342 3.33464 18.3342H15.0013C15.4433 18.3342 15.8673 18.1586 16.1798 17.846C16.4924 17.5335 16.668 17.1095 16.668 16.6675V10.8342M15.418 2.08417C15.7495 1.75265 16.1991 1.56641 16.668 1.56641C17.1368 1.56641 17.5864 1.75265 17.918 2.08417C18.2495 2.41569 18.4357 2.86533 18.4357 3.33417C18.4357 3.80301 18.2495 4.25265 17.918 4.58417L10.0013 12.5008L6.66797 13.3342L7.5013 10.0008L15.418 2.08417Z" stroke="#344054" stroke-width="2" stroke-linecap="round" stroke-linejoin="round"/>
</g>
<defs>
<clipPath id="clip0_3760_11995">
<rect width="20" height="20" fill="white"/>
</clipPath>
</defs>
</svg>
