<svg width="126" height="40" viewBox="0 0 126 40" fill="none" xmlns="http://www.w3.org/2000/svg">
<path d="M0.55958 34.3257C0.559143 34.2508 0.57382 34.1766 0.602733 34.1075C0.631645 34.0384 0.674199 33.9759 0.727848 33.9236C0.781497 33.8714 0.845138 33.8304 0.914963 33.8034C0.984789 33.7763 1.05936 33.7635 1.13422 33.7659H2.63896C3.85342 33.7659 4.58802 34.4857 4.58802 35.5254C4.58802 36.7102 3.67273 37.3026 2.53233 37.3026H1.67925V38.3127C1.67925 38.4612 1.62027 38.6036 1.51528 38.7086C1.41029 38.8136 1.26789 38.8725 1.11941 38.8725C0.970937 38.8725 0.828541 38.8136 0.723551 38.7086C0.618562 38.6036 0.55958 38.4612 0.55958 38.3127V34.3257ZM2.56787 36.334C3.12771 36.334 3.4565 35.9993 3.4565 35.5639V35.5491C3.4565 35.0455 3.10994 34.776 2.5501 34.776H1.67925V36.334H2.56787Z" fill="white"/>
<path d="M5.13269 38.1376L6.90994 34.1299C6.96105 33.9981 7.05106 33.8851 7.16799 33.8057C7.28492 33.7263 7.42324 33.6844 7.56456 33.6856H7.62973C7.77032 33.6844 7.9079 33.7263 8.0239 33.8058C8.1399 33.8852 8.22874 33.9984 8.27842 34.1299L10.0557 38.1376C10.0911 38.2076 10.1113 38.2843 10.1149 38.3627C10.1157 38.4332 10.1025 38.5032 10.076 38.5686C10.0496 38.6339 10.0105 38.6934 9.96086 38.7436C9.91128 38.7937 9.85223 38.8335 9.78716 38.8607C9.72208 38.8878 9.65226 38.9018 9.58174 38.9018C9.46306 38.9012 9.34756 38.8634 9.25142 38.7938C9.15527 38.7242 9.08331 38.6263 9.0456 38.5138L8.702 37.714H6.46563L6.11018 38.5523C6.06813 38.6584 5.99435 38.7489 5.89892 38.8114C5.80348 38.874 5.69105 38.9056 5.577 38.9018C5.50856 38.9018 5.44081 38.8882 5.37769 38.8617C5.31457 38.8353 5.25736 38.7965 5.20938 38.7477C5.1614 38.6989 5.12363 38.641 5.09825 38.5775C5.07288 38.5139 5.06042 38.4459 5.0616 38.3775C5.06794 38.2934 5.09218 38.2116 5.13269 38.1376ZM8.28139 36.7247L7.57641 35.0452L6.87143 36.7247H8.28139Z" fill="white"/>
<path d="M12.3154 36.8939L10.6744 34.6605C10.5857 34.5459 10.5369 34.4055 10.5352 34.2606C10.5359 34.1883 10.5511 34.1168 10.5797 34.0504C10.6084 33.984 10.65 33.9239 10.7021 33.8738C10.7542 33.8236 10.8158 33.7843 10.8832 33.7581C10.9507 33.732 11.0227 33.7195 11.095 33.7215C11.2094 33.7248 11.321 33.7583 11.4182 33.8187C11.5155 33.879 11.5951 33.9641 11.6489 34.0651L12.8841 35.8424L14.143 34.0473C14.1955 33.9497 14.2726 33.8675 14.3666 33.8088C14.4606 33.7501 14.5683 33.7169 14.6791 33.7126C14.7521 33.7088 14.8251 33.7203 14.8933 33.7465C14.9615 33.7727 15.0235 33.8129 15.0751 33.8646C15.1268 33.9163 15.167 33.9782 15.1932 34.0465C15.2194 34.1147 15.2309 34.1876 15.2271 34.2606C15.2198 34.4041 15.168 34.5418 15.079 34.6546L13.438 36.8732V38.3542C13.4436 38.4314 13.4333 38.5088 13.4076 38.5818C13.3819 38.6548 13.3415 38.7216 13.2888 38.7783C13.2361 38.8349 13.1724 38.8801 13.1015 38.911C13.0305 38.9419 12.954 38.9578 12.8767 38.9578C12.7993 38.9578 12.7228 38.9419 12.6519 38.911C12.581 38.8801 12.5172 38.8349 12.4646 38.7783C12.4119 38.7216 12.3715 38.6548 12.3458 38.5818C12.3201 38.5088 12.3098 38.4314 12.3154 38.3542V36.8939Z" fill="white"/>
<path d="M15.9883 34.2964C15.9875 34.1497 16.0446 34.0087 16.1472 33.9038C16.2498 33.799 16.3896 33.7389 16.5363 33.7366H16.6607C16.7641 33.7372 16.8655 33.7649 16.9549 33.8168C17.0442 33.8688 17.1185 33.9433 17.1702 34.0328L18.5209 36.2336L19.8805 34.0239C19.9285 33.9325 20.001 33.8564 20.09 33.804C20.179 33.7517 20.2808 33.7252 20.384 33.7277H20.5055C20.5793 33.7269 20.6526 33.7408 20.7211 33.7686C20.7895 33.7965 20.8517 33.8376 20.9041 33.8897C20.9565 33.9418 20.998 34.0038 21.0262 34.0721C21.0544 34.1404 21.0687 34.2136 21.0683 34.2875V38.3308C21.0683 38.4785 21.0096 38.6201 20.9052 38.7245C20.8007 38.829 20.6591 38.8876 20.5114 38.8876C20.3637 38.8876 20.2221 38.829 20.1176 38.7245C20.0132 38.6201 19.9545 38.4785 19.9545 38.3308V35.7952L18.9711 37.3059C18.9276 37.3918 18.8611 37.464 18.779 37.5145C18.6969 37.5649 18.6024 37.5916 18.5061 37.5916C18.4097 37.5916 18.3153 37.5649 18.2332 37.5145C18.1511 37.464 18.0846 37.3918 18.041 37.3059L17.0754 35.8249V38.3545C17.0746 38.4981 17.0179 38.6357 16.9172 38.738C16.8165 38.8404 16.6798 38.8994 16.5363 38.9025C16.4643 38.9029 16.393 38.8889 16.3265 38.8615C16.26 38.8341 16.1997 38.7937 16.1489 38.7427C16.0982 38.6917 16.0582 38.6311 16.0311 38.5644C16.004 38.4978 15.9905 38.4264 15.9913 38.3545L15.9883 34.2964Z" fill="white"/>
<path d="M22.3008 38.2976V34.3255C22.3004 34.2518 22.3146 34.1789 22.3426 34.1108C22.3706 34.0427 22.4118 33.9808 22.4639 33.9287C22.5159 33.8767 22.5778 33.8354 22.6459 33.8074C22.714 33.7795 22.787 33.7652 22.8606 33.7656H25.6805C25.8141 33.7656 25.9422 33.8187 26.0366 33.9131C26.131 34.0076 26.1841 34.1356 26.1841 34.2692C26.1825 34.4014 26.1287 34.5277 26.0343 34.6204C25.94 34.7131 25.8128 34.7646 25.6805 34.7639H23.4116V35.7947H25.3547C25.4877 35.7954 25.6151 35.8488 25.7089 35.9432C25.8026 36.0375 25.8553 36.1652 25.8553 36.2982C25.8549 36.3634 25.8416 36.4279 25.8162 36.488C25.7908 36.548 25.7538 36.6025 25.7073 36.6482C25.6607 36.6939 25.6056 36.7299 25.5451 36.7543C25.4846 36.7786 25.4199 36.7907 25.3547 36.7899H23.4116V37.8592H25.719C25.8526 37.8592 25.9807 37.9123 26.0751 38.0067C26.1695 38.1012 26.2226 38.2292 26.2226 38.3628C26.2222 38.4284 26.2089 38.4933 26.1833 38.5537C26.1577 38.6141 26.1205 38.6689 26.0737 38.7149C26.0269 38.7608 25.9715 38.7971 25.9106 38.8216C25.8497 38.846 25.7846 38.8582 25.719 38.8575H22.8606C22.787 38.8579 22.714 38.8436 22.6459 38.8156C22.5778 38.7876 22.5159 38.7464 22.4639 38.6944C22.4118 38.6423 22.3706 38.5804 22.3426 38.5123C22.3146 38.4442 22.3004 38.3713 22.3008 38.2976Z" fill="white"/>
<path d="M27.1704 34.2958C27.17 34.2222 27.1842 34.1492 27.2122 34.0811C27.2402 34.013 27.2815 33.9511 27.3335 33.899C27.3856 33.847 27.4475 33.8058 27.5156 33.7778C27.5837 33.7498 27.6566 33.7356 27.7303 33.736H27.8458C27.9642 33.7363 28.0807 33.7667 28.1843 33.8241C28.2879 33.8816 28.3752 33.9644 28.4382 34.0647L30.5976 36.8995V34.2751C30.592 34.1991 30.6021 34.1228 30.6274 34.051C30.6526 33.9791 30.6924 33.9133 30.7443 33.8575C30.7961 33.8017 30.8589 33.7572 30.9287 33.7268C30.9985 33.6964 31.0738 33.6807 31.15 33.6807C31.2261 33.6807 31.3015 33.6964 31.3713 33.7268C31.4411 33.7572 31.5039 33.8017 31.5557 33.8575C31.6076 33.9133 31.6473 33.9791 31.6726 34.051C31.6978 34.1228 31.708 34.1991 31.7024 34.2751V38.3272C31.7028 38.4008 31.6886 38.4738 31.6606 38.5419C31.6326 38.61 31.5914 38.6719 31.5393 38.7239C31.4873 38.776 31.4254 38.8172 31.3573 38.8452C31.2892 38.8732 31.2162 38.8874 31.1426 38.887H31.107C30.9886 38.8867 30.8721 38.8563 30.7685 38.7988C30.665 38.7413 30.5776 38.6586 30.5146 38.5582L28.2753 35.6198V38.3479C28.2808 38.4239 28.2707 38.5001 28.2455 38.572C28.2202 38.6438 28.1804 38.7097 28.1286 38.7655C28.0767 38.8213 28.014 38.8658 27.9441 38.8962C27.8743 38.9266 27.799 38.9423 27.7229 38.9423C27.6467 38.9423 27.5714 38.9266 27.5016 38.8962C27.4318 38.8658 27.369 38.8213 27.3171 38.7655C27.2653 38.7097 27.2255 38.6438 27.2003 38.572C27.175 38.5001 27.1649 38.4239 27.1704 38.3479V34.2958Z" fill="white"/>
<path d="M34.0994 34.7994H33.0241C32.8938 34.7895 32.772 34.7308 32.6832 34.6349C32.5943 34.5391 32.5449 34.4132 32.5449 34.2825C32.5449 34.1518 32.5943 34.0259 32.6832 33.9301C32.772 33.8342 32.8938 33.7755 33.0241 33.7656H36.2824C36.4128 33.7755 36.5345 33.8342 36.6234 33.9301C36.7123 34.0259 36.7616 34.1518 36.7616 34.2825C36.7616 34.4132 36.7123 34.5391 36.6234 34.6349C36.5345 34.7308 36.4128 34.7895 36.2824 34.7994H35.2072V38.3539C35.2128 38.431 35.2024 38.5085 35.1768 38.5815C35.1511 38.6544 35.1107 38.7213 35.058 38.778C35.0053 38.8346 34.9415 38.8798 34.8706 38.9107C34.7997 38.9416 34.7232 38.9575 34.6459 38.9575C34.5685 38.9575 34.492 38.9416 34.4211 38.9107C34.3502 38.8798 34.2864 38.8346 34.2337 38.778C34.1811 38.7213 34.1406 38.6544 34.115 38.5815C34.0893 38.5085 34.0789 38.431 34.0846 38.3539L34.0994 34.7994Z" fill="white"/>
<path d="M37.5228 38.3183C37.4574 38.2694 37.4044 38.2059 37.3679 38.1329C37.3313 38.0599 37.3124 37.9793 37.3125 37.8977C37.3121 37.829 37.3254 37.7609 37.3517 37.6975C37.378 37.634 37.4167 37.5764 37.4655 37.5282C37.5144 37.4799 37.5724 37.4418 37.6361 37.4163C37.6999 37.3907 37.7681 37.3781 37.8368 37.3793C37.9518 37.3789 38.0639 37.4152 38.1567 37.483C38.5296 37.7734 38.9874 37.9336 39.46 37.9392C39.9162 37.9392 40.1946 37.7585 40.1946 37.4593V37.4445C40.1946 37.1631 40.0199 37.018 39.1668 36.7988C38.1419 36.5381 37.4813 36.2537 37.4813 35.2437C37.4813 34.3195 38.2219 33.7093 39.2586 33.7093C39.8288 33.7009 40.3894 33.8572 40.8729 34.1595C40.9499 34.205 41.0135 34.2701 41.0572 34.3482C41.1009 34.4262 41.1232 34.5144 41.1218 34.6039C41.1218 34.6723 41.1081 34.7401 41.0817 34.8032C41.0552 34.8663 41.0165 34.9235 40.9677 34.9715C40.9189 35.0195 40.861 35.0572 40.7974 35.0826C40.7339 35.108 40.6659 35.1204 40.5975 35.1193C40.4931 35.1214 40.3904 35.0936 40.3013 35.0393C39.9824 34.8302 39.6129 34.7115 39.2319 34.6957C38.8054 34.6957 38.5773 34.8941 38.5773 35.14C38.5773 35.4747 38.7965 35.5843 39.6763 35.8094C40.71 36.079 41.2906 36.4492 41.2906 37.3379V37.3527C41.2906 38.3627 40.5204 38.9285 39.4215 38.9285C38.7406 38.9272 38.077 38.7139 37.5228 38.3183Z" fill="white"/>
<path d="M44.4605 34.2958C44.4601 34.2222 44.4743 34.1492 44.5023 34.0811C44.5303 34.013 44.5715 33.9511 44.6236 33.899C44.6756 33.847 44.7375 33.8058 44.8056 33.7778C44.8737 33.7498 44.9467 33.7356 45.0203 33.736H45.1388C45.2573 33.736 45.3739 33.7663 45.4775 33.8238C45.5811 33.8813 45.6684 33.9642 45.7312 34.0647L47.8906 36.8995V34.2751C47.885 34.1991 47.8952 34.1228 47.9204 34.051C47.9456 33.9791 47.9854 33.9133 48.0373 33.8575C48.0891 33.8017 48.1519 33.7572 48.2217 33.7268C48.2915 33.6964 48.3668 33.6807 48.443 33.6807C48.5191 33.6807 48.5945 33.6964 48.6643 33.7268C48.7341 33.7572 48.7969 33.8017 48.8487 33.8575C48.9006 33.9133 48.9403 33.9791 48.9656 34.051C48.9908 34.1228 49.001 34.1991 48.9954 34.2751V38.3272C48.9958 38.4008 48.9816 38.4738 48.9536 38.5419C48.9256 38.61 48.8844 38.6719 48.8323 38.7239C48.7803 38.776 48.7184 38.8172 48.6503 38.8452C48.5822 38.8732 48.5092 38.8874 48.4356 38.887H48.4C48.2814 38.8875 48.1646 38.8575 48.0609 38.7999C47.9572 38.7424 47.87 38.6591 47.8076 38.5582L45.5653 35.6198V38.3479C45.5709 38.4239 45.5607 38.5001 45.5355 38.572C45.5103 38.6438 45.4705 38.7097 45.4186 38.7655C45.3668 38.8213 45.304 38.8658 45.2342 38.8962C45.1644 38.9266 45.089 38.9423 45.0129 38.9423C44.9367 38.9423 44.8614 38.9266 44.7916 38.8962C44.7218 38.8658 44.659 38.8213 44.6072 38.7655C44.5553 38.7097 44.5155 38.6438 44.4903 38.572C44.4651 38.5001 44.4549 38.4239 44.4605 38.3479V34.2958Z" fill="white"/>
<path d="M50.2041 38.2976V34.3255C50.2037 34.2518 50.2179 34.1789 50.2459 34.1108C50.2739 34.0427 50.3151 33.9808 50.3672 33.9287C50.4193 33.8767 50.4811 33.8354 50.5492 33.8074C50.6173 33.7795 50.6903 33.7652 50.7639 33.7656H53.5868C53.7198 33.7664 53.8472 33.8198 53.941 33.9142C54.0348 34.0085 54.0874 34.1361 54.0874 34.2692C54.087 34.3345 54.0738 34.3992 54.0484 34.4594C54.023 34.5196 53.986 34.5743 53.9396 34.6202C53.8931 34.6661 53.838 34.7025 53.7775 34.7271C53.7169 34.7518 53.6522 34.7642 53.5868 34.7639H51.3179V35.7947H53.2669C53.4005 35.7947 53.5285 35.8477 53.623 35.9421C53.7174 36.0366 53.7705 36.1647 53.7705 36.2982C53.7701 36.3637 53.7567 36.4284 53.7311 36.4887C53.7055 36.5489 53.6682 36.6035 53.6214 36.6493C53.5746 36.695 53.5191 36.731 53.4582 36.7551C53.3974 36.7793 53.3324 36.7911 53.2669 36.7899H51.3267V37.8592H53.6312C53.7648 37.8592 53.8929 37.9123 53.9873 38.0067C54.0817 38.1012 54.1348 38.2292 54.1348 38.3628C54.1344 38.4284 54.1211 38.4933 54.0955 38.5537C54.0699 38.6141 54.0327 38.6689 53.9859 38.7149C53.9391 38.7608 53.8837 38.7971 53.8228 38.8216C53.7619 38.846 53.6968 38.8582 53.6312 38.8575H50.7728C50.6985 38.859 50.6245 38.8457 50.5554 38.8182C50.4863 38.7908 50.4233 38.7497 50.3703 38.6976C50.3173 38.6454 50.2753 38.5831 50.2467 38.5144C50.2182 38.4457 50.2037 38.372 50.2041 38.2976Z" fill="white"/>
<path d="M56.2617 34.7999H55.1864C55.1153 34.8053 55.0437 34.7959 54.9764 34.7724C54.909 34.7489 54.8472 34.7117 54.7948 34.6631C54.7425 34.6146 54.7008 34.5558 54.6722 34.4904C54.6436 34.425 54.6289 34.3544 54.6289 34.283C54.6289 34.2116 54.6436 34.141 54.6722 34.0756C54.7008 34.0102 54.7425 33.9514 54.7948 33.9029C54.8472 33.8544 54.909 33.8172 54.9764 33.7936C55.0437 33.7701 55.1153 33.7607 55.1864 33.7661H58.4447C58.5159 33.7607 58.5874 33.7701 58.6548 33.7936C58.7222 33.8172 58.784 33.8544 58.8363 33.9029C58.8886 33.9514 58.9304 34.0102 58.9589 34.0756C58.9875 34.141 59.0022 34.2116 59.0022 34.283C59.0022 34.3544 58.9875 34.425 58.9589 34.4904C58.9304 34.5558 58.8886 34.6146 58.8363 34.6631C58.784 34.7117 58.7222 34.7489 58.6548 34.7724C58.5874 34.7959 58.5159 34.8053 58.4447 34.7999H57.3695V38.3544C57.3695 38.5029 57.3105 38.6453 57.2055 38.7503C57.1005 38.8553 56.9581 38.9142 56.8097 38.9142C56.6612 38.9142 56.5188 38.8553 56.4138 38.7503C56.3088 38.6453 56.2498 38.5029 56.2498 38.3544L56.2617 34.7999Z" fill="white"/>
<path d="M59.4663 34.4801C59.4425 34.4124 59.4286 34.3415 59.4248 34.2698C59.4259 34.1959 59.4418 34.123 59.4714 34.0553C59.501 33.9876 59.5438 33.9264 59.5973 33.8754C59.6508 33.8244 59.7139 33.7846 59.7829 33.7582C59.852 33.7318 59.9256 33.7195 59.9995 33.7218C60.1211 33.7214 60.2397 33.76 60.3378 33.832C60.4359 33.904 60.5084 34.0055 60.5445 34.1217L61.5605 37.2438L62.5794 34.1513C62.6119 34.0255 62.6849 33.9138 62.7871 33.8335C62.8894 33.7532 63.0152 33.7088 63.1452 33.707H63.234C63.364 33.7088 63.4899 33.7532 63.5921 33.8335C63.6943 33.9138 63.7673 34.0255 63.7998 34.1513L64.8188 37.2438L65.8288 34.1217C65.8642 34.0063 65.9357 33.9052 66.0327 33.8332C66.1297 33.7612 66.2472 33.7222 66.3679 33.7218C66.4397 33.7203 66.5111 33.733 66.5779 33.7594C66.6447 33.7858 66.7055 33.8253 66.7568 33.8755C66.8081 33.9257 66.8489 33.9857 66.8767 34.0519C66.9046 34.1181 66.9189 34.1891 66.9189 34.2609C66.9151 34.3356 66.9012 34.4093 66.8774 34.4801L65.4527 38.479C65.4168 38.6092 65.3397 38.7244 65.2329 38.8072C65.1261 38.8899 64.9953 38.9359 64.8602 38.9381H64.7447C64.6112 38.9375 64.4818 38.8918 64.3775 38.8085C64.2732 38.7252 64.2001 38.609 64.1701 38.479L63.1659 35.5643L62.1529 38.479C62.1229 38.609 62.0498 38.7252 61.9454 38.8085C61.8411 38.8918 61.7117 38.9375 61.5782 38.9381H61.4627C61.3274 38.9368 61.1961 38.8913 61.0891 38.8084C60.9821 38.7254 60.9053 38.6097 60.8703 38.479L59.4663 34.4801Z" fill="white"/>
<path d="M67.5469 36.3344V36.3196C67.5469 35.6024 67.8318 34.9145 68.339 34.4073C68.8461 33.9002 69.534 33.6152 70.2513 33.6152C70.9685 33.6152 71.6564 33.9002 72.1635 34.4073C72.6707 34.9145 72.9556 35.6024 72.9556 36.3196C72.9576 37.0369 72.6746 37.7255 72.1688 38.2341C71.663 38.7426 70.9759 39.0294 70.2587 39.0314C69.5414 39.0334 68.8528 38.7503 68.3442 38.2445C67.8356 37.7388 67.5488 37.0517 67.5469 36.3344ZM71.7856 36.3344V36.3196C71.7928 36.1124 71.7582 35.9058 71.6838 35.7122C71.6095 35.5186 71.497 35.3419 71.3531 35.1927C71.2091 35.0435 71.0366 34.9247 70.8457 34.8435C70.6549 34.7624 70.4497 34.7204 70.2424 34.7201C70.0366 34.7195 69.8328 34.7606 69.6434 34.841C69.4539 34.9214 69.2827 35.0393 69.1401 35.1877C68.9976 35.3361 68.8865 35.5119 68.8138 35.7044C68.7411 35.8969 68.7081 36.1022 68.7169 36.3078C68.7098 36.5149 68.7443 36.7214 68.8184 36.9149C68.8925 37.1085 69.0046 37.2852 69.1483 37.4346C69.2919 37.5841 69.464 37.7032 69.6545 37.7849C69.845 37.8666 70.0499 37.9092 70.2572 37.9103C70.4622 37.9112 70.6653 37.8707 70.8542 37.7912C71.0432 37.7118 71.2142 37.5949 71.3569 37.4478C71.4997 37.3006 71.6112 37.1262 71.6849 36.9348C71.7585 36.7435 71.7928 36.5393 71.7856 36.3344Z" fill="white"/>
<path d="M73.9512 34.3255C73.9508 34.2518 73.965 34.1789 73.993 34.1108C74.021 34.0427 74.0622 33.9808 74.1143 33.9287C74.1663 33.8767 74.2282 33.8354 74.2963 33.8074C74.3644 33.7794 74.4374 33.7652 74.511 33.7656H76.2883C76.5572 33.7489 76.8268 33.7861 77.0812 33.8751C77.3355 33.9642 77.5695 34.1032 77.7693 34.284C77.9166 34.4382 78.0313 34.6205 78.1067 34.8199C78.182 35.0194 78.2163 35.2321 78.2077 35.4451C78.2267 35.7785 78.1379 36.1092 77.9544 36.3882C77.7709 36.6672 77.5024 36.8797 77.1887 36.9943L77.9678 37.9392C78.0789 38.0552 78.1432 38.2082 78.1485 38.3687C78.1481 38.4377 78.134 38.5059 78.1071 38.5694C78.0802 38.6329 78.0409 38.6904 77.9916 38.7386C77.9423 38.7868 77.8839 38.8248 77.8198 38.8502C77.7557 38.8757 77.6872 38.8882 77.6182 38.8871C77.5088 38.8865 77.4011 38.8592 77.3046 38.8076C77.208 38.756 77.1256 38.6816 77.0643 38.5909L75.9654 37.2224H75.0768V38.3332C75.0768 38.4816 75.0178 38.624 74.9128 38.729C74.8078 38.834 74.6654 38.893 74.5169 38.893C74.3685 38.893 74.2261 38.834 74.1211 38.729C74.0161 38.624 73.9571 38.4816 73.9571 38.3332L73.9512 34.3255ZM76.2053 36.239C76.7504 36.239 77.0643 35.9428 77.0643 35.5192C77.0643 35.0393 76.7296 34.7905 76.1757 34.7905H75.062V36.2538L76.2053 36.239Z" fill="white"/>
<path d="M79.209 34.2846C79.209 34.211 79.2235 34.1382 79.2516 34.0703C79.2797 34.0024 79.321 33.9407 79.373 33.8887C79.4249 33.8367 79.4867 33.7955 79.5546 33.7673C79.6225 33.7392 79.6953 33.7247 79.7688 33.7247C79.8423 33.7247 79.9151 33.7392 79.9831 33.7673C80.051 33.7955 80.1127 33.8367 80.1647 33.8887C80.2167 33.9407 80.2579 34.0024 80.286 34.0703C80.3142 34.1382 80.3287 34.211 80.3287 34.2846V35.9907L82.4021 33.941C82.4608 33.8726 82.5334 33.8176 82.6152 33.7798C82.697 33.7419 82.786 33.7222 82.8761 33.7218C82.9443 33.7205 83.0121 33.7331 83.0754 33.7588C83.1387 33.7845 83.1961 33.8226 83.2443 33.8711C83.2924 33.9195 83.3303 33.9771 83.3556 34.0406C83.3809 34.104 83.3931 34.1719 83.3915 34.2401C83.3901 34.3209 83.3711 34.4004 83.3358 34.4731C83.3005 34.5457 83.2498 34.6098 83.1871 34.6607L81.7534 35.9996L83.3174 37.9635C83.4148 38.0706 83.4696 38.2097 83.4714 38.3545C83.4723 38.4284 83.4581 38.5018 83.4295 38.5701C83.401 38.6384 83.3588 38.7001 83.3055 38.7514C83.2522 38.8027 83.189 38.8426 83.1197 38.8686C83.0505 38.8946 82.9766 38.9061 82.9027 38.9024C82.8079 38.9006 82.7151 38.8749 82.6328 38.8278C82.5505 38.7807 82.4814 38.7137 82.4317 38.6329L80.9774 36.7253L80.3375 37.3177V38.3337C80.3375 38.4822 80.2786 38.6246 80.1736 38.7296C80.0686 38.8346 79.9262 38.8936 79.7777 38.8936C79.6292 38.8936 79.4868 38.8346 79.3818 38.7296C79.2769 38.6246 79.2179 38.4822 79.2179 38.3337L79.209 34.2846Z" fill="white"/>
<path d="M86.5664 34.2965C86.566 34.2229 86.5802 34.1499 86.6082 34.0818C86.6362 34.0137 86.6774 33.9518 86.7295 33.8998C86.7816 33.8477 86.8434 33.8065 86.9115 33.7785C86.9796 33.7505 87.0526 33.7363 87.1262 33.7367H87.2507C87.354 33.7354 87.4558 33.7622 87.5451 33.8144C87.6343 33.8666 87.7076 33.9421 87.7572 34.0329L89.1108 36.2337L90.4704 34.024C90.5179 33.9322 90.5903 33.8556 90.6795 33.8032C90.7686 33.7508 90.8707 33.7246 90.974 33.7278H91.0954C91.1691 33.7274 91.242 33.7416 91.3101 33.7696C91.3782 33.7976 91.4401 33.8388 91.4922 33.8909C91.5442 33.943 91.5855 34.0048 91.6135 34.0729C91.6415 34.141 91.6557 34.214 91.6553 34.2876V38.3309C91.6609 38.4072 91.6506 38.4839 91.6252 38.5561C91.5999 38.6283 91.5599 38.6945 91.5077 38.7506C91.4556 38.8067 91.3925 38.8514 91.3223 38.882C91.2522 38.9126 91.1764 38.9283 91.0999 38.9283C91.0233 38.9283 90.9476 38.9126 90.8774 38.882C90.8073 38.8514 90.7441 38.8067 90.692 38.7506C90.6399 38.6945 90.5999 38.6283 90.5745 38.5561C90.5491 38.4839 90.5389 38.4072 90.5445 38.3309V35.7953L89.5611 37.306C89.5175 37.3919 89.451 37.4641 89.3689 37.5146C89.2868 37.565 89.1924 37.5917 89.096 37.5917C88.9997 37.5917 88.9052 37.565 88.8231 37.5146C88.741 37.4641 88.6745 37.3919 88.631 37.306L87.6624 35.825V38.3546C87.6624 38.4265 87.6482 38.4978 87.6207 38.5643C87.5931 38.6308 87.5528 38.6912 87.5019 38.7421C87.451 38.7929 87.3906 38.8333 87.3241 38.8608C87.2576 38.8884 87.1864 38.9026 87.1144 38.9026C87.0424 38.9026 86.9712 38.8884 86.9047 38.8608C86.8382 38.8333 86.7778 38.7929 86.7269 38.7421C86.676 38.6912 86.6357 38.6308 86.6081 38.5643C86.5806 38.4978 86.5664 38.4265 86.5664 38.3546V34.2965Z" fill="white"/>
<path d="M92.5945 38.1376L94.3717 34.1299C94.4221 33.9977 94.5119 33.8841 94.629 33.8047C94.7461 33.7252 94.8848 33.6836 95.0263 33.6856H95.0915C95.2317 33.6846 95.3688 33.7267 95.4843 33.8061C95.5998 33.8856 95.6881 33.9986 95.7372 34.1299L97.5145 38.1376C97.55 38.2076 97.5701 38.2844 97.5737 38.3628C97.5745 38.433 97.5614 38.5027 97.5351 38.5679C97.5089 38.6331 97.47 38.6924 97.4207 38.7425C97.3715 38.7926 97.3128 38.8325 97.248 38.8598C97.1833 38.8872 97.1138 38.9015 97.0435 38.9018C96.9243 38.9018 96.8082 38.8643 96.7114 38.7947C96.6147 38.7251 96.5423 38.6268 96.5044 38.5138L96.1638 37.7141H93.9215L93.566 38.5523C93.5251 38.6555 93.454 38.744 93.3621 38.8064C93.2702 38.8687 93.1617 38.902 93.0506 38.9018C92.9821 38.9019 92.9142 38.8882 92.8509 38.8618C92.7876 38.8354 92.7302 38.7967 92.682 38.7479C92.6338 38.6992 92.5957 38.6413 92.57 38.5777C92.5443 38.5142 92.5315 38.4461 92.5323 38.3776C92.535 38.294 92.5562 38.212 92.5945 38.1376ZM95.7432 36.7247L95.0323 35.0452L94.3243 36.7247H95.7432Z" fill="white"/>
<path d="M98.4473 34.2844C98.4473 34.2109 98.4617 34.1381 98.4899 34.0702C98.518 34.0023 98.5592 33.9406 98.6112 33.8886C98.6632 33.8366 98.7249 33.7954 98.7929 33.7672C98.8608 33.7391 98.9336 33.7246 99.0071 33.7246C99.0806 33.7246 99.1534 33.7391 99.2213 33.7672C99.2893 33.7954 99.351 33.8366 99.403 33.8886C99.455 33.9406 99.4962 34.0023 99.5243 34.0702C99.5525 34.1381 99.5669 34.2109 99.5669 34.2844V37.8389H101.64C101.776 37.8389 101.905 37.8926 102.001 37.9882C102.096 38.0837 102.15 38.2133 102.15 38.3484C102.15 38.4835 102.096 38.6131 102.001 38.7087C101.905 38.8042 101.776 38.8579 101.64 38.8579H99.0101C98.9364 38.8583 98.8635 38.8441 98.7954 38.8161C98.7273 38.7881 98.6654 38.7469 98.6133 38.6948C98.5613 38.6427 98.52 38.5809 98.492 38.5128C98.464 38.4447 98.4498 38.3717 98.4502 38.2981L98.4473 34.2844Z" fill="white"/>
<path d="M102.663 38.1376L104.44 34.1299C104.491 33.9981 104.581 33.8851 104.698 33.8057C104.815 33.7263 104.953 33.6844 105.095 33.6856H105.16C105.3 33.6844 105.438 33.7263 105.554 33.8058C105.67 33.8852 105.759 33.9984 105.809 34.1299L107.586 38.1376C107.621 38.2076 107.641 38.2843 107.645 38.3627C107.646 38.4332 107.633 38.5032 107.606 38.5686C107.58 38.6339 107.541 38.6934 107.491 38.7436C107.441 38.7937 107.382 38.8335 107.317 38.8607C107.252 38.8878 107.182 38.9018 107.112 38.9018C106.993 38.9012 106.878 38.8634 106.782 38.7938C106.685 38.7242 106.613 38.6263 106.576 38.5138L106.232 37.714H103.993L103.637 38.5523C103.596 38.656 103.525 38.7448 103.432 38.8072C103.34 38.8695 103.231 38.9025 103.119 38.9018C103.051 38.9018 102.983 38.8882 102.92 38.8617C102.857 38.8353 102.799 38.7965 102.751 38.7477C102.703 38.6989 102.666 38.641 102.64 38.5775C102.615 38.5139 102.602 38.4459 102.604 38.3775C102.606 38.2943 102.626 38.2125 102.663 38.1376ZM105.812 36.7247L105.104 35.0452L104.399 36.7247H105.812Z" fill="white"/>
<path d="M109.843 36.8939L108.202 34.6605C108.113 34.5463 108.065 34.4054 108.065 34.2606C108.066 34.1883 108.081 34.1168 108.11 34.0504C108.139 33.984 108.18 33.9239 108.232 33.8738C108.284 33.8236 108.346 33.7843 108.414 33.7581C108.481 33.732 108.553 33.7196 108.625 33.7215C108.74 33.7248 108.851 33.7584 108.949 33.8187C109.046 33.879 109.125 33.9641 109.179 34.0651L110.414 35.8424L111.673 34.0474C111.726 33.9497 111.803 33.8675 111.897 33.8088C111.991 33.7501 112.099 33.7169 112.209 33.7126C112.282 33.7088 112.355 33.7203 112.422 33.7463C112.49 33.7723 112.552 33.8123 112.603 33.8637C112.655 33.9151 112.695 33.9768 112.721 34.0446C112.747 34.1125 112.758 34.1851 112.754 34.2577C112.748 34.4009 112.697 34.5386 112.609 34.6516L110.965 36.8702V38.3513C110.965 38.4997 110.906 38.6421 110.801 38.7471C110.696 38.8521 110.554 38.9111 110.405 38.9111C110.257 38.9111 110.115 38.8521 110.01 38.7471C109.905 38.6421 109.846 38.4997 109.846 38.3513L109.843 36.8939Z" fill="white"/>
<path d="M113.414 38.3183C113.349 38.2694 113.296 38.2059 113.259 38.1329C113.223 38.0599 113.204 37.9793 113.204 37.8977C113.204 37.829 113.217 37.7609 113.243 37.6975C113.27 37.634 113.308 37.5764 113.357 37.5282C113.406 37.4799 113.464 37.4418 113.528 37.4163C113.592 37.3907 113.66 37.3781 113.728 37.3793C113.843 37.3789 113.955 37.4152 114.048 37.483C114.421 37.7734 114.879 37.9336 115.352 37.9392C115.808 37.9392 116.083 37.7585 116.083 37.4593V37.4445C116.083 37.1631 115.911 37.018 115.058 36.7988C114.033 36.5381 113.373 36.2537 113.373 35.2437C113.373 34.3195 114.113 33.7093 115.15 33.7093C115.72 33.7009 116.281 33.8572 116.765 34.1595C116.842 34.205 116.905 34.2701 116.949 34.3482C116.993 34.4262 117.015 34.5144 117.013 34.6039C117.013 34.6723 117 34.7401 116.973 34.8032C116.947 34.8663 116.908 34.9235 116.859 34.9715C116.81 35.0195 116.753 35.0572 116.689 35.0826C116.625 35.108 116.557 35.1204 116.489 35.1193C116.385 35.1214 116.282 35.0936 116.193 35.0393C115.874 34.8302 115.504 34.7115 115.124 34.6957C114.694 34.6957 114.469 34.8941 114.469 35.14C114.469 35.4747 114.688 35.5843 115.568 35.8094C116.602 36.079 117.182 36.4492 117.182 37.3379V37.3527C117.182 38.3627 116.412 38.9285 115.313 38.9285C114.632 38.9272 113.969 38.7139 113.414 38.3183Z" fill="white"/>
<path d="M118.223 34.2844C118.223 34.2109 118.237 34.1381 118.265 34.0702C118.293 34.0023 118.335 33.9406 118.387 33.8886C118.439 33.8366 118.5 33.7954 118.568 33.7672C118.636 33.7391 118.709 33.7246 118.782 33.7246C118.856 33.7246 118.929 33.7391 118.997 33.7672C119.065 33.7954 119.126 33.8366 119.178 33.8886C119.23 33.9406 119.272 34.0023 119.3 34.0702C119.328 34.1381 119.342 34.2109 119.342 34.2844V38.3395C119.342 38.4131 119.328 38.4859 119.3 38.5538C119.272 38.6217 119.23 38.6834 119.178 38.7354C119.126 38.7874 119.065 38.8286 118.997 38.8568C118.929 38.8849 118.856 38.8994 118.782 38.8994C118.709 38.8994 118.636 38.8849 118.568 38.8568C118.5 38.8286 118.439 38.7874 118.387 38.7354C118.335 38.6834 118.293 38.6217 118.265 38.5538C118.237 38.4859 118.223 38.4131 118.223 38.3395V34.2844Z" fill="white"/>
<path d="M120.331 38.1376L122.108 34.1299C122.159 33.9981 122.249 33.8851 122.366 33.8057C122.483 33.7263 122.621 33.6844 122.763 33.6856H122.828C122.968 33.6841 123.105 33.7261 123.221 33.8056C123.337 33.8851 123.425 33.9984 123.474 34.1299L125.251 38.1376C125.288 38.2071 125.308 38.2841 125.31 38.3627C125.311 38.4331 125.298 38.503 125.272 38.5683C125.246 38.6337 125.207 38.6932 125.158 38.7434C125.109 38.7936 125.05 38.8334 124.985 38.8606C124.92 38.8878 124.85 38.9018 124.78 38.9018C124.661 38.9013 124.545 38.8637 124.448 38.7941C124.352 38.7246 124.279 38.6266 124.241 38.5138L123.9 37.714H121.661L121.302 38.5523C121.262 38.6557 121.191 38.7445 121.099 38.8069C121.007 38.8692 120.898 38.9023 120.787 38.9018C120.719 38.9018 120.651 38.8882 120.588 38.8618C120.525 38.8353 120.467 38.7965 120.419 38.7477C120.371 38.6989 120.334 38.6411 120.308 38.5775C120.283 38.5139 120.27 38.446 120.272 38.3775C120.274 38.2943 120.294 38.2125 120.331 38.1376ZM123.468 36.7247L122.763 35.0452L122.058 36.7247H123.468Z" fill="white"/>
<path d="M11.8806 28.6832C12.0863 28.6832 12.2899 28.6427 12.4798 28.5639C12.6698 28.4851 12.8423 28.3696 12.9876 28.2241C13.1329 28.0786 13.248 27.9058 13.3264 27.7157C13.4049 27.5256 13.445 27.3219 13.4446 27.1163V19.2312V19.1809L10.293 17.377C10.293 17.377 10.293 18.0582 10.293 18.2863C10.3107 20.496 10.293 27.1281 10.293 27.1281C10.293 27.3338 10.3335 27.5374 10.4123 27.7273C10.4911 27.9173 10.6066 28.0898 10.7521 28.2351C10.8976 28.3804 11.0704 28.4955 11.2605 28.5739C11.4506 28.6523 11.6543 28.6925 11.8599 28.6921L11.8806 28.6832Z" fill="white"/>
<path d="M2.86916 23.4966C2.97163 23.675 3.10835 23.8314 3.27147 23.9567C3.43458 24.0821 3.62086 24.174 3.81961 24.2271C4.01835 24.2802 4.22564 24.2936 4.42955 24.2663C4.63346 24.2391 4.82997 24.1718 5.00778 24.0683L12.6559 19.6252L13.4349 19.1749L10.2921 17.377L9.99593 17.5399C8.35494 18.5025 3.42603 21.3669 3.42603 21.3669C3.24764 21.4694 3.09127 21.6061 2.96591 21.7692C2.84054 21.9323 2.74866 22.1186 2.69553 22.3173C2.6424 22.5161 2.62908 22.7234 2.65634 22.9273C2.68359 23.1312 2.75089 23.3277 2.85435 23.5055L2.86916 23.4966Z" fill="white"/>
<path d="M25.0202 23.5354C25.1231 23.3573 25.1899 23.1606 25.2168 22.9567C25.2436 22.7528 25.2299 22.5455 25.1765 22.3469C25.1232 22.1482 25.0311 21.962 24.9057 21.799C24.7802 21.636 24.6239 21.4993 24.4455 21.3968L17.609 17.4661L17.5617 17.4424L14.4248 19.2611C14.4248 19.2611 15.0172 19.5958 15.2186 19.7054C17.1292 20.7955 22.8845 24.113 22.8845 24.113C23.0627 24.2154 23.2592 24.2816 23.463 24.308C23.6667 24.3343 23.8737 24.3203 24.072 24.2667C24.2704 24.213 24.4562 24.1208 24.6189 23.9954C24.7815 23.8699 24.9179 23.7136 25.0202 23.5354Z" fill="white"/>
<path d="M16.0273 28.7515C16.2329 28.7511 16.4365 28.7102 16.6263 28.6311C16.8161 28.5519 16.9884 28.4361 17.1334 28.2903C17.2784 28.1445 17.3932 27.9715 17.4712 27.7813C17.5493 27.591 17.5891 27.3873 17.5883 27.1816L17.5617 18.3398V17.4512L14.4248 19.261V19.5868C14.4396 21.4855 14.4544 27.1905 14.4544 27.1905C14.4568 27.6058 14.6236 28.0033 14.9184 28.2959C15.2132 28.5885 15.612 28.7523 16.0273 28.7515Z" fill="white"/>
<path d="M27.0907 9.56294C26.988 9.38446 26.851 9.22802 26.6876 9.10262C26.5242 8.97722 26.3377 8.88533 26.1387 8.83221C25.9397 8.77909 25.7322 8.7658 25.528 8.79309C25.3239 8.82039 25.1272 8.88773 24.9491 8.99126L18.1245 12.9338L18.083 12.9634V16.589L18.862 16.124C20.7726 15.0073 26.519 11.7016 26.519 11.7016C26.6971 11.5988 26.8532 11.4619 26.9783 11.2988C27.1035 11.1357 27.1952 10.9494 27.2483 10.7508C27.3014 10.5522 27.3148 10.345 27.2878 10.1412C27.2607 9.93735 27.1938 9.74086 27.0907 9.56294Z" fill="white"/>
<path d="M27.0966 19.9594C27.1996 19.7813 27.2664 19.5846 27.2932 19.3807C27.32 19.1767 27.3064 18.9695 27.253 18.7708C27.1996 18.5722 27.1076 18.386 26.9821 18.223C26.8567 18.0599 26.7003 17.9233 26.522 17.8207L18.8591 13.4102L18.083 12.96V16.5885L18.3614 16.7485C20.0143 17.6904 24.958 20.534 24.958 20.534C25.3181 20.7403 25.7451 20.7957 26.1459 20.688C26.5467 20.5803 26.8885 20.3184 27.0966 19.9594Z" fill="white"/>
<path d="M0.757447 19.9597C0.8602 20.1397 0.997729 20.2976 1.16204 20.424C1.32634 20.5504 1.51415 20.6429 1.71453 20.6961C1.91491 20.7493 2.12387 20.7622 2.32926 20.7339C2.53464 20.7056 2.73235 20.6367 2.91088 20.5313L9.72368 16.5888L9.76515 16.5651V12.9336L8.98316 13.3986C7.07854 14.5153 1.32913 17.821 1.32913 17.821C0.970047 18.0291 0.708185 18.3712 0.601007 18.7721C0.49383 19.1731 0.550092 19.6002 0.757447 19.9597Z" fill="white"/>
<path d="M0.75482 9.56321C0.651683 9.74136 0.584657 9.93807 0.557571 10.1421C0.530484 10.3462 0.543868 10.5536 0.596958 10.7525C0.650047 10.9513 0.741802 11.1378 0.86698 11.3012C0.992158 11.4646 1.14831 11.6018 1.3265 11.7048L8.98942 16.1153C9.73882 16.5449 9.76548 16.5656 9.76548 16.5656V12.9341L9.46927 12.7741C7.8342 11.8322 2.88752 8.99153 2.88752 8.99153C2.71006 8.88861 2.51402 8.82174 2.31064 8.79477C2.10727 8.7678 1.90058 8.78126 1.70242 8.83438C1.50427 8.8875 1.31855 8.97922 1.15594 9.1043C0.993322 9.22937 0.857009 9.38533 0.75482 9.56321Z" fill="white"/>
<path d="M15.9683 0.789242C15.7625 0.789631 15.5588 0.830546 15.3689 0.909651C15.1789 0.988757 15.0064 1.1045 14.8612 1.25028C14.7159 1.39606 14.6008 1.56902 14.5224 1.75928C14.4441 1.94954 14.4039 2.15337 14.4043 2.35915V10.2413V10.2916L17.556 12.1044C17.556 12.1044 17.556 11.4231 17.556 11.195C17.556 8.98533 17.556 2.35322 17.556 2.35322C17.556 2.14583 17.5148 1.9405 17.4347 1.74919C17.3546 1.55788 17.2373 1.3844 17.0895 1.23886C16.9418 1.09332 16.7666 0.978612 16.5741 0.901422C16.3816 0.824233 16.1757 0.7861 15.9683 0.789242Z" fill="white"/>
<path d="M24.9759 5.97557C24.8732 5.79743 24.7363 5.64134 24.573 5.51627C24.4098 5.3912 24.2235 5.29961 24.0248 5.24677C23.826 5.19392 23.6188 5.18086 23.415 5.20833C23.2112 5.2358 23.0149 5.30327 22.8373 5.40685L15.1921 9.84998C14.4427 10.2854 14.4131 10.2972 14.4131 10.2972L17.5559 12.1041L17.8521 11.9382C19.4931 10.9785 24.4249 8.11716 24.4249 8.11716C24.6029 8.0139 24.7588 7.87654 24.8836 7.71295C25.0084 7.54935 25.0997 7.36273 25.1523 7.16378C25.2048 6.96483 25.2176 6.75747 25.1899 6.55357C25.1622 6.34968 25.0945 6.15326 24.9907 5.97557H24.9759Z" fill="white"/>
<path d="M2.85175 6.01162C2.74999 6.19064 2.68459 6.388 2.6593 6.59236C2.63401 6.79672 2.64933 7.00407 2.70437 7.2025C2.75941 7.40093 2.8531 7.58653 2.98005 7.74866C3.107 7.91079 3.26473 8.04626 3.44416 8.14728L10.2658 12.0809L10.3073 12.1046L13.4501 10.2829L12.6562 9.83863C10.7339 8.75155 4.98445 5.43105 4.98445 5.43105C4.62162 5.22686 4.19273 5.17456 3.79147 5.28556C3.3902 5.39656 3.04917 5.66184 2.84286 6.02347L2.85175 6.01162Z" fill="white"/>
<path d="M11.8481 0.789133C11.6425 0.789521 11.439 0.830458 11.2492 0.909599C11.0594 0.988741 10.887 1.10453 10.7421 1.25035C10.5971 1.39617 10.4822 1.56915 10.4042 1.75939C10.3261 1.94964 10.2863 2.1534 10.2871 2.35904L10.3167 11.2068C10.3167 12.0688 10.3167 12.0954 10.3167 12.0954L13.4595 10.2737V9.9716C13.4595 8.06994 13.4269 2.36792 13.4269 2.36792C13.4289 2.16004 13.3894 1.95386 13.3108 1.76142C13.2321 1.56897 13.1159 1.39414 12.9689 1.24714C12.8219 1.10014 12.6471 0.983924 12.4546 0.905282C12.2622 0.826641 12.056 0.787155 11.8481 0.789133Z" fill="white"/>
<path d="M33.7432 7.30588C33.7432 6.75597 33.9616 6.22857 34.3505 5.83972C34.7393 5.45088 35.2667 5.23242 35.8166 5.23242H41.4446C45.9499 5.23242 48.6721 7.8983 48.6721 11.749V11.8023C48.6721 16.1714 45.2746 18.4344 41.0417 18.4344H37.896V22.1755C37.896 22.7255 37.6776 23.2529 37.2887 23.6417C36.8999 24.0306 36.3725 24.249 35.8225 24.249C35.2726 24.249 34.7452 24.0306 34.3564 23.6417C33.9675 23.2529 33.7491 22.7255 33.7491 22.1755L33.7432 7.30588ZM41.1839 14.7466C43.2574 14.7466 44.4748 13.5085 44.4748 11.8882V11.8349C44.4748 9.97472 43.1804 8.9765 41.1039 8.9765H37.896V14.7318L41.1839 14.7466Z" fill="white"/>
<path d="M49.543 19.9356V19.8823C49.543 16.7276 51.9423 15.2703 55.3664 15.2703C56.57 15.2582 57.7663 15.4588 58.9002 15.8627V15.6198C58.9002 13.9196 57.8487 12.9776 55.7989 12.9776C54.8408 12.968 53.8869 13.1049 52.9701 13.3835C52.7804 13.4538 52.58 13.4909 52.3777 13.493C52.1556 13.497 51.9349 13.4566 51.7286 13.3742C51.5223 13.2918 51.3345 13.1691 51.1761 13.0133C51.0178 12.8575 50.8922 12.6716 50.8065 12.4666C50.7209 12.2616 50.677 12.0416 50.6774 11.8195C50.6777 11.473 50.7839 11.1348 50.982 10.8504C51.18 10.5661 51.4603 10.3492 51.7853 10.2288C53.2609 9.69123 54.8242 9.43502 56.3943 9.4735C58.6336 9.4735 60.245 10.0659 61.2758 11.0908C62.354 12.172 62.8398 13.7567 62.8398 15.7028V22.2816C62.8398 22.5425 62.788 22.8008 62.6873 23.0416C62.5867 23.2823 62.4392 23.5006 62.2534 23.6839C62.0677 23.8672 61.8474 24.0117 61.6053 24.1091C61.3633 24.2065 61.1042 24.2549 60.8433 24.2513C59.6585 24.2513 58.8765 23.416 58.8765 22.5511V22.5244C57.8783 23.6323 56.5068 24.358 54.5074 24.358C51.7853 24.358 49.543 22.794 49.543 19.9356ZM58.9535 18.9936V18.265C58.1297 17.9021 57.2382 17.7183 56.338 17.7259C54.5874 17.7259 53.5062 18.4249 53.5062 19.7194V19.7756C53.5062 20.8805 54.4245 21.5262 55.7456 21.5262C57.6591 21.5233 58.9535 20.4747 58.9535 18.9936Z" fill="white"/>
<path d="M66.2081 28.1084C65.6157 27.8922 64.9137 27.4064 64.9137 26.4082C64.9086 26.1919 64.9465 25.9767 65.0253 25.7752C65.1041 25.5737 65.2222 25.3899 65.3727 25.2344C65.5232 25.079 65.7031 24.955 65.9019 24.8697C66.1008 24.7844 66.3146 24.7395 66.531 24.7376C66.7606 24.7335 66.9891 24.7696 67.2063 24.8442C67.4825 24.9464 67.7739 25.0015 68.0683 25.0071C68.797 25.0071 69.1465 24.8709 69.5256 24.1422L69.6589 23.8193L64.7241 12.3857C64.6078 12.0873 64.5398 11.7724 64.5227 11.4526C64.5188 11.1884 64.5689 10.9261 64.6699 10.6818C64.7709 10.4376 64.9207 10.2165 65.1101 10.0321C65.2994 9.84772 65.5244 9.70391 65.7713 9.60947C66.0182 9.51503 66.2817 9.47195 66.5458 9.48285C67.5707 9.48285 68.1631 10.0486 68.5156 11.0202L71.6317 19.4236L74.6471 11.0379C74.9699 10.176 75.5653 9.47397 76.6169 9.47397C76.8685 9.46926 77.1185 9.51446 77.3525 9.60695C77.5866 9.69945 77.8 9.83741 77.9804 10.0129C78.1608 10.1883 78.3046 10.3978 78.4036 10.6291C78.5026 10.8605 78.5547 11.1092 78.557 11.3608C78.5474 11.6929 78.4834 12.0211 78.3675 12.3324L73.3319 24.4414C72.1175 27.3798 70.906 28.4846 68.4504 28.4846C67.6862 28.4981 66.9261 28.3705 66.2081 28.1084Z" fill="white"/>
<path d="M81.0361 7.1815C81.0361 6.63158 81.2546 6.10419 81.6434 5.71534C82.0323 5.32649 82.5597 5.10804 83.1096 5.10804H83.5421C84.5403 5.10804 85.1327 5.59382 85.6985 6.32249L93.6961 16.8379V7.10152C93.6961 6.55789 93.912 6.03652 94.2964 5.65212C94.6809 5.26771 95.2022 5.05176 95.7459 5.05176C96.2895 5.05176 96.8109 5.26771 97.1953 5.65212C97.5797 6.03652 97.7956 6.55789 97.7956 7.10152V22.1163C97.7956 22.6662 97.5772 23.1936 97.1883 23.5825C96.7995 23.9713 96.2721 24.1898 95.7221 24.1898H95.5859C94.5877 24.1898 93.9953 23.704 93.4295 22.9753L85.1357 12.0808V22.2022C85.1357 22.7459 84.9197 23.2672 84.5353 23.6516C84.1509 24.036 83.6295 24.252 83.0859 24.252C82.5423 24.252 82.0209 24.036 81.6365 23.6516C81.2521 23.2672 81.0361 22.7459 81.0361 22.2022V7.1815Z" fill="white"/>
<path d="M108.11 24.4116C103.768 24.4116 100.56 21.3666 100.56 16.9442V16.8909C100.56 12.7647 103.498 9.36719 107.704 9.36719C112.532 9.36719 114.662 13.3305 114.662 16.3222C114.676 16.5797 114.637 16.8374 114.546 17.079C114.456 17.3206 114.316 17.5408 114.136 17.7258C113.957 17.9108 113.741 18.0567 113.502 18.1541C113.263 18.2515 113.006 18.2985 112.749 18.2919H104.629C105.035 20.1521 106.33 21.1237 108.163 21.1237C109.215 21.1318 110.239 20.79 111.075 20.1521C111.359 19.9299 111.713 19.8155 112.073 19.8293C112.285 19.826 112.496 19.8657 112.692 19.9462C112.888 20.0266 113.066 20.1461 113.215 20.2973C113.364 20.4485 113.48 20.6283 113.557 20.8259C113.634 21.0234 113.671 21.2346 113.664 21.4466C113.665 21.6757 113.618 21.9025 113.525 22.112C113.432 22.3214 113.296 22.5086 113.125 22.661C111.723 23.8377 109.939 24.4605 108.11 24.4116ZM110.752 15.7297C110.509 13.8962 109.431 12.6551 107.704 12.6551C105.977 12.6551 104.899 13.8696 104.576 15.7297H110.752Z" fill="white"/>
<path d="M117.816 19.9921V13.1408H117.68C117.444 13.1505 117.208 13.1124 116.987 13.0287C116.766 12.9451 116.564 12.8176 116.394 12.6539C116.223 12.4903 116.088 12.2938 115.995 12.0764C115.902 11.859 115.854 11.6251 115.854 11.3888C115.854 11.1524 115.902 10.9185 115.995 10.7011C116.088 10.4837 116.223 10.2872 116.394 10.1236C116.564 9.95994 116.766 9.83245 116.987 9.74878C117.208 9.6651 117.444 9.62698 117.68 9.63669H117.816V7.82982C117.806 7.55428 117.851 7.27946 117.949 7.02181C118.048 6.76416 118.197 6.52897 118.388 6.33032C118.579 6.13167 118.809 5.97365 119.062 5.86572C119.316 5.75778 119.589 5.70215 119.865 5.70215C120.14 5.70215 120.413 5.75778 120.667 5.86572C120.921 5.97365 121.15 6.13167 121.341 6.33032C121.533 6.52897 121.682 6.76416 121.78 7.02181C121.878 7.27946 121.923 7.55428 121.913 7.82982V9.63669H123.72C123.956 9.62698 124.192 9.6651 124.413 9.74878C124.634 9.83245 124.836 9.95994 125.006 10.1236C125.177 10.2872 125.312 10.4837 125.405 10.7011C125.498 10.9185 125.545 11.1524 125.545 11.3888C125.545 11.6251 125.498 11.859 125.405 12.0764C125.312 12.2938 125.177 12.4903 125.006 12.6539C124.836 12.8176 124.634 12.9451 124.413 13.0287C124.192 13.1124 123.956 13.1505 123.72 13.1408H121.913V19.3168C121.913 20.2617 122.319 20.7178 123.234 20.7178C123.37 20.7178 123.64 20.6912 123.72 20.6912C124.17 20.6935 124.601 20.8734 124.919 21.1918C125.238 21.5101 125.418 21.9412 125.42 22.3914C125.416 22.7245 125.313 23.0488 125.123 23.3227C124.934 23.5967 124.667 23.8077 124.357 23.9288C123.609 24.2168 122.812 24.3537 122.011 24.3316C119.514 24.3316 117.816 23.3334 117.816 19.9921Z" fill="white"/>
</svg>
