<svg width="125" height="39" viewBox="0 0 125 39" fill="none" xmlns="http://www.w3.org/2000/svg">
<g clip-path="url(#clip0_5_39106)">
<path d="M0.0590915 33.5367C0.0586549 33.4618 0.073332 33.3876 0.102245 33.3185C0.131157 33.2494 0.173711 33.1868 0.22736 33.1346C0.281009 33.0823 0.34465 33.0414 0.414475 33.0143C0.4843 32.9872 0.558875 32.9745 0.633736 32.9768H2.13848C3.35293 32.9768 4.08753 33.6966 4.08753 34.7363C4.08753 35.9212 3.17224 36.5136 2.03184 36.5136H1.17876V37.5236C1.17876 37.6721 1.11978 37.8145 1.01479 37.9195C0.909799 38.0245 0.767403 38.0835 0.618926 38.0835C0.470448 38.0835 0.328052 38.0245 0.223063 37.9195C0.118074 37.8145 0.0590915 37.6721 0.0590915 37.5236V33.5367ZM2.06739 35.545C2.62722 35.545 2.95601 35.2103 2.95601 34.7748V34.76C2.95601 34.2565 2.60945 33.9869 2.04961 33.9869H1.17876V35.545H2.06739Z" fill="white"/>
<path d="M4.63269 37.349L6.40994 33.3413C6.46105 33.2096 6.55106 33.0965 6.66799 33.0171C6.78492 32.9377 6.92324 32.8959 7.06456 32.897H7.12973C7.27032 32.8958 7.4079 32.9378 7.5239 33.0172C7.6399 33.0967 7.72874 33.2098 7.77842 33.3413L9.55568 37.349C9.59115 37.419 9.61134 37.4957 9.61492 37.5741C9.6157 37.6446 9.60249 37.7146 9.57605 37.78C9.5496 37.8454 9.51045 37.9048 9.46086 37.955C9.41128 38.0051 9.35223 38.0449 9.28716 38.0721C9.22208 38.0993 9.15226 38.1132 9.08174 38.1132C8.96306 38.1126 8.84756 38.0748 8.75142 38.0052C8.65527 37.9356 8.58331 37.8377 8.5456 37.7252L8.202 36.9254H5.96563L5.61018 37.7637C5.56813 37.8698 5.49435 37.9603 5.39892 38.0229C5.30348 38.0854 5.19105 38.117 5.077 38.1132C5.00856 38.1132 4.94081 38.0996 4.87769 38.0732C4.81457 38.0467 4.75736 38.008 4.70938 37.9591C4.6614 37.9103 4.62363 37.8525 4.59825 37.7889C4.57288 37.7253 4.56042 37.6574 4.5616 37.5889C4.56794 37.5048 4.59218 37.423 4.63269 37.349ZM7.78139 35.9361L7.07641 34.2566L6.37143 35.9361H7.78139Z" fill="white"/>
<path d="M11.8159 36.1049L10.1749 33.8714C10.0862 33.7568 10.0373 33.6164 10.0356 33.4716C10.0364 33.3992 10.0516 33.3278 10.0802 33.2613C10.1089 33.1949 10.1505 33.1349 10.2026 33.0847C10.2547 33.0345 10.3163 32.9952 10.3837 32.9691C10.4512 32.9429 10.5232 32.9305 10.5955 32.9325C10.7099 32.9358 10.8214 32.9693 10.9187 33.0296C11.016 33.09 11.0956 33.175 11.1494 33.2761L12.3846 35.0533L13.6435 33.2583C13.696 33.1607 13.773 33.0784 13.8671 33.0197C13.9611 32.961 14.0688 32.9279 14.1796 32.9236C14.2526 32.9197 14.3255 32.9313 14.3938 32.9575C14.462 32.9836 14.5239 33.0239 14.5756 33.0755C14.6273 33.1272 14.6675 33.1892 14.6937 33.2574C14.7199 33.3256 14.7314 33.3986 14.7276 33.4716C14.7202 33.6151 14.6685 33.7527 14.5795 33.8655L12.9385 36.0841V37.5652C12.9441 37.6423 12.9337 37.7198 12.9081 37.7927C12.8824 37.8657 12.842 37.9326 12.7893 37.9892C12.7366 38.0459 12.6729 38.091 12.6019 38.1219C12.531 38.1528 12.4545 38.1688 12.3772 38.1688C12.2998 38.1688 12.2233 38.1528 12.1524 38.1219C12.0815 38.091 12.0177 38.0459 11.965 37.9892C11.9124 37.9326 11.8719 37.8657 11.8463 37.7927C11.8206 37.7198 11.8102 37.6423 11.8159 37.5652V36.1049Z" fill="white"/>
<path d="M15.4888 33.5071C15.488 33.3604 15.5451 33.2194 15.6477 33.1145C15.7503 33.0097 15.8901 32.9496 16.0368 32.9473H16.1612C16.2646 32.9479 16.366 32.9756 16.4554 33.0275C16.5447 33.0795 16.619 33.1539 16.6706 33.2435L18.0214 35.4443L19.381 33.2346C19.429 33.1432 19.5015 33.067 19.5905 33.0147C19.6795 32.9624 19.7813 32.9359 19.8845 32.9384H20.006C20.0798 32.9376 20.1531 32.9515 20.2216 32.9793C20.29 33.0072 20.3522 33.0483 20.4046 33.1004C20.457 33.1525 20.4985 33.2145 20.5267 33.2828C20.5548 33.3511 20.5692 33.4243 20.5688 33.4982V37.5415C20.5688 37.6892 20.5101 37.8308 20.4056 37.9352C20.3012 38.0397 20.1596 38.0983 20.0119 38.0983C19.8642 38.0983 19.7225 38.0397 19.6181 37.9352C19.5137 37.8308 19.455 37.6892 19.455 37.5415V35.0059L18.4716 36.5166C18.4281 36.6025 18.3615 36.6747 18.2795 36.7252C18.1974 36.7756 18.1029 36.8023 18.0066 36.8023C17.9102 36.8023 17.8157 36.7756 17.7336 36.7252C17.6516 36.6747 17.585 36.6025 17.5415 36.5166L16.5759 35.0355V37.5652C16.5751 37.7087 16.5184 37.8464 16.4177 37.9487C16.317 38.0511 16.1803 38.1101 16.0368 38.1132C15.9648 38.1135 15.8935 38.0996 15.827 38.0722C15.7605 38.0448 15.7002 38.0044 15.6494 37.9534C15.5987 37.9024 15.5586 37.8418 15.5316 37.7751C15.5045 37.7085 15.491 37.6371 15.4917 37.5652L15.4888 33.5071Z" fill="white"/>
<path d="M21.8008 37.5088V33.5366C21.8004 33.463 21.8146 33.39 21.8426 33.3219C21.8706 33.2538 21.9118 33.192 21.9639 33.1399C22.0159 33.0878 22.0778 33.0466 22.1459 33.0186C22.214 32.9906 22.287 32.9764 22.3606 32.9768H25.1805C25.3141 32.9768 25.4422 33.0299 25.5366 33.1243C25.631 33.2187 25.6841 33.3468 25.6841 33.4804C25.6825 33.6126 25.6287 33.7389 25.5343 33.8316C25.44 33.9242 25.3128 33.9758 25.1805 33.975H22.9116V35.0058H24.8547C24.9877 35.0066 25.1151 35.06 25.2089 35.1544C25.3026 35.2487 25.3553 35.3764 25.3553 35.5094C25.3549 35.5746 25.3416 35.6391 25.3162 35.6992C25.2908 35.7592 25.2538 35.8137 25.2073 35.8594C25.1607 35.9051 25.1056 35.9411 25.0451 35.9654C24.9846 35.9898 24.9199 36.0019 24.8547 36.0011H22.9116V37.0704H25.219C25.3526 37.0704 25.4807 37.1235 25.5751 37.2179C25.6695 37.3123 25.7226 37.4404 25.7226 37.574C25.7222 37.6396 25.7089 37.7044 25.6833 37.7649C25.6577 37.8253 25.6205 37.8801 25.5737 37.926C25.5269 37.972 25.4715 38.0083 25.4106 38.0328C25.3497 38.0572 25.2846 38.0694 25.219 38.0686H22.3606C22.287 38.069 22.214 38.0548 22.1459 38.0268C22.0778 37.9988 22.0159 37.9576 21.9639 37.9055C21.9118 37.8535 21.8706 37.7916 21.8426 37.7235C21.8146 37.6554 21.8004 37.5824 21.8008 37.5088Z" fill="white"/>
<path d="M26.6704 33.5072C26.67 33.4336 26.6842 33.3606 26.7122 33.2925C26.7402 33.2244 26.7815 33.1625 26.8335 33.1105C26.8856 33.0584 26.9475 33.0172 27.0156 32.9892C27.0837 32.9612 27.1566 32.947 27.2303 32.9474H27.3458C27.4642 32.9477 27.5807 32.9781 27.6843 33.0356C27.7879 33.0931 27.8752 33.1758 27.9382 33.2762L30.0976 36.1109V33.4865C30.092 33.4105 30.1021 33.3343 30.1274 33.2624C30.1526 33.1906 30.1924 33.1247 30.2443 33.0689C30.2961 33.0131 30.3589 32.9686 30.4287 32.9382C30.4985 32.9078 30.5738 32.8921 30.65 32.8921C30.7261 32.8921 30.8015 32.9078 30.8713 32.9382C30.9411 32.9686 31.0039 33.0131 31.0557 33.0689C31.1076 33.1247 31.1473 33.1906 31.1726 33.2624C31.1978 33.3343 31.208 33.4105 31.2024 33.4865V37.5386C31.2028 37.6122 31.1886 37.6852 31.1606 37.7533C31.1326 37.8214 31.0914 37.8833 31.0393 37.9353C30.9873 37.9874 30.9254 38.0286 30.8573 38.0566C30.7892 38.0846 30.7162 38.0988 30.6426 38.0984H30.607C30.4886 38.0981 30.3721 38.0677 30.2685 38.0103C30.165 37.9528 30.0776 37.87 30.0146 37.7697L27.7753 34.8313V37.5593C27.7808 37.6353 27.7707 37.7116 27.7455 37.7834C27.7202 37.8553 27.6804 37.9211 27.6286 37.9769C27.5767 38.0327 27.514 38.0772 27.4441 38.1076C27.3743 38.138 27.299 38.1537 27.2229 38.1537C27.1467 38.1537 27.0714 38.138 27.0016 38.1076C26.9318 38.0772 26.869 38.0327 26.8171 37.9769C26.7653 37.9211 26.7255 37.8553 26.7003 37.7834C26.675 37.7116 26.6649 37.6353 26.6704 37.5593V33.5072Z" fill="white"/>
<path d="M33.5989 34.0106H32.5236C32.3933 34.0007 32.2715 33.942 32.1827 33.8461C32.0938 33.7503 32.0444 33.6244 32.0444 33.4937C32.0444 33.363 32.0938 33.2371 32.1827 33.1413C32.2715 33.0454 32.3933 32.9867 32.5236 32.9768H35.7819C35.9123 32.9867 36.034 33.0454 36.1229 33.1413C36.2118 33.2371 36.2611 33.363 36.2611 33.4937C36.2611 33.6244 36.2118 33.7503 36.1229 33.8461C36.034 33.942 35.9123 34.0007 35.7819 34.0106H34.7067V37.5651C34.7123 37.6422 34.702 37.7197 34.6763 37.7927C34.6506 37.8656 34.6102 37.9325 34.5575 37.9891C34.5048 38.0458 34.4411 38.091 34.3702 38.1218C34.2992 38.1527 34.2227 38.1687 34.1454 38.1687C34.068 38.1687 33.9915 38.1527 33.9206 38.1218C33.8497 38.091 33.7859 38.0458 33.7333 37.9891C33.6806 37.9325 33.6401 37.8656 33.6145 37.7927C33.5888 37.7197 33.5785 37.6422 33.5841 37.5651L33.5989 34.0106Z" fill="white"/>
<path d="M37.0233 37.5297C36.9579 37.4808 36.9049 37.4174 36.8683 37.3443C36.8318 37.2713 36.8129 37.1908 36.813 37.1091C36.8126 37.0404 36.8259 36.9724 36.8522 36.9089C36.8785 36.8454 36.9172 36.7879 36.966 36.7396C37.0149 36.6913 37.0729 36.6532 37.1366 36.6277C37.2004 36.6021 37.2686 36.5896 37.3373 36.5908C37.4522 36.5903 37.5643 36.6267 37.6572 36.6944C38.0301 36.9848 38.4879 37.1451 38.9605 37.1506C39.4167 37.1506 39.6951 36.9699 39.6951 36.6707V36.6559C39.6951 36.3745 39.5203 36.2294 38.6673 36.0102C37.6424 35.7495 36.9818 35.4652 36.9818 34.4551C36.9818 33.5309 37.7224 32.9207 38.7591 32.9207C39.3293 32.9123 39.8899 33.0686 40.3734 33.371C40.4504 33.4165 40.514 33.4815 40.5577 33.5596C40.6014 33.6376 40.6237 33.7259 40.6222 33.8153C40.6222 33.8837 40.6086 33.9515 40.5822 34.0146C40.5557 34.0777 40.517 34.1349 40.4682 34.1829C40.4194 34.2309 40.3615 34.2687 40.2979 34.294C40.2344 34.3194 40.1664 34.3319 40.0979 34.3307C39.9936 34.3328 39.8908 34.305 39.8017 34.2507C39.4829 34.0416 39.1134 33.9229 38.7324 33.9071C38.3059 33.9071 38.0778 34.1056 38.0778 34.3514C38.0778 34.6861 38.297 34.7957 39.1767 35.0209C40.2105 35.2904 40.7911 35.6607 40.7911 36.5493V36.5641C40.7911 37.5742 40.0209 38.1399 38.922 38.1399C38.2411 38.1386 37.5775 37.9253 37.0233 37.5297Z" fill="white"/>
<path d="M43.9605 33.5072C43.9601 33.4336 43.9743 33.3606 44.0023 33.2925C44.0303 33.2244 44.0715 33.1625 44.1236 33.1105C44.1756 33.0584 44.2375 33.0172 44.3056 32.9892C44.3737 32.9612 44.4467 32.947 44.5203 32.9474H44.6388C44.7573 32.9475 44.8739 32.9777 44.9775 33.0352C45.0811 33.0927 45.1684 33.1756 45.2312 33.2762L47.3906 36.1109V33.4865C47.385 33.4105 47.3952 33.3343 47.4204 33.2624C47.4456 33.1906 47.4854 33.1247 47.5373 33.0689C47.5891 33.0131 47.6519 32.9686 47.7217 32.9382C47.7915 32.9078 47.8668 32.8921 47.943 32.8921C48.0191 32.8921 48.0945 32.9078 48.1643 32.9382C48.2341 32.9686 48.2969 33.0131 48.3487 33.0689C48.4006 33.1247 48.4403 33.1906 48.4656 33.2624C48.4908 33.3343 48.501 33.4105 48.4954 33.4865V37.5386C48.4958 37.6122 48.4816 37.6852 48.4536 37.7533C48.4256 37.8214 48.3844 37.8833 48.3323 37.9353C48.2803 37.9874 48.2184 38.0286 48.1503 38.0566C48.0822 38.0846 48.0092 38.0988 47.9356 38.0984H47.9C47.7814 38.0989 47.6646 38.0689 47.5609 38.0114C47.4572 37.9538 47.37 37.8706 47.3076 37.7697L45.0653 34.8313V37.5593C45.0709 37.6353 45.0607 37.7116 45.0355 37.7834C45.0103 37.8553 44.9705 37.9211 44.9186 37.9769C44.8668 38.0327 44.804 38.0772 44.7342 38.1076C44.6644 38.138 44.589 38.1537 44.5129 38.1537C44.4367 38.1537 44.3614 38.138 44.2916 38.1076C44.2218 38.0772 44.159 38.0327 44.1072 37.9769C44.0553 37.9211 44.0155 37.8553 43.9903 37.7834C43.9651 37.7116 43.9549 37.6353 43.9605 37.5593V33.5072Z" fill="white"/>
<path d="M49.7036 37.5088V33.5366C49.7032 33.463 49.7174 33.39 49.7454 33.3219C49.7734 33.2538 49.8147 33.192 49.8667 33.1399C49.9188 33.0878 49.9807 33.0466 50.0488 33.0186C50.1169 32.9906 50.1898 32.9764 50.2635 32.9768H53.0863C53.2194 32.9776 53.3467 33.031 53.4405 33.1253C53.5343 33.2197 53.5869 33.3473 53.5869 33.4804C53.5865 33.5457 53.5733 33.6104 53.5479 33.6706C53.5225 33.7308 53.4856 33.7854 53.4391 33.8314C53.3926 33.8773 53.3375 33.9136 53.277 33.9383C53.2165 33.9629 53.1517 33.9754 53.0863 33.975H50.8174V35.0058H52.7664C52.9 35.0058 53.028 35.0589 53.1225 35.1533C53.2169 35.2478 53.27 35.3758 53.27 35.5094C53.2696 35.5749 53.2562 35.6396 53.2306 35.6999C53.205 35.7601 53.1677 35.8147 53.1209 35.8604C53.0741 35.9062 53.0186 35.9422 52.9578 35.9663C52.8969 35.9905 52.8319 36.0023 52.7664 36.0011H50.8262V37.0704H53.1308C53.2643 37.0704 53.3924 37.1235 53.4868 37.2179C53.5813 37.3123 53.6343 37.4404 53.6343 37.574C53.6339 37.6396 53.6206 37.7044 53.595 37.7649C53.5695 37.8253 53.5322 37.8801 53.4854 37.926C53.4386 37.972 53.3832 38.0083 53.3223 38.0328C53.2615 38.0572 53.1963 38.0694 53.1308 38.0686H50.2723C50.198 38.0702 50.124 38.0569 50.0549 38.0294C49.9858 38.002 49.9228 37.9609 49.8698 37.9087C49.8168 37.8566 49.7748 37.7943 49.7462 37.7256C49.7177 37.6569 49.7032 37.5832 49.7036 37.5088Z" fill="white"/>
<path d="M55.7612 34.0106H54.6859C54.6148 34.016 54.5433 34.0066 54.4759 33.9831C54.4085 33.9596 54.3467 33.9224 54.2944 33.8738C54.242 33.8253 54.2003 33.7665 54.1717 33.7011C54.1432 33.6357 54.1284 33.5651 54.1284 33.4937C54.1284 33.4223 54.1432 33.3517 54.1717 33.2863C54.2003 33.2209 54.242 33.1621 54.2944 33.1136C54.3467 33.0651 54.4085 33.0279 54.4759 33.0043C54.5433 32.9808 54.6148 32.9714 54.6859 32.9768H57.9442C58.0154 32.9714 58.0869 32.9808 58.1543 33.0043C58.2217 33.0279 58.2835 33.0651 58.3358 33.1136C58.3881 33.1621 58.4299 33.2209 58.4585 33.2863C58.487 33.3517 58.5018 33.4223 58.5018 33.4937C58.5018 33.5651 58.487 33.6357 58.4585 33.7011C58.4299 33.7665 58.3881 33.8253 58.3358 33.8738C58.2835 33.9224 58.2217 33.9596 58.1543 33.9831C58.0869 34.0066 58.0154 34.016 57.9442 34.0106H56.869V37.5651C56.869 37.7136 56.81 37.856 56.705 37.961C56.6 38.0659 56.4576 38.1249 56.3092 38.1249C56.1607 38.1249 56.0183 38.0659 55.9133 37.961C55.8083 37.856 55.7493 37.7136 55.7493 37.5651L55.7612 34.0106Z" fill="white"/>
<path d="M58.9663 33.6908C58.9425 33.6231 58.9286 33.5522 58.9248 33.4805C58.9259 33.4066 58.9418 33.3337 58.9714 33.266C59.001 33.1983 59.0438 33.1371 59.0973 33.0861C59.1508 33.0351 59.2139 32.9953 59.2829 32.9689C59.352 32.9425 59.4256 32.9302 59.4995 32.9325C59.6211 32.9321 59.7397 32.9707 59.8378 33.0427C59.9359 33.1147 60.0084 33.2162 60.0445 33.3324L61.0605 36.4545L62.0794 33.362C62.1119 33.2362 62.1849 33.1245 62.2871 33.0442C62.3894 32.9639 62.5152 32.9194 62.6452 32.9177H62.734C62.864 32.9194 62.9899 32.9639 63.0921 33.0442C63.1943 33.1245 63.2673 33.2362 63.2998 33.362L64.3188 36.4545L65.3288 33.3324C65.3642 33.217 65.4357 33.1158 65.5327 33.0439C65.6297 32.9719 65.7472 32.9329 65.8679 32.9325C65.9397 32.931 66.0111 32.9437 66.0779 32.9701C66.1447 32.9965 66.2055 33.036 66.2568 33.0862C66.3081 33.1364 66.3489 33.1964 66.3767 33.2626C66.4046 33.3287 66.4189 33.3998 66.4189 33.4716C66.4151 33.5463 66.4012 33.62 66.3774 33.6908L64.9527 37.6896C64.9168 37.8199 64.8397 37.9351 64.7329 38.0179C64.6261 38.1006 64.4953 38.1466 64.3602 38.1488H64.2447C64.1112 38.1482 63.9818 38.1025 63.8775 38.0192C63.7732 37.9359 63.7001 37.8197 63.6701 37.6896L62.6659 34.775L61.6529 37.6896C61.6229 37.8197 61.5498 37.9359 61.4454 38.0192C61.3411 38.1025 61.2117 38.1482 61.0782 38.1488H60.9627C60.8274 38.1475 60.6961 38.102 60.5891 38.019C60.4821 37.9361 60.4053 37.8204 60.3703 37.6896L58.9663 33.6908Z" fill="white"/>
<path d="M67.0469 35.5451V35.5303C67.0469 34.8131 67.3318 34.1252 67.839 33.618C68.3461 33.1109 69.034 32.8259 69.7513 32.8259C70.4685 32.8259 71.1564 33.1109 71.6635 33.618C72.1707 34.1252 72.4556 34.8131 72.4556 35.5303C72.4576 36.2476 72.1746 36.9362 71.6688 37.4448C71.163 37.9533 70.4759 38.2401 69.7587 38.2421C69.0414 38.2441 68.3528 37.961 67.8442 37.4552C67.3356 36.9495 67.0488 36.2624 67.0469 35.5451ZM71.2856 35.5451V35.5303C71.2928 35.3231 71.2582 35.1165 71.1838 34.9229C71.1095 34.7293 70.997 34.5526 70.8531 34.4034C70.7091 34.2542 70.5366 34.1354 70.3457 34.0542C70.1549 33.973 69.9497 33.9311 69.7424 33.9308C69.5366 33.9302 69.3328 33.9713 69.1434 34.0517C68.9539 34.1321 68.7827 34.25 68.6401 34.3984C68.4976 34.5468 68.3865 34.7226 68.3138 34.9151C68.2411 35.1076 68.2081 35.3129 68.2169 35.5185C68.2098 35.7256 68.2443 35.9321 68.3184 36.1256C68.3925 36.3192 68.5046 36.4959 68.6483 36.6453C68.7919 36.7948 68.964 36.9139 69.1545 36.9955C69.345 37.0772 69.5499 37.1199 69.7572 37.121C69.9622 37.1219 70.1653 37.0814 70.3542 37.0019C70.5432 36.9224 70.7142 36.8056 70.8569 36.6585C70.9997 36.5113 71.1112 36.3368 71.1849 36.1455C71.2585 35.9542 71.2928 35.75 71.2856 35.5451Z" fill="white"/>
<path d="M73.4507 33.5366C73.4503 33.463 73.4645 33.39 73.4925 33.3219C73.5205 33.2538 73.5617 33.192 73.6138 33.1399C73.6659 33.0878 73.7277 33.0466 73.7958 33.0186C73.8639 32.9906 73.9369 32.9764 74.0105 32.9768H75.7878C76.0567 32.9601 76.3263 32.9973 76.5807 33.0863C76.835 33.1753 77.069 33.3144 77.2688 33.4952C77.4161 33.6494 77.5309 33.8316 77.6062 34.0311C77.6815 34.2306 77.7159 34.4432 77.7072 34.6563C77.7262 34.9897 77.6374 35.3204 77.4539 35.5994C77.2704 35.8784 77.0019 36.0909 76.6883 36.2055L77.4673 37.1504C77.5784 37.2664 77.6427 37.4193 77.648 37.5799C77.6476 37.6488 77.6335 37.7171 77.6066 37.7805C77.5797 37.844 77.5404 37.9016 77.4911 37.9498C77.4418 37.998 77.3834 38.0359 77.3193 38.0614C77.2552 38.0869 77.1867 38.0994 77.1178 38.0982C77.0083 38.0977 76.9006 38.0704 76.8041 38.0188C76.7076 37.9672 76.6251 37.8928 76.5638 37.802L75.4649 36.4336H74.5763V37.5443C74.5763 37.6928 74.5173 37.8352 74.4123 37.9402C74.3073 38.0452 74.1649 38.1042 74.0165 38.1042C73.868 38.1042 73.7256 38.0452 73.6206 37.9402C73.5156 37.8352 73.4566 37.6928 73.4566 37.5443L73.4507 33.5366ZM75.7048 35.4501C76.2499 35.4501 76.5638 35.1539 76.5638 34.7304C76.5638 34.2505 76.2291 34.0017 75.6752 34.0017H74.5615V35.465L75.7048 35.4501Z" fill="white"/>
<path d="M78.7085 33.4953C78.7085 33.4217 78.723 33.3489 78.7511 33.281C78.7793 33.2131 78.8205 33.1514 78.8725 33.0994C78.9245 33.0474 78.9862 33.0062 79.0541 32.978C79.122 32.9499 79.1948 32.9354 79.2683 32.9354C79.3419 32.9354 79.4147 32.9499 79.4826 32.978C79.5505 33.0062 79.6122 33.0474 79.6642 33.0994C79.7162 33.1514 79.7574 33.2131 79.7856 33.281C79.8137 33.3489 79.8282 33.4217 79.8282 33.4953V35.2014L81.9016 33.1516C81.9603 33.0833 82.033 33.0283 82.1147 32.9905C82.1965 32.9526 82.2855 32.9329 82.3756 32.9325C82.4438 32.9312 82.5116 32.9438 82.5749 32.9695C82.6382 32.9952 82.6956 33.0333 82.7438 33.0818C82.7919 33.1302 82.8298 33.1878 82.8551 33.2513C82.8804 33.3147 82.8926 33.3826 82.891 33.4508C82.8896 33.5316 82.8706 33.6111 82.8353 33.6838C82.8 33.7564 82.7493 33.8205 82.6866 33.8714L81.2529 35.2103L82.8169 37.1742C82.9143 37.2813 82.9691 37.4204 82.9709 37.5652C82.9718 37.6391 82.9576 37.7125 82.9291 37.7808C82.9005 37.849 82.8583 37.9107 82.805 37.9621C82.7518 38.0134 82.6885 38.0533 82.6193 38.0793C82.55 38.1053 82.4761 38.1168 82.4022 38.1131C82.3074 38.1113 82.2146 38.0856 82.1323 38.0385C82.05 37.9914 81.9809 37.9244 81.9312 37.8436L80.4769 35.936L79.8371 36.5284V37.5444C79.8371 37.6929 79.7781 37.8353 79.6731 37.9403C79.5681 38.0453 79.4257 38.1043 79.2772 38.1043C79.1287 38.1043 78.9863 38.0453 78.8814 37.9403C78.7764 37.8353 78.7174 37.6929 78.7174 37.5444L78.7085 33.4953Z" fill="white"/>
<path d="M86.0664 33.5072C86.066 33.4336 86.0802 33.3606 86.1082 33.2925C86.1362 33.2244 86.1774 33.1625 86.2295 33.1105C86.2816 33.0584 86.3434 33.0172 86.4115 32.9892C86.4796 32.9612 86.5526 32.947 86.6262 32.9474H86.7507C86.854 32.946 86.9558 32.9729 87.0451 33.0251C87.1343 33.0773 87.2076 33.1528 87.2572 33.2436L88.6108 35.4444L89.9704 33.2347C90.0179 33.1429 90.0903 33.0663 90.1795 33.0139C90.2686 32.9615 90.3707 32.9353 90.474 32.9385H90.5954C90.6691 32.9381 90.742 32.9523 90.8101 32.9803C90.8782 33.0083 90.9401 33.0495 90.9922 33.1016C91.0442 33.1536 91.0855 33.2155 91.1135 33.2836C91.1415 33.3517 91.1557 33.4247 91.1553 33.4983V37.5416C91.1609 37.6179 91.1506 37.6946 91.1252 37.7668C91.0999 37.839 91.0599 37.9052 91.0077 37.9613C90.9556 38.0174 90.8925 38.0621 90.8223 38.0927C90.7522 38.1232 90.6764 38.139 90.5999 38.139C90.5233 38.139 90.4476 38.1232 90.3774 38.0927C90.3073 38.0621 90.2441 38.0174 90.192 37.9613C90.1399 37.9052 90.0999 37.839 90.0745 37.7668C90.0491 37.6946 90.0389 37.6179 90.0445 37.5416V35.006L89.0611 36.5167C89.0175 36.6026 88.951 36.6748 88.8689 36.7253C88.7868 36.7757 88.6924 36.8024 88.596 36.8024C88.4997 36.8024 88.4052 36.7757 88.3231 36.7253C88.241 36.6748 88.1745 36.6026 88.131 36.5167L87.1624 35.0356V37.5653C87.1624 37.6372 87.1482 37.7085 87.1207 37.775C87.0931 37.8415 87.0528 37.9019 87.0019 37.9527C86.951 38.0036 86.8906 38.044 86.8241 38.0715C86.7576 38.0991 86.6864 38.1133 86.6144 38.1133C86.5424 38.1133 86.4712 38.0991 86.4047 38.0715C86.3382 38.044 86.2778 38.0036 86.2269 37.9527C86.176 37.9019 86.1357 37.8415 86.1081 37.775C86.0806 37.7085 86.0664 37.6372 86.0664 37.5653V33.5072Z" fill="white"/>
<path d="M92.094 37.3491L93.8712 33.3414C93.9216 33.2091 94.0115 33.0956 94.1286 33.0161C94.2456 32.9366 94.3843 32.8951 94.5259 32.897H94.591C94.7312 32.896 94.8683 32.9381 94.9838 33.0176C95.0993 33.097 95.1876 33.2101 95.2368 33.3414L97.014 37.3491C97.0495 37.4191 97.0697 37.4958 97.0732 37.5742C97.074 37.6444 97.0609 37.7142 97.0347 37.7793C97.0084 37.8445 96.9695 37.9039 96.9202 37.954C96.871 38.0041 96.8123 38.0439 96.7475 38.0713C96.6828 38.0986 96.6133 38.1129 96.543 38.1133C96.4238 38.1132 96.3077 38.0758 96.2109 38.0061C96.1142 37.9365 96.0418 37.8383 96.0039 37.7252L95.6633 36.9255H93.421L93.0655 37.7637C93.0246 37.867 92.9535 37.9555 92.8616 38.0178C92.7697 38.0801 92.6612 38.1134 92.5501 38.1133C92.4816 38.1133 92.4137 38.0997 92.3504 38.0733C92.2871 38.0468 92.2297 38.0081 92.1815 37.9594C92.1333 37.9106 92.0952 37.8527 92.0695 37.7892C92.0438 37.7256 92.031 37.6576 92.0318 37.589C92.0345 37.5054 92.0558 37.4235 92.094 37.3491ZM95.2427 35.9361L94.5318 34.2566L93.8238 35.9361H95.2427Z" fill="white"/>
<path d="M97.9473 33.4954C97.9473 33.4219 97.9617 33.3491 97.9899 33.2811C98.018 33.2132 98.0592 33.1515 98.1112 33.0995C98.1632 33.0475 98.2249 33.0063 98.2929 32.9782C98.3608 32.95 98.4336 32.9355 98.5071 32.9355C98.5806 32.9355 98.6534 32.95 98.7213 32.9782C98.7893 33.0063 98.851 33.0475 98.903 33.0995C98.955 33.1515 98.9962 33.2132 99.0243 33.2811C99.0525 33.3491 99.0669 33.4219 99.0669 33.4954V37.0499H101.14C101.276 37.0499 101.405 37.1036 101.501 37.1991C101.596 37.2947 101.65 37.4242 101.65 37.5594C101.65 37.6945 101.596 37.8241 101.501 37.9196C101.405 38.0152 101.276 38.0688 101.14 38.0688H98.5101C98.4364 38.0692 98.3635 38.055 98.2954 38.027C98.2273 37.999 98.1654 37.9578 98.1133 37.9057C98.0613 37.8537 98.02 37.7918 97.992 37.7237C97.964 37.6556 97.9498 37.5826 97.9502 37.509L97.9473 33.4954Z" fill="white"/>
<path d="M102.162 37.349L103.94 33.3413C103.991 33.2096 104.081 33.0965 104.198 33.0171C104.315 32.9377 104.453 32.8959 104.594 32.897H104.659C104.8 32.8958 104.938 32.9378 105.054 33.0172C105.17 33.0967 105.258 33.2098 105.308 33.3413L107.085 37.349C107.121 37.419 107.141 37.4957 107.145 37.5741C107.145 37.6446 107.132 37.7146 107.106 37.78C107.079 37.8454 107.04 37.9048 106.991 37.955C106.941 38.0051 106.882 38.0449 106.817 38.0721C106.752 38.0993 106.682 38.1132 106.611 38.1132C106.493 38.1126 106.377 38.0748 106.281 38.0052C106.185 37.9357 106.113 37.8377 106.075 37.7252L105.732 36.9254H103.492L103.137 37.7637C103.096 37.8674 103.024 37.9562 102.932 38.0186C102.839 38.081 102.73 38.1139 102.619 38.1132C102.55 38.1132 102.482 38.0996 102.419 38.0732C102.356 38.0467 102.299 38.008 102.251 37.9591C102.203 37.9103 102.165 37.8525 102.14 37.7889C102.114 37.7253 102.102 37.6574 102.103 37.5889C102.106 37.5057 102.126 37.4239 102.162 37.349ZM105.311 35.9361L104.603 34.2566L103.898 35.9361H105.311Z" fill="white"/>
<path d="M109.342 36.1049L107.701 33.8714C107.612 33.7572 107.564 33.6164 107.565 33.4716C107.566 33.3992 107.581 33.3278 107.61 33.2613C107.638 33.1949 107.68 33.1349 107.732 33.0847C107.784 33.0345 107.846 32.9952 107.913 32.9691C107.98 32.9429 108.052 32.9305 108.125 32.9325C108.239 32.9358 108.351 32.9693 108.448 33.0296C108.545 33.09 108.625 33.175 108.679 33.2761L109.914 35.0533L111.173 33.2583C111.225 33.1607 111.302 33.0784 111.396 33.0197C111.49 32.961 111.598 32.9279 111.709 32.9236C111.781 32.9197 111.854 32.9312 111.922 32.9572C111.99 32.9833 112.051 33.0233 112.103 33.0747C112.154 33.1261 112.194 33.1877 112.22 33.2556C112.246 33.3234 112.258 33.396 112.254 33.4686C112.248 33.6118 112.197 33.7495 112.109 33.8626L110.465 36.0812V37.5622C110.465 37.7107 110.406 37.8531 110.301 37.9581C110.196 38.0631 110.053 38.122 109.905 38.122C109.757 38.122 109.614 38.0631 109.509 37.9581C109.404 37.8531 109.345 37.7107 109.345 37.5622L109.342 36.1049Z" fill="white"/>
<path d="M112.915 37.5297C112.85 37.4808 112.796 37.4174 112.76 37.3443C112.723 37.2713 112.704 37.1908 112.705 37.1091C112.704 37.0404 112.718 36.9724 112.744 36.9089C112.77 36.8454 112.809 36.7879 112.858 36.7396C112.906 36.6913 112.964 36.6532 113.028 36.6277C113.092 36.6021 113.16 36.5896 113.229 36.5908C113.344 36.5903 113.456 36.6267 113.549 36.6944C113.922 36.9848 114.379 37.1451 114.852 37.1506C115.308 37.1506 115.584 36.9699 115.584 36.6707V36.6559C115.584 36.3745 115.412 36.2294 114.559 36.0102C113.534 35.7495 112.873 35.4652 112.873 34.4551C112.873 33.5309 113.614 32.9207 114.651 32.9207C115.221 32.9123 115.781 33.0686 116.265 33.371C116.342 33.4165 116.406 33.4815 116.449 33.5596C116.493 33.6376 116.515 33.7259 116.514 33.8153C116.514 33.8837 116.5 33.9515 116.474 34.0146C116.447 34.0777 116.409 34.1349 116.36 34.1829C116.311 34.2309 116.253 34.2687 116.19 34.294C116.126 34.3194 116.058 34.3319 115.99 34.3307C115.885 34.3328 115.782 34.305 115.693 34.2507C115.375 34.0416 115.005 33.9229 114.624 33.9071C114.195 33.9071 113.969 34.1056 113.969 34.3514C113.969 34.6861 114.189 34.7957 115.068 35.0209C116.102 35.2904 116.683 35.6607 116.683 36.5493V36.5641C116.683 37.5742 115.913 38.1399 114.814 38.1399C114.133 38.1386 113.469 37.9253 112.915 37.5297Z" fill="white"/>
<path d="M117.722 33.4954C117.722 33.4219 117.737 33.3491 117.765 33.2811C117.793 33.2132 117.834 33.1515 117.886 33.0995C117.938 33.0475 118 33.0063 118.068 32.9782C118.136 32.95 118.208 32.9355 118.282 32.9355C118.356 32.9355 118.428 32.95 118.496 32.9782C118.564 33.0063 118.626 33.0475 118.678 33.0995C118.73 33.1515 118.771 33.2132 118.799 33.2811C118.827 33.3491 118.842 33.4219 118.842 33.4954V37.5505C118.842 37.624 118.827 37.6968 118.799 37.7647C118.771 37.8326 118.73 37.8944 118.678 37.9463C118.626 37.9983 118.564 38.0396 118.496 38.0677C118.428 38.0958 118.356 38.1103 118.282 38.1103C118.208 38.1103 118.136 38.0958 118.068 38.0677C118 38.0396 117.938 37.9983 117.886 37.9463C117.834 37.8944 117.793 37.8326 117.765 37.7647C117.737 37.6968 117.722 37.624 117.722 37.5505V33.4954Z" fill="white"/>
<path d="M119.831 37.349L121.609 33.3413C121.66 33.2096 121.75 33.0965 121.867 33.0171C121.984 32.9378 122.122 32.8959 122.263 32.897H122.328C122.469 32.8956 122.606 32.9375 122.721 33.017C122.837 33.0965 122.925 33.2098 122.974 33.3413L124.751 37.349C124.788 37.4185 124.808 37.4956 124.811 37.5741C124.812 37.6445 124.799 37.7144 124.773 37.7798C124.747 37.8451 124.708 37.9046 124.658 37.9548C124.609 38.005 124.55 38.0448 124.485 38.072C124.42 38.0992 124.351 38.1133 124.28 38.1132C124.161 38.1128 124.045 38.0751 123.949 38.0056C123.852 37.936 123.779 37.838 123.741 37.7252L123.401 36.9254H121.161L120.803 37.7637C120.762 37.8672 120.691 37.9559 120.599 38.0183C120.507 38.0807 120.399 38.1138 120.287 38.1132C120.219 38.1133 120.151 38.0996 120.088 38.0732C120.025 38.0467 119.968 38.008 119.92 37.9592C119.872 37.9104 119.834 37.8525 119.809 37.7889C119.783 37.7254 119.771 37.6574 119.772 37.589C119.775 37.5057 119.795 37.4239 119.831 37.349ZM122.968 35.9361L122.263 34.2566L121.558 35.9361H122.968Z" fill="white"/>
<path d="M11.3802 27.8939C11.5858 27.8939 11.7894 27.8534 11.9794 27.7746C12.1693 27.6958 12.3418 27.5803 12.4871 27.4348C12.6324 27.2893 12.7475 27.1165 12.8259 26.9264C12.9044 26.7363 12.9445 26.5326 12.9441 26.327V18.4419V18.3916L9.79248 16.5876C9.79248 16.5876 9.79248 17.2689 9.79248 17.497C9.81025 19.7067 9.79248 26.3388 9.79248 26.3388C9.79248 26.5445 9.83303 26.7481 9.91182 26.938C9.9906 27.128 10.1061 27.3005 10.2516 27.4458C10.3971 27.591 10.5699 27.7062 10.76 27.7846C10.9501 27.863 11.1538 27.9032 11.3594 27.9028L11.3802 27.8939Z" fill="white"/>
<path d="M2.36965 22.7073C2.47212 22.8857 2.60884 23.0421 2.77195 23.1674C2.93507 23.2928 3.12135 23.3847 3.32009 23.4378C3.51884 23.4909 3.72613 23.5043 3.93004 23.477C4.13395 23.4498 4.33046 23.3825 4.50827 23.279L12.1564 18.8359L12.9354 18.3856L9.79263 16.5876L9.49642 16.7506C7.85543 17.7132 2.92652 20.5776 2.92652 20.5776C2.74813 20.6801 2.59176 20.8168 2.4664 20.9799C2.34103 21.143 2.24914 21.3293 2.19602 21.528C2.14289 21.7268 2.12957 21.9341 2.15683 22.138C2.18408 22.3419 2.25138 22.5384 2.35483 22.7162L2.36965 22.7073Z" fill="white"/>
<path d="M24.5202 22.7458C24.6231 22.5677 24.6899 22.3711 24.7168 22.1672C24.7436 21.9632 24.7299 21.756 24.6765 21.5573C24.6232 21.3587 24.5311 21.1725 24.4057 21.0094C24.2802 20.8464 24.1239 20.7097 23.9455 20.6072L17.109 16.6765L17.0617 16.6528L13.9248 18.4716C13.9248 18.4716 14.5172 18.8063 14.7186 18.9159C16.6292 20.0059 22.3845 23.3234 22.3845 23.3234C22.5627 23.4258 22.7592 23.4921 22.963 23.5184C23.1667 23.5448 23.3737 23.5308 23.572 23.4771C23.7704 23.4235 23.9562 23.3313 24.1189 23.2058C24.2815 23.0803 24.4179 22.924 24.5202 22.7458Z" fill="white"/>
<path d="M15.5273 27.962C15.7329 27.9616 15.9365 27.9207 16.1263 27.8415C16.3161 27.7624 16.4884 27.6466 16.6334 27.5008C16.7784 27.3549 16.8932 27.182 16.9712 26.9917C17.0493 26.8015 17.0891 26.5977 17.0883 26.3921L17.0617 17.5502V16.6616L13.9248 18.4715V18.7973C13.9396 20.696 13.9544 26.401 13.9544 26.401C13.9568 26.8163 14.1236 27.2138 14.4184 27.5064C14.7132 27.7989 15.112 27.9628 15.5273 27.962Z" fill="white"/>
<path d="M26.5907 8.77364C26.488 8.59515 26.351 8.43872 26.1876 8.31332C26.0242 8.18792 25.8377 8.09602 25.6387 8.0429C25.4397 7.98978 25.2322 7.97649 25.028 8.00379C24.8239 8.03108 24.6272 8.09843 24.4491 8.20195L17.6245 12.1445L17.583 12.1741V15.7997L18.362 15.3347C20.2726 14.218 26.019 10.9123 26.019 10.9123C26.1971 10.8095 26.3532 10.6726 26.4783 10.5095C26.6035 10.3464 26.6952 10.1601 26.7483 9.96149C26.8014 9.76286 26.8148 9.5557 26.7878 9.35187C26.7607 9.14805 26.6938 8.95155 26.5907 8.77364Z" fill="white"/>
<path d="M26.5966 19.1705C26.6996 18.9925 26.7664 18.7958 26.7932 18.5919C26.82 18.3879 26.8064 18.1807 26.753 17.982C26.6996 17.7834 26.6076 17.5972 26.4821 17.4342C26.3567 17.2711 26.2003 17.1344 26.022 17.0319L18.3591 12.6214L17.583 12.1711V15.7997L17.8614 15.9596C19.5143 16.9016 24.458 19.7452 24.458 19.7452C24.8181 19.9515 25.2451 20.0069 25.6459 19.8992C26.0467 19.7915 26.3885 19.5295 26.5966 19.1705Z" fill="white"/>
<path d="M0.257935 19.1706C0.360688 19.3507 0.498218 19.5085 0.662525 19.6349C0.826832 19.7614 1.01464 19.8539 1.21502 19.9071C1.4154 19.9603 1.62436 19.9731 1.82974 19.9448C2.03513 19.9165 2.23284 19.8477 2.41137 19.7423L9.22417 15.7997L9.26564 15.776V12.1445L8.48365 12.6096C6.57903 13.7263 0.829618 17.032 0.829618 17.032C0.470535 17.2401 0.208673 17.5821 0.101496 17.9831C-0.00568195 18.384 0.0505801 18.8111 0.257935 19.1706Z" fill="white"/>
<path d="M0.25482 8.77366C0.151683 8.95181 0.0846573 9.14852 0.0575707 9.35258C0.0304842 9.55663 0.043868 9.76402 0.0969576 9.9629C0.150047 10.1618 0.241802 10.3483 0.36698 10.5117C0.492158 10.6751 0.648306 10.8122 0.826502 10.9153L8.48942 15.3258C9.23882 15.7553 9.26548 15.776 9.26548 15.776V12.1445L8.96927 11.9846C7.3342 11.0426 2.38752 8.20198 2.38752 8.20198C2.21006 8.09905 2.01402 8.03219 1.81064 8.00522C1.60727 7.97825 1.40058 7.99171 1.20242 8.04483C1.00427 8.09795 0.818553 8.18967 0.655938 8.31475C0.493322 8.43982 0.357009 8.59578 0.25482 8.77366Z" fill="white"/>
<path d="M15.4678 -6.45966e-05C15.262 0.000324022 15.0583 0.0412392 14.8684 0.120345C14.6784 0.19945 14.5059 0.315197 14.3607 0.460976C14.2154 0.606755 14.1003 0.779712 14.022 0.969972C13.9436 1.16023 13.9034 1.36407 13.9038 1.56984V9.45195V9.50231L17.0555 11.3151C17.0555 11.3151 17.0555 10.6338 17.0555 10.4057C17.0555 8.19603 17.0555 1.56392 17.0555 1.56392C17.0555 1.35652 17.0143 1.15119 16.9342 0.959882C16.8541 0.76857 16.7368 0.595095 16.589 0.449552C16.4413 0.304009 16.2661 0.189305 16.0736 0.112116C15.8811 0.0349263 15.6752 -0.00320693 15.4678 -6.45966e-05Z" fill="white"/>
<path d="M24.4759 5.18651C24.3732 5.00837 24.2363 4.85228 24.073 4.72721C23.9098 4.60214 23.7235 4.51055 23.5248 4.4577C23.326 4.40486 23.1188 4.3918 22.915 4.41927C22.7112 4.44674 22.5149 4.5142 22.3373 4.61779L14.6921 9.06091C13.9427 9.49634 13.9131 9.50819 13.9131 9.50819L17.0559 11.3151L17.3521 11.1492C18.9931 10.1895 23.9249 7.32809 23.9249 7.32809C24.1029 7.22484 24.2588 7.08748 24.3836 6.92388C24.5084 6.76028 24.5997 6.57366 24.6523 6.37472C24.7048 6.17577 24.7176 5.96841 24.6899 5.76451C24.6622 5.56061 24.5945 5.36419 24.4907 5.18651H24.4759Z" fill="white"/>
<path d="M2.35175 5.22207C2.24999 5.40109 2.18459 5.59845 2.1593 5.80281C2.13401 6.00717 2.14933 6.21452 2.20437 6.41295C2.25941 6.61137 2.3531 6.79698 2.48005 6.95911C2.607 7.12124 2.76473 7.25671 2.94416 7.35773L9.76585 11.2914L9.80731 11.3151L12.9501 9.49339L12.1562 9.04908C10.2339 7.962 4.48445 4.6415 4.48445 4.6415C4.12162 4.43731 3.69273 4.38501 3.29147 4.49601C2.8902 4.60701 2.54917 4.87229 2.34286 5.23392L2.35175 5.22207Z" fill="white"/>
<path d="M11.3477 7.08047e-05C11.142 0.000458789 10.9385 0.041395 10.7487 0.120537C10.5589 0.199679 10.3866 0.315472 10.2416 0.461291C10.0966 0.607109 9.98176 0.780089 9.9037 0.970331C9.82563 1.16057 9.78585 1.36434 9.78663 1.56998L9.81625 10.4177C9.81625 11.2797 9.81625 11.3064 9.81625 11.3064L12.959 9.48467V9.18254C12.959 7.28088 12.9264 1.57886 12.9264 1.57886C12.9284 1.37098 12.8889 1.16479 12.8103 0.972353C12.7317 0.779911 12.6154 0.605079 12.4684 0.458079C12.3214 0.311079 12.1466 0.194861 11.9542 0.11622C11.7617 0.0375787 11.5555 -0.00190726 11.3477 7.08047e-05Z" fill="white"/>
<path d="M33.2437 6.51657C33.2437 5.96666 33.4621 5.43927 33.851 5.05042C34.2398 4.66157 34.7672 4.44312 35.3171 4.44312H40.9451C45.4504 4.44312 48.1726 7.10899 48.1726 10.9597V11.013C48.1726 15.3821 44.7751 17.6451 40.5422 17.6451H37.3965V21.3862C37.3965 21.9362 37.178 22.4636 36.7892 22.8524C36.4003 23.2413 35.873 23.4597 35.323 23.4597C34.7731 23.4597 34.2457 23.2413 33.8569 22.8524C33.468 22.4636 33.2496 21.9362 33.2496 21.3862L33.2437 6.51657ZM40.6844 13.9573C42.7579 13.9573 43.9753 12.7192 43.9753 11.0989V11.0456C43.9753 9.18541 42.6809 8.18719 40.6044 8.18719H37.3965V13.9425L40.6844 13.9573Z" fill="white"/>
<path d="M49.0435 19.147V19.0937C49.0435 15.9391 51.4427 14.4817 54.8669 14.4817C56.0705 14.4697 57.2668 14.6702 58.4007 15.0741V14.8313C58.4007 13.131 57.3491 12.1891 55.2994 12.1891C54.3413 12.1795 53.3873 12.3163 52.4706 12.5949C52.2809 12.6653 52.0805 12.7023 51.8782 12.7045C51.6561 12.7084 51.4354 12.668 51.2291 12.5856C51.0228 12.5033 50.8349 12.3806 50.6766 12.2247C50.5183 12.0689 50.3926 11.883 50.307 11.678C50.2214 11.4731 50.1775 11.253 50.1779 11.0309C50.1781 10.6844 50.2844 10.3462 50.4824 10.0619C50.6805 9.77752 50.9608 9.5606 51.2858 9.44025C52.7614 8.90265 54.3247 8.64645 55.8948 8.68492C58.1341 8.68492 59.7455 9.27734 60.7763 10.3022C61.8545 11.3834 62.3403 12.9681 62.3403 14.9142V21.493C62.3403 21.7539 62.2885 22.0123 62.1878 22.253C62.0872 22.4937 61.9397 22.7121 61.7539 22.8953C61.5682 23.0786 61.3479 23.2231 61.1058 23.3205C60.8637 23.418 60.6047 23.4663 60.3438 23.4628C59.159 23.4628 58.377 22.6275 58.377 21.7625V21.7359C57.3788 22.8437 56.0073 23.5694 54.0079 23.5694C51.2858 23.5694 49.0435 22.0054 49.0435 19.147ZM58.454 18.2051V17.4764C57.6302 17.1135 56.7387 16.9298 55.8385 16.9373C54.0879 16.9373 53.0067 17.6363 53.0067 18.9308V18.9871C53.0067 20.0919 53.925 20.7376 55.2461 20.7376C57.1596 20.7347 58.454 19.6861 58.454 18.2051Z" fill="white"/>
<path d="M65.7081 27.3194C65.1157 27.1031 64.4137 26.6174 64.4137 25.6191C64.4086 25.4028 64.4465 25.1877 64.5253 24.9862C64.6041 24.7846 64.7222 24.6008 64.8727 24.4454C65.0232 24.2899 65.2031 24.1659 65.4019 24.0806C65.6008 23.9953 65.8146 23.9504 66.031 23.9485C66.2606 23.9444 66.4891 23.9805 66.7063 24.0552C66.9825 24.1573 67.2739 24.2124 67.5683 24.2181C68.297 24.2181 68.6465 24.0818 69.0256 23.3531L69.1589 23.0303L64.2241 11.5966C64.1078 11.2983 64.0398 10.9833 64.0227 10.6636C64.0188 10.3993 64.0689 10.137 64.1699 9.89275C64.2709 9.6485 64.4207 9.42742 64.6101 9.24304C64.7994 9.05866 65.0244 8.91485 65.2713 8.82041C65.5182 8.72597 65.7817 8.68288 66.0458 8.69379C67.0707 8.69379 67.6631 9.25955 68.0156 10.2311L71.1317 18.6345L74.1471 10.2489C74.4699 9.38692 75.0653 8.6849 76.1169 8.6849C76.3685 8.6802 76.6185 8.7254 76.8525 8.81789C77.0866 8.91039 77.3 9.04834 77.4804 9.22379C77.6608 9.39924 77.8046 9.60869 77.9036 9.84006C78.0026 10.0714 78.0547 10.3201 78.057 10.5718C78.0474 10.9038 77.9834 11.232 77.8675 11.5433L72.8319 23.6523C71.6175 26.5907 70.406 27.6956 67.9504 27.6956C67.1862 27.709 66.4261 27.5815 65.7081 27.3194Z" fill="white"/>
<path d="M80.5361 6.39219C80.5361 5.84227 80.7546 5.31488 81.1434 4.92603C81.5323 4.53718 82.0597 4.31873 82.6096 4.31873H83.0421C84.0403 4.31873 84.6327 4.80451 85.1985 5.53319L93.1961 16.0486V6.31221C93.1961 5.76858 93.412 5.24722 93.7964 4.86281C94.1809 4.47841 94.7022 4.26245 95.2459 4.26245C95.7895 4.26245 96.3109 4.47841 96.6953 4.86281C97.0797 5.24722 97.2956 5.76858 97.2956 6.31221V21.327C97.2956 21.8769 97.0772 22.4043 96.6883 22.7932C96.2995 23.182 95.7721 23.4005 95.2221 23.4005H95.0859C94.0877 23.4005 93.4953 22.9147 92.9295 22.186L84.6357 11.2915V21.4129C84.6357 21.9566 84.4197 22.4779 84.0353 22.8623C83.6509 23.2467 83.1295 23.4627 82.5859 23.4627C82.0423 23.4627 81.5209 23.2467 81.1365 22.8623C80.7521 22.4779 80.5361 21.9566 80.5361 21.4129V6.39219Z" fill="white"/>
<path d="M107.609 23.6226C103.267 23.6226 100.059 20.5775 100.059 16.1551V16.1018C100.059 11.9756 102.997 8.57812 107.204 8.57812C112.032 8.57812 114.162 12.5414 114.162 15.5331C114.176 15.7907 114.136 16.0484 114.046 16.2899C113.955 16.5315 113.816 16.7517 113.636 16.9368C113.456 17.1218 113.24 17.2676 113.001 17.365C112.762 17.4625 112.506 17.5094 112.248 17.5029H104.129C104.535 19.3631 105.829 20.3346 107.663 20.3346C108.714 20.3428 109.739 20.001 110.574 19.3631C110.859 19.1408 111.212 19.0264 111.573 19.0402C111.785 19.0369 111.995 19.0767 112.192 19.1571C112.388 19.2376 112.566 19.357 112.714 19.5082C112.863 19.6594 112.98 19.8393 113.057 20.0368C113.134 20.2344 113.17 20.4455 113.163 20.6575C113.165 20.8866 113.118 21.1135 113.025 21.3229C112.932 21.5323 112.795 21.7195 112.624 21.872C111.223 23.0487 109.439 23.6714 107.609 23.6226ZM110.252 14.9407C110.009 13.1072 108.931 11.866 107.204 11.866C105.477 11.866 104.399 13.0805 104.076 14.9407H110.252Z" fill="white"/>
<path d="M117.316 19.2031V12.3518H117.18C116.944 12.3615 116.708 12.3234 116.487 12.2397C116.266 12.156 116.064 12.0285 115.894 11.8649C115.723 11.7012 115.588 11.5048 115.495 11.2874C115.402 11.07 115.354 10.836 115.354 10.5997C115.354 10.3634 115.402 10.1294 115.495 9.91203C115.588 9.69462 115.723 9.49818 115.894 9.33453C116.064 9.17088 116.266 9.04339 116.487 8.95971C116.708 8.87604 116.944 8.83792 117.18 8.84763H117.316V7.04076C117.306 6.76522 117.351 6.4904 117.449 6.23275C117.548 5.97509 117.697 5.7399 117.888 5.54126C118.079 5.34261 118.309 5.18459 118.562 5.07666C118.816 4.96872 119.089 4.91309 119.365 4.91309C119.64 4.91309 119.913 4.96872 120.167 5.07666C120.421 5.18459 120.65 5.34261 120.841 5.54126C121.033 5.7399 121.182 5.97509 121.28 6.23275C121.378 6.4904 121.423 6.76522 121.413 7.04076V8.84763H123.22C123.456 8.83792 123.692 8.87604 123.913 8.95971C124.134 9.04339 124.336 9.17088 124.506 9.33453C124.677 9.49818 124.812 9.69462 124.905 9.91203C124.998 10.1294 125.045 10.3634 125.045 10.5997C125.045 10.836 124.998 11.07 124.905 11.2874C124.812 11.5048 124.677 11.7012 124.506 11.8649C124.336 12.0285 124.134 12.156 123.913 12.2397C123.692 12.3234 123.456 12.3615 123.22 12.3518H121.413V18.5277C121.413 19.4726 121.819 19.9288 122.734 19.9288C122.87 19.9288 123.14 19.9021 123.22 19.9021C123.67 19.9045 124.101 20.0843 124.419 20.4027C124.738 20.721 124.918 21.1522 124.92 21.6024C124.916 21.9354 124.813 22.2597 124.623 22.5337C124.434 22.8076 124.167 23.0186 123.857 23.1397C123.109 23.4277 122.312 23.5647 121.511 23.5425C119.014 23.5425 117.316 22.5443 117.316 19.2031Z" fill="white"/>
</g>
<defs>
<clipPath id="clip0_5_39106">
<rect width="125" height="38.2109" fill="white"/>
</clipPath>
</defs>
</svg>
