<svg width="24" height="25" viewBox="0 0 24 25" fill="none" xmlns="http://www.w3.org/2000/svg">
<path d="M13.3248 11.1752L5.44059 19.0594M6.29145 13.3375L2.42965 12.4253C2.00478 12.325 1.85535 11.7975 2.16313 11.4886L5.23428 8.41744C5.44059 8.21113 5.72049 8.09292 6.01378 8.09069L9.47635 8.06059M13.8377 4.09842C16.4149 5.85591 18.6441 8.08512 20.4016 10.6623M11.1614 18.2085L12.0736 22.0703C12.1739 22.4952 12.7014 22.6447 13.0103 22.3369L16.0814 19.2657C16.2878 19.0594 16.406 18.7795 16.4082 18.4862L16.4383 15.0236M21.0629 8.85012L21.9639 4.51438C22.2093 3.33454 21.1655 2.29075 19.9856 2.53608L15.6499 3.43713C14.373 3.70254 13.2021 4.33483 12.281 5.25707L8.72362 8.81332C7.36647 10.1705 6.48326 11.9302 6.20447 13.8293L6.19221 13.9107C6.01601 15.1229 6.42193 16.3462 7.28729 17.2127C8.15266 18.0781 9.3771 18.484 10.5893 18.3067L10.6707 18.2944C12.5698 18.0167 14.3295 17.1324 15.6867 15.7753L19.2429 12.219C20.1652 11.2979 20.7975 10.127 21.0629 8.85012Z" stroke="#475467" stroke-width="2" stroke-linecap="round" stroke-linejoin="round"/>
</svg>
