<svg width="24" height="25" viewBox="0 0 24 25" fill="none" xmlns="http://www.w3.org/2000/svg">
<path d="M3 12C3 7.02944 7.02944 3 12 3V3C16.9706 3 21 7.02944 21 12V12C21 16.9706 16.9706 21 12 21V21C7.02944 21 3 16.9706 3 12V12Z" fill="#149CF4"/>
<path d="M16.9259 10.698C16.855 10.684 16.801 10.656 16.7571 10.6105C16.6998 10.5685 16.6592 10.509 16.6322 10.4355C16.5917 10.362 16.5749 10.2745 16.5749 10.159V8.6155C16.5749 8.4405 16.5479 8.2795 16.4905 8.15C16.4331 8.0205 16.3656 7.9155 16.2813 7.828C16.1834 7.7405 16.0855 7.681 15.9708 7.639C15.8594 7.597 15.7311 7.5795 15.6062 7.5795H15.5793H15.2687H12.4034V7.2575C12.8387 7.0965 13.1493 6.659 13.1493 6.1655C13.1493 5.525 12.643 5 12.0254 5C11.4077 5 10.9015 5.525 10.9015 6.1655C10.9015 6.6765 11.212 7.0965 11.6474 7.2715V7.5935H8.48838C8.3635 7.5935 8.23525 7.6075 8.12388 7.653C8.0125 7.695 7.89775 7.7545 7.81338 7.842C7.7155 7.9295 7.64462 8.031 7.60412 8.164C7.54675 8.2935 7.51975 8.4405 7.51975 8.6295V10.187C7.51975 10.3025 7.50625 10.39 7.46238 10.4635C7.42188 10.537 7.378 10.593 7.3375 10.6385C7.28012 10.6805 7.22612 10.712 7.16875 10.726C7.07087 10.754 7 10.8415 7 10.943V11.2475C7 11.349 7.07087 11.4365 7.16875 11.4645C7.23962 11.4785 7.29362 11.5065 7.3375 11.552C7.39487 11.594 7.43538 11.6535 7.46238 11.741C7.50288 11.8145 7.51975 11.916 7.51975 12.0455V13.6485C7.51975 13.8235 7.54675 13.9845 7.60412 14.114C7.6615 14.2435 7.729 14.3485 7.81338 14.436C7.91125 14.5235 8.00913 14.583 8.12388 14.625C8.23525 14.667 8.3635 14.6845 8.48838 14.6845H9.37263H14.5701C14.7119 14.6845 14.8367 14.7125 14.8806 14.814C14.9211 14.9155 14.9076 15.031 14.9076 15.15V15.9795V16.1405V17.467C14.9076 17.5825 14.9076 17.67 14.8671 17.7715C14.8266 17.873 14.7254 17.9325 14.5735 17.9325H9.8485H9.63925C9.4975 17.9325 9.37263 17.873 9.34563 17.7715C9.30513 17.67 9.31863 17.5685 9.31863 17.4495V16.7635C9.31863 16.7635 9.33212 16.326 8.92375 16.326C8.52887 16.326 8.54575 16.7355 8.54575 16.7635V17.537C8.54575 17.712 8.57275 17.873 8.63013 18.0025C8.6875 18.132 8.755 18.237 8.83937 18.3245C8.93725 18.412 9.03513 18.4715 9.14988 18.5135C9.26125 18.5555 9.3895 18.573 9.51437 18.573H9.54138H9.85187H14.7254C14.8502 18.573 14.9785 18.559 15.0899 18.5135C15.2012 18.4715 15.316 18.412 15.4004 18.3245C15.4982 18.237 15.5691 18.1355 15.6096 18.0025C15.667 17.873 15.694 17.726 15.694 17.537V16.095V15.9795V15.0345C15.694 14.8595 15.667 14.6985 15.6096 14.569C15.5522 14.4395 15.4847 14.3345 15.4004 14.247C15.3025 14.1595 15.2046 14.1 15.0899 14.058C14.9785 14.016 14.8502 13.9985 14.7254 13.9985H13.8411H8.64363C8.50188 13.9985 8.3635 13.897 8.31963 13.8095C8.27913 13.708 8.30613 12.952 8.30613 12.833V11.9895C8.30613 11.8005 8.27913 11.6535 8.22175 11.538C8.16438 11.4225 8.09687 11.335 8.026 11.2615C7.95512 11.188 7.87075 11.146 7.78638 11.1145C7.702 11.0865 7.63113 11.0725 7.56025 11.055V11.041C7.61763 11.041 7.702 11.013 7.78638 10.9815C7.87075 10.9395 7.95512 10.894 8.026 10.8205C8.09687 10.747 8.16775 10.6595 8.22175 10.558C8.27913 10.4565 8.30613 10.3235 8.30613 10.166V8.696C8.30613 8.5805 8.30612 8.4615 8.33312 8.36C8.37362 8.2585 8.47488 8.213 8.64363 8.2305H15.2721H15.4814C15.6231 8.2305 15.7345 8.2725 15.775 8.3775C15.8155 8.479 15.8155 8.5945 15.8155 8.7135V10.1975C15.8155 10.3445 15.8425 10.474 15.8999 10.5895C15.9572 10.691 16.0248 10.7785 16.0956 10.852C16.1665 10.9255 16.2509 10.9675 16.3353 11.013C16.4196 11.055 16.4905 11.0725 16.5614 11.0725V11.0865C16.504 11.0865 16.4196 11.1145 16.3353 11.146C16.2509 11.174 16.1665 11.2195 16.0956 11.293C16.0248 11.3665 15.9539 11.454 15.8999 11.5695C15.8425 11.685 15.8155 11.832 15.8155 12.021V13.0535C15.8155 13.0535 15.8155 13.4315 16.2104 13.4315C16.6187 13.4315 16.6053 13.0535 16.6053 13.0535V12.049C16.6053 11.9195 16.6188 11.8145 16.6626 11.7445C16.7031 11.671 16.747 11.5975 16.7875 11.5555C16.8449 11.5135 16.8989 11.482 16.9563 11.468C17.0541 11.44 17.125 11.3525 17.125 11.251V10.9465C17.0946 10.8135 17.0237 10.726 16.9259 10.698ZM12.0254 5.7595C12.2211 5.7595 12.3899 5.9345 12.3899 6.1375C12.3899 6.3405 12.2211 6.5155 12.0254 6.5155C11.8296 6.5155 11.6609 6.3405 11.6609 6.1375C11.6609 5.9345 11.8296 5.7595 12.0254 5.7595Z" fill="white"/>
<path d="M12.9501 10.4495C12.9501 10.8275 13.2438 11.1495 13.6251 11.1495C13.9896 11.1495 14.3001 10.845 14.3001 10.4495C14.3001 10.0715 14.0065 9.74951 13.6251 9.74951C13.2438 9.74951 12.9501 10.0575 12.9501 10.4495Z" fill="white"/>
<path d="M9.77759 10.4495C9.77759 10.8275 10.0712 11.1495 10.4526 11.1495C10.8171 11.1495 11.1276 10.845 11.1276 10.4495C11.1276 10.0715 10.834 9.74951 10.4526 9.74951C10.0881 9.76351 9.77759 10.0715 9.77759 10.4495Z" fill="white"/>
</svg>
