<svg width="24" height="15" viewBox="0 0 24 15" fill="none" xmlns="http://www.w3.org/2000/svg">
<g clip-path="url(#clip0_1395_11215)">
<mask id="mask0_1395_11215" style="mask-type:luminance" maskUnits="userSpaceOnUse" x="0" y="0" width="24" height="15">
<path d="M0 0.327148H24V14.7272H0V0.327148Z" fill="white"/>
</mask>
<g mask="url(#mask0_1395_11215)">
<path fill-rule="evenodd" clip-rule="evenodd" d="M12 0.327148C8.8 0.327148 6.8 1.92715 6 5.12715C7.2 3.52715 8.6 2.92715 10.2 3.32715C11.1129 3.55515 11.7653 4.21782 12.4876 4.95071C13.664 6.14493 15.0258 7.52715 18 7.52715C21.2 7.52715 23.2 5.92715 24 2.72715C22.8 4.32715 21.4 4.92715 19.8 4.52715C18.8871 4.29915 18.2347 3.63648 17.5124 2.90359C16.336 1.70937 14.9742 0.327148 12 0.327148ZM6 7.52715C2.8 7.52715 0.8 9.12715 0 12.3272C1.2 10.7272 2.6 10.1272 4.2 10.5272C5.11289 10.7556 5.76533 11.4178 6.48756 12.1507C7.664 13.3449 9.02578 14.7272 12 14.7272C15.2 14.7272 17.2 13.1272 18 9.92715C16.8 11.5272 15.4 12.1272 13.8 11.7272C12.8871 11.4992 12.2347 10.8365 11.5124 10.1036C10.336 8.90938 8.97422 7.52715 6 7.52715Z" fill="#38BDF8"/>
</g>
</g>
<defs>
<clipPath id="clip0_1395_11215">
<rect width="24" height="14.6667" fill="white" transform="translate(0 0.325195)"/>
</clipPath>
</defs>
</svg>
